M48
; DRILL file {KiCad 9.0.7} date 2026-01-25T16:39:30+0300
; FORMAT={-:-/ absolute / inch / decimal}
; #@! TF.CreationDate,2026-01-25T16:39:30+03:00
; #@! TF.GenerationSoftware,Kicad,Pcbnew,9.0.7
; #@! TF.FileFunction,Plated,1,2,PTH
FMAT,2
INCH
; #@! TA.AperFunction,Plated,PTH,ViaDrill
T1C0.0118
; #@! TA.AperFunction,Plated,PTH,ComponentDrill
T2C0.0295
; #@! TA.AperFunction,Plated,PTH,ComponentDrill
T3C0.0315
; #@! TA.AperFunction,Plated,PTH,ComponentDrill
T4C0.0394
; #@! TA.AperFunction,Plated,PTH,ComponentDrill
T5C0.0472
; #@! TA.AperFunction,Plated,PTH,ComponentDrill
T6C0.0512
; #@! TA.AperFunction,Plated,PTH,ComponentDrill
T7C0.2559
%
G90
G05
T1
X3.7008Y-1.4173
X3.8189Y-1.3386
X3.9764Y-1.4173
X4.0157Y-1.7717
X4.0748Y-1.563
X4.0945Y-2.3622
X4.1063Y-1.9272
X4.1339Y-1.378
X4.1732Y-1.6142
X4.252Y-1.4961
X4.252Y-1.7323
X4.7638Y-2.1654
X5.3543Y-2.1654
T2
X4.5654Y-2.3622
X4.6154Y-2.3622
X4.6654Y-2.3622
X5.1626Y-2.3622
X5.2126Y-2.3622
X5.2626Y-2.3622
T3
X2.0669Y-1.6575
X2.185Y-2.4606
X2.3327Y-1.9547
X2.628Y-2.061
X2.7756Y-2.4606
X2.8543Y-1.6575
X4.5646Y-2.7165
X4.8646Y-2.7165
X5.1555Y-2.7165
X5.4555Y-2.7165
T4
X3.4528Y-2.4823
X3.5906Y-2.4823
X4.0157Y-2.2441
X4.3063Y-1.2205
X4.3701Y-2.2441
X4.3701Y-2.5
X4.4063Y-1.2205
X4.5063Y-1.2205
X4.6063Y-1.2205
T5
X1.6142Y-1.9654
X1.6142Y-2.1654
X4.626Y-4.3504
X4.826Y-4.3504
X5.2134Y-4.3504
X5.4134Y-4.3504
T6
X2.2638Y-3.2205
X2.2638Y-3.5276
X3.937Y-2.9291
X3.937Y-3.8189
X4.5669Y-2.9134
X4.5669Y-3.5039
X4.5669Y-3.7008
X4.5669Y-3.8976
X4.8622Y-2.9134
X4.8622Y-3.5039
X4.8622Y-3.7008
X4.8622Y-3.8976
X5.1575Y-2.9134
X5.1575Y-3.563
X5.1575Y-3.8386
X5.4528Y-2.9134
X5.4528Y-3.7008
T7
X1.5748Y-1.378
X1.5748Y-4.3307
X6.1024Y-1.378
X6.1024Y-4.3307
M30
