M48
; DRILL file {KiCad 9.0.7} date 2026-03-22T18:19:45+0300
; FORMAT={-:-/ absolute / inch / decimal}
; #@! TF.CreationDate,2026-03-22T18:19:45+03:00
; #@! TF.GenerationSoftware,Kicad,Pcbnew,9.0.7
; #@! TF.FileFunction,Plated,1,2,PTH
FMAT,2
INCH
; #@! TA.AperFunction,Plated,PTH,ViaDrill
T1C0.0118
; #@! TA.AperFunction,Plated,PTH,ComponentDrill
T2C0.0295
; #@! TA.AperFunction,Plated,PTH,ComponentDrill
T3C0.0315
; #@! TA.AperFunction,Plated,PTH,ComponentDrill
T4C0.0394
; #@! TA.AperFunction,Plated,PTH,ComponentDrill
T5C0.0433
; #@! TA.AperFunction,Plated,PTH,ComponentDrill
T6C0.0472
; #@! TA.AperFunction,Plated,PTH,ComponentDrill
T7C0.0512
; #@! TA.AperFunction,Plated,PTH,ComponentDrill
T8C0.1693
%
G90
G05
T1
X3.7662Y-1.9281
X3.7662Y-2.0856
X3.7662Y-2.2431
X3.7662Y-2.4006
X3.7662Y-2.5581
X3.7662Y-2.7156
X3.7662Y-2.873
X3.9237Y-1.9281
X3.9237Y-2.0856
X3.9237Y-2.2431
X3.9237Y-2.4006
X3.9237Y-2.5581
X3.9237Y-2.7156
X3.9237Y-2.873
X4.0811Y-1.9281
X4.0811Y-2.0856
X4.0811Y-2.4006
X4.0811Y-2.5581
X4.0811Y-2.7156
X4.2386Y-1.9281
X4.2386Y-2.0856
X4.2386Y-2.2431
X4.2386Y-2.4006
X4.2386Y-2.5581
X4.2386Y-2.873
X4.3961Y-1.9281
X4.3961Y-2.0856
X4.3961Y-2.2431
X4.3961Y-2.4006
X4.3961Y-2.7156
X4.3961Y-2.873
X4.5536Y-1.9281
X4.5536Y-2.0856
X4.5536Y-2.2431
X4.5536Y-2.5581
X4.7111Y-1.9281
X4.7111Y-2.0856
X4.7111Y-2.5581
X4.7111Y-2.7156
X4.7111Y-2.873
X4.8685Y-1.9281
X4.8685Y-2.0856
X4.8685Y-2.4006
X4.8685Y-2.5581
X4.8685Y-3.188
X5.026Y-1.9281
X5.026Y-2.0856
X5.026Y-2.873
X5.026Y-3.188
X5.026Y-3.3455
X5.0512Y-2.9921
X5.1835Y-1.9281
X5.1835Y-2.0856
X5.1835Y-2.5581
X5.1835Y-2.873
X5.1835Y-3.0305
X5.1835Y-3.6604
X5.1835Y-3.8179
X5.1835Y-3.9754
X5.1835Y-4.1329
X5.1835Y-4.2904
X5.1835Y-4.4478
X5.1835Y-4.6053
X5.2283Y-3.3307
X5.2362Y-2.6378
X5.341Y-1.9281
X5.341Y-2.0856
X5.341Y-3.0305
X5.341Y-4.9203
X5.435Y-2.8543
X5.4985Y-1.9281
X5.4985Y-2.0856
X5.4985Y-2.7156
X5.4985Y-3.0305
X5.4985Y-3.3455
X5.4985Y-3.6604
X5.4985Y-3.8179
X5.4985Y-3.9754
X5.4985Y-4.1329
X5.4985Y-4.2904
X5.4985Y-4.7628
X5.4985Y-4.9203
X5.6559Y-1.9281
X5.6559Y-2.0856
X5.6559Y-3.0305
X5.6559Y-3.188
X5.6559Y-3.6604
X5.6559Y-3.8179
X5.6559Y-3.9754
X5.6559Y-4.1329
X5.6559Y-4.2904
X5.6559Y-4.4478
X5.6559Y-4.6053
X5.6559Y-4.9203
X5.7992Y-2.8228
X5.8134Y-1.9281
X5.8134Y-2.0856
X5.8134Y-2.5581
X5.8134Y-3.0305
X5.8134Y-3.188
X5.8134Y-3.503
X5.8134Y-3.8179
X5.8134Y-3.9754
X5.8134Y-4.1329
X5.8134Y-4.2904
X5.8134Y-4.4478
X5.8134Y-4.9203
X5.9709Y-1.9281
X5.9709Y-2.0856
X5.9709Y-2.4006
X5.9709Y-2.5581
X5.9709Y-2.7156
X5.9709Y-2.873
X5.9709Y-3.0305
X5.9709Y-3.188
X5.9709Y-3.503
X5.9709Y-3.6604
X5.9709Y-3.8179
X5.9709Y-3.9754
X5.9709Y-4.1329
X5.9709Y-4.2904
X5.9709Y-4.6053
X5.9709Y-4.9203
X6.1284Y-1.9281
X6.1284Y-2.5581
X6.1284Y-2.7156
X6.1284Y-2.873
X6.1284Y-3.0305
X6.1284Y-3.188
X6.1284Y-3.503
X6.1284Y-3.6604
X6.1284Y-3.8179
X6.1284Y-3.9754
X6.1284Y-4.1329
X6.1284Y-4.2904
X6.1284Y-4.4478
X6.1284Y-4.9203
X6.2859Y-4.9203
X6.4433Y-1.9281
X6.4433Y-2.2431
X6.4433Y-2.4006
X6.4433Y-2.5581
X6.4433Y-2.7156
X6.4433Y-2.873
X6.4433Y-3.0305
X6.4433Y-3.188
X6.4433Y-3.3455
X6.4433Y-3.503
X6.4433Y-3.6604
X6.4433Y-3.8179
X6.4433Y-3.9754
X6.4433Y-4.1329
X6.4433Y-4.2904
X6.4433Y-4.4478
X6.4433Y-4.9203
T2
X5.1535Y-3.1461
X5.1535Y-3.1961
X5.1535Y-3.2461
T3
X2.2835Y-4.0906
X2.313Y-3.5433
X2.3622Y-3.7953
X2.6575Y-3.9016
X2.9035Y-3.5433
X3.0709Y-4.0906
T4
X4.6949Y-2.2099
X4.6949Y-2.3477
X6.2402Y-3.2433
X6.2402Y-3.3433
X6.2402Y-3.4433
X6.2402Y-3.5433
T5
X4.5126Y-2.6772
X4.9126Y-2.6772
X5.5106Y-4.4724
X5.9106Y-4.4724
T6
X2.3984Y-4.7539
X2.5984Y-4.7539
X4.626Y-4.7539
X4.826Y-4.7539
X5.1564Y-4.7539
X5.3564Y-4.7539
X5.6092Y-4.7539
X5.8092Y-4.7539
T7
X2.4213Y-2.5748
X2.4213Y-2.8819
X4.0945Y-2.2835
X4.0945Y-3.1732
X4.5669Y-2.9134
X4.5669Y-3.5039
X4.5669Y-3.7008
X4.5669Y-3.8976
X4.8622Y-2.9134
X4.8622Y-3.5039
X4.8622Y-3.7008
X4.8622Y-3.8976
T8
X1.9685Y-2.0866
X1.9685Y-4.7244
X6.2992Y-2.0866
X6.2992Y-4.7244
M30
