%TF.GenerationSoftware,KiCad,Pcbnew,9.0.7*%
%TF.CreationDate,2026-03-22T18:19:07+03:00*%
%TF.ProjectId,cactus_plate,63616374-7573-45f7-906c-6174652e6b69,rev?*%
%TF.SameCoordinates,Original*%
%TF.FileFunction,Copper,L1,Top*%
%TF.FilePolarity,Positive*%
%FSLAX46Y46*%
G04 Gerber Fmt 4.6, Leading zero omitted, Abs format (unit mm)*
G04 Created by KiCad (PCBNEW 9.0.7) date 2026-03-22 18:19:07*
%MOMM*%
%LPD*%
G01*
G04 APERTURE LIST*
G04 Aperture macros list*
%AMRoundRect*
0 Rectangle with rounded corners*
0 $1 Rounding radius*
0 $2 $3 $4 $5 $6 $7 $8 $9 X,Y pos of 4 corners*
0 Add a 4 corners polygon primitive as box body*
4,1,4,$2,$3,$4,$5,$6,$7,$8,$9,$2,$3,0*
0 Add four circle primitives for the rounded corners*
1,1,$1+$1,$2,$3*
1,1,$1+$1,$4,$5*
1,1,$1+$1,$6,$7*
1,1,$1+$1,$8,$9*
0 Add four rect primitives between the rounded corners*
20,1,$1+$1,$2,$3,$4,$5,0*
20,1,$1+$1,$4,$5,$6,$7,0*
20,1,$1+$1,$6,$7,$8,$9,0*
20,1,$1+$1,$8,$9,$2,$3,0*%
G04 Aperture macros list end*
%TA.AperFunction,SMDPad,CuDef*%
%ADD10RoundRect,0.150000X-0.587500X-0.150000X0.587500X-0.150000X0.587500X0.150000X-0.587500X0.150000X0*%
%TD*%
%TA.AperFunction,SMDPad,CuDef*%
%ADD11RoundRect,0.250000X0.650000X-1.000000X0.650000X1.000000X-0.650000X1.000000X-0.650000X-1.000000X0*%
%TD*%
%TA.AperFunction,SMDPad,CuDef*%
%ADD12RoundRect,0.250000X0.350000X0.450000X-0.350000X0.450000X-0.350000X-0.450000X0.350000X-0.450000X0*%
%TD*%
%TA.AperFunction,SMDPad,CuDef*%
%ADD13RoundRect,0.250000X-0.350000X-0.450000X0.350000X-0.450000X0.350000X0.450000X-0.350000X0.450000X0*%
%TD*%
%TA.AperFunction,ComponentPad*%
%ADD14C,2.200000*%
%TD*%
%TA.AperFunction,ComponentPad*%
%ADD15RoundRect,0.249999X-0.850001X-0.850001X0.850001X-0.850001X0.850001X0.850001X-0.850001X0.850001X0*%
%TD*%
%TA.AperFunction,SMDPad,CuDef*%
%ADD16RoundRect,0.250000X-0.450000X0.350000X-0.450000X-0.350000X0.450000X-0.350000X0.450000X0.350000X0*%
%TD*%
%TA.AperFunction,ComponentPad*%
%ADD17C,7.500000*%
%TD*%
%TA.AperFunction,SMDPad,CuDef*%
%ADD18RoundRect,0.250000X0.450000X-0.350000X0.450000X0.350000X-0.450000X0.350000X-0.450000X-0.350000X0*%
%TD*%
%TA.AperFunction,SMDPad,CuDef*%
%ADD19R,3.600000X2.700000*%
%TD*%
%TA.AperFunction,ComponentPad*%
%ADD20O,2.000000X2.300000*%
%TD*%
%TA.AperFunction,ComponentPad*%
%ADD21RoundRect,0.250000X-0.750000X-0.900000X0.750000X-0.900000X0.750000X0.900000X-0.750000X0.900000X0*%
%TD*%
%TA.AperFunction,ComponentPad*%
%ADD22C,1.600000*%
%TD*%
%TA.AperFunction,SMDPad,CuDef*%
%ADD23RoundRect,0.250000X-0.337500X-0.475000X0.337500X-0.475000X0.337500X0.475000X-0.337500X0.475000X0*%
%TD*%
%TA.AperFunction,ComponentPad*%
%ADD24O,1.500000X1.050000*%
%TD*%
%TA.AperFunction,ComponentPad*%
%ADD25R,1.500000X1.050000*%
%TD*%
%TA.AperFunction,ComponentPad*%
%ADD26C,2.000000*%
%TD*%
%TA.AperFunction,ComponentPad*%
%ADD27C,1.700000*%
%TD*%
%TA.AperFunction,ComponentPad*%
%ADD28R,1.700000X1.700000*%
%TD*%
%TA.AperFunction,ComponentPad*%
%ADD29C,1.800000*%
%TD*%
%TA.AperFunction,ComponentPad*%
%ADD30R,2.000000X2.000000*%
%TD*%
%TA.AperFunction,SMDPad,CuDef*%
%ADD31RoundRect,0.150000X0.150000X-0.512500X0.150000X0.512500X-0.150000X0.512500X-0.150000X-0.512500X0*%
%TD*%
%TA.AperFunction,ComponentPad*%
%ADD32O,1.800000X3.600000*%
%TD*%
%TA.AperFunction,ComponentPad*%
%ADD33RoundRect,0.250000X-0.650000X-1.550000X0.650000X-1.550000X0.650000X1.550000X-0.650000X1.550000X0*%
%TD*%
%TA.AperFunction,ComponentPad*%
%ADD34RoundRect,0.250000X-0.750000X0.750000X-0.750000X-0.750000X0.750000X-0.750000X0.750000X0.750000X0*%
%TD*%
%TA.AperFunction,ViaPad*%
%ADD35C,0.600000*%
%TD*%
%TA.AperFunction,ViaPad*%
%ADD36C,0.500000*%
%TD*%
%TA.AperFunction,Conductor*%
%ADD37C,1.000000*%
%TD*%
%TA.AperFunction,Conductor*%
%ADD38C,0.500000*%
%TD*%
G04 APERTURE END LIST*
D10*
%TO.P,Q3,3,D*%
%TO.N,Net-(Q3-D)*%
X135437500Y-90000000D03*
%TO.P,Q3,2,S*%
%TO.N,GND*%
X133562500Y-90950000D03*
%TO.P,Q3,1,G*%
%TO.N,Net-(Q3-G)*%
X133562500Y-89050000D03*
%TD*%
D11*
%TO.P,D3,2,A*%
%TO.N,Net-(D3-A)*%
X135750000Y-68000000D03*
%TO.P,D3,1,K*%
%TO.N,+12V*%
X135750000Y-72000000D03*
%TD*%
D12*
%TO.P,R8,2*%
%TO.N,/GPIO_LIGHT*%
X129400000Y-87100000D03*
%TO.P,R8,1*%
%TO.N,Net-(Q3-G)*%
X131400000Y-87100000D03*
%TD*%
D13*
%TO.P,R5,2*%
%TO.N,/GPIO_PUMP*%
X139975000Y-86750000D03*
%TO.P,R5,1*%
%TO.N,Net-(Q4-G)*%
X137975000Y-86750000D03*
%TD*%
D14*
%TO.P,D5,2,A*%
%TO.N,Net-(D5-A)*%
X124780000Y-68000000D03*
D15*
%TO.P,D5,1,K*%
%TO.N,+12V*%
X114620000Y-68000000D03*
%TD*%
D16*
%TO.P,R3,2*%
%TO.N,GND*%
X134900000Y-83450000D03*
%TO.P,R3,1*%
%TO.N,Net-(Q1-B)*%
X134900000Y-81450000D03*
%TD*%
D17*
%TO.P,REF\u002A\u002A,1*%
%TO.N,N/C*%
X50000000Y-120000000D03*
%TD*%
D14*
%TO.P,D1,2,A*%
%TO.N,Net-(D1-A)*%
X150130000Y-113600000D03*
D15*
%TO.P,D1,1,K*%
%TO.N,+5V*%
X139970000Y-113600000D03*
%TD*%
D18*
%TO.P,R1,2*%
%TO.N,Net-(U1-FB)*%
X147400000Y-67800000D03*
%TO.P,R1,1*%
%TO.N,+12V*%
X147400000Y-69800000D03*
%TD*%
D19*
%TO.P,L1,2,2*%
%TO.N,Net-(D3-A)*%
X135700000Y-64450000D03*
%TO.P,L1,1,1*%
%TO.N,+5V*%
X135700000Y-56150000D03*
%TD*%
D10*
%TO.P,Q4,3,D*%
%TO.N,Net-(D1-A)*%
X143875000Y-89550000D03*
%TO.P,Q4,2,S*%
%TO.N,GND*%
X142000000Y-90500000D03*
%TO.P,Q4,1,G*%
%TO.N,Net-(Q4-G)*%
X142000000Y-88600000D03*
%TD*%
D20*
%TO.P,PS2,4,+Vout*%
%TO.N,+5V*%
X104000000Y-80600000D03*
%TO.P,PS2,3,-Vout*%
%TO.N,GND*%
X104000000Y-58000000D03*
%TO.P,PS2,2,AC/N*%
%TO.N,NEUT*%
X61500000Y-73200000D03*
D21*
%TO.P,PS2,1,AC/L*%
%TO.N,LINE*%
X61500000Y-65400000D03*
%TD*%
D22*
%TO.P,C1,2*%
%TO.N,NEUT*%
X73750000Y-90000000D03*
%TO.P,C1,1*%
%TO.N,LINE*%
X58750000Y-90000000D03*
%TD*%
D23*
%TO.P,C4,2*%
%TO.N,GND*%
X140737500Y-74850000D03*
%TO.P,C4,1*%
%TO.N,+12V*%
X138662500Y-74850000D03*
%TD*%
D17*
%TO.P,REF\u002A\u002A,1*%
%TO.N,N/C*%
X160000000Y-53000000D03*
%TD*%
D18*
%TO.P,R7,2*%
%TO.N,GND*%
X131500000Y-68000000D03*
%TO.P,R7,1*%
%TO.N,Net-(D4-K)*%
X131500000Y-70000000D03*
%TD*%
D24*
%TO.P,Q1,3,E*%
%TO.N,GND*%
X130900000Y-82450000D03*
%TO.P,Q1,2,B*%
%TO.N,Net-(Q1-B)*%
X130900000Y-81180000D03*
D25*
%TO.P,Q1,1,C*%
%TO.N,Net-(D5-A)*%
X130900000Y-79910000D03*
%TD*%
D17*
%TO.P,REF\u002A\u002A,1*%
%TO.N,N/C*%
X160000000Y-120000000D03*
%TD*%
D26*
%TO.P,F1,2*%
%TO.N,LINE*%
X58000000Y-103900000D03*
%TO.P,F1,1*%
%TO.N,Net-(F1-Pad1)*%
X78000000Y-103900000D03*
%TD*%
D27*
%TO.P,J4,4,Pin_4*%
%TO.N,GND*%
X158500000Y-90000000D03*
%TO.P,J4,3,Pin_3*%
%TO.N,/GPIO_PUMP*%
X158500000Y-87460000D03*
%TO.P,J4,2,Pin_2*%
%TO.N,/GPIO_LIGHT*%
X158500000Y-84920000D03*
D28*
%TO.P,J4,1,Pin_1*%
%TO.N,+5V*%
X158500000Y-82380000D03*
%TD*%
D29*
%TO.P,RV1,2*%
%TO.N,NEUT*%
X67500000Y-99100000D03*
%TO.P,RV1,1*%
%TO.N,LINE*%
X60000000Y-96400000D03*
%TD*%
D26*
%TO.P,K4,A2*%
%TO.N,Net-(D5-A)*%
X123500000Y-74000000D03*
D30*
%TO.P,K4,A1*%
%TO.N,+12V*%
X116000000Y-74000000D03*
D26*
%TO.P,K4,24*%
%TO.N,NEUT_OUT*%
X123500000Y-99000000D03*
%TO.P,K4,22*%
%TO.N,unconnected-(K4-Pad22)*%
X123500000Y-89000000D03*
%TO.P,K4,21*%
%TO.N,NEUT*%
X123500000Y-94000000D03*
%TO.P,K4,14*%
%TO.N,LINE_OUT*%
X116000000Y-99000000D03*
%TO.P,K4,12*%
%TO.N,unconnected-(K4-Pad12)*%
X116000000Y-89000000D03*
%TO.P,K4,11*%
%TO.N,LINE*%
X116000000Y-94000000D03*
%TD*%
D16*
%TO.P,R9,2*%
%TO.N,GND*%
X131300000Y-90900000D03*
%TO.P,R9,1*%
%TO.N,Net-(Q3-G)*%
X131300000Y-88900000D03*
%TD*%
D17*
%TO.P,REF\u002A\u002A,1*%
%TO.N,N/C*%
X50000000Y-53000000D03*
%TD*%
D18*
%TO.P,D4,2,A*%
%TO.N,+5V*%
X129000000Y-68000000D03*
%TO.P,D4,1,K*%
%TO.N,Net-(D4-K)*%
X129000000Y-70000000D03*
%TD*%
D13*
%TO.P,R4,2*%
%TO.N,/GPIO_LIGHT*%
X136800000Y-79650000D03*
%TO.P,R4,1*%
%TO.N,Net-(Q1-B)*%
X134800000Y-79650000D03*
%TD*%
D31*
%TO.P,U1,6,NC*%
%TO.N,unconnected-(U1-NC-Pad6)*%
X144300000Y-62450000D03*
%TO.P,U1,5,IN*%
%TO.N,+5V*%
X145250000Y-62450000D03*
%TO.P,U1,4,EN*%
X146200000Y-62450000D03*
%TO.P,U1,3,FB*%
%TO.N,Net-(U1-FB)*%
X146200000Y-64725000D03*
%TO.P,U1,2,GND*%
%TO.N,GND*%
X145250000Y-64725000D03*
%TO.P,U1,1,SW*%
%TO.N,Net-(D3-A)*%
X144300000Y-64725000D03*
%TD*%
D16*
%TO.P,R6,2*%
%TO.N,GND*%
X139875000Y-90550000D03*
%TO.P,R6,1*%
%TO.N,Net-(Q4-G)*%
X139875000Y-88550000D03*
%TD*%
D32*
%TO.P,J5,2*%
%TO.N,Net-(Q3-D)*%
X136052500Y-120750000D03*
D33*
%TO.P,J5,1*%
%TO.N,+12V*%
X130972500Y-120750000D03*
%TD*%
D32*
%TO.P,J3,2*%
%TO.N,NEUT_OUT*%
X122580000Y-120750000D03*
D33*
%TO.P,J3,1*%
%TO.N,LINE_OUT*%
X117500000Y-120750000D03*
%TD*%
D23*
%TO.P,C3,2*%
%TO.N,GND*%
X148625000Y-59750000D03*
%TO.P,C3,1*%
%TO.N,+5V*%
X146550000Y-59750000D03*
%TD*%
D12*
%TO.P,R2,2*%
%TO.N,GND*%
X142900000Y-67950000D03*
%TO.P,R2,1*%
%TO.N,Net-(U1-FB)*%
X144900000Y-67950000D03*
%TD*%
D26*
%TO.P,C2,2*%
%TO.N,GND*%
X119250000Y-59632323D03*
D34*
%TO.P,C2,1*%
%TO.N,+5V*%
X119250000Y-56132323D03*
%TD*%
D32*
%TO.P,J1,2*%
%TO.N,Net-(D1-A)*%
X147552500Y-120750000D03*
D33*
%TO.P,J1,1*%
%TO.N,+5V*%
X142472500Y-120750000D03*
%TD*%
D32*
%TO.P,J2,2*%
%TO.N,Net-(F1-Pad1)*%
X66000000Y-120750000D03*
D33*
%TO.P,J2,1*%
%TO.N,NEUT*%
X60920000Y-120750000D03*
%TD*%
D35*
%TO.N,GND*%
X163660714Y-124975000D03*
X163660714Y-112975000D03*
X163660714Y-108975000D03*
X163660714Y-104975000D03*
X163660714Y-100975000D03*
X163660714Y-96975000D03*
X163660714Y-92975000D03*
X163660714Y-88975000D03*
X163660714Y-84975000D03*
X163660714Y-80975000D03*
X163660714Y-76975000D03*
X163660714Y-72975000D03*
X163660714Y-68975000D03*
X163660714Y-64975000D03*
X163660714Y-60975000D03*
X163660714Y-56975000D03*
X163660714Y-48975000D03*
X159660714Y-124975000D03*
X155660714Y-124975000D03*
X155660714Y-112975000D03*
X155660714Y-108975000D03*
X155660714Y-104975000D03*
X155660714Y-100975000D03*
X155660714Y-96975000D03*
X155660714Y-92975000D03*
X155660714Y-88975000D03*
X155660714Y-80975000D03*
X155660714Y-76975000D03*
X155660714Y-72975000D03*
X155660714Y-68975000D03*
X155660714Y-64975000D03*
X155660714Y-48975000D03*
X151660714Y-124975000D03*
X151660714Y-116975000D03*
X151660714Y-108975000D03*
X151660714Y-104975000D03*
X151660714Y-100975000D03*
X151660714Y-96975000D03*
X151660714Y-92975000D03*
X151660714Y-88975000D03*
X151660714Y-80975000D03*
X151660714Y-76975000D03*
X151660714Y-72975000D03*
X151660714Y-68975000D03*
X151660714Y-64975000D03*
X151660714Y-60975000D03*
X151660714Y-52975000D03*
X151660714Y-48975000D03*
X147660714Y-124975000D03*
X147660714Y-112975000D03*
X147660714Y-108975000D03*
X147660714Y-104975000D03*
X147660714Y-100975000D03*
X147660714Y-96975000D03*
X147660714Y-88975000D03*
X147660714Y-80975000D03*
X147660714Y-76975000D03*
X147660714Y-64975000D03*
X147660714Y-52975000D03*
X147660714Y-48975000D03*
X143660714Y-124975000D03*
X143660714Y-116975000D03*
X143660714Y-112975000D03*
X143660714Y-108975000D03*
X143660714Y-104975000D03*
X143660714Y-100975000D03*
X143660714Y-96975000D03*
X143660714Y-92975000D03*
X143660714Y-80975000D03*
X143660714Y-76975000D03*
X143660714Y-52975000D03*
X143660714Y-48975000D03*
X139660714Y-124975000D03*
X139660714Y-120975000D03*
X139660714Y-108975000D03*
X139660714Y-104975000D03*
X139660714Y-100975000D03*
X139660714Y-96975000D03*
X139660714Y-92975000D03*
X139660714Y-84975000D03*
X139660714Y-76975000D03*
X139660714Y-68975000D03*
X139660714Y-52975000D03*
X139660714Y-48975000D03*
X135660714Y-124975000D03*
X135660714Y-76975000D03*
X135660714Y-52975000D03*
X135660714Y-48975000D03*
X131660714Y-116975000D03*
X131660714Y-112975000D03*
X131660714Y-108975000D03*
X131660714Y-104975000D03*
X131660714Y-100975000D03*
X131660714Y-96975000D03*
X131660714Y-92975000D03*
X131660714Y-76975000D03*
X131660714Y-72975000D03*
X131660714Y-64975000D03*
X131660714Y-52975000D03*
X131660714Y-48975000D03*
X127660714Y-84975000D03*
X127660714Y-80975000D03*
X127660714Y-72975000D03*
X127660714Y-52975000D03*
X127660714Y-48975000D03*
X123660714Y-80975000D03*
X123660714Y-64975000D03*
X123660714Y-60975000D03*
X123660714Y-52975000D03*
X123660714Y-48975000D03*
X119660714Y-72975000D03*
X119660714Y-68975000D03*
X119660714Y-64975000D03*
X119660714Y-52975000D03*
X119660714Y-48975000D03*
X115660714Y-64975000D03*
X115660714Y-56975000D03*
X115660714Y-52975000D03*
X115660714Y-48975000D03*
X111660714Y-72975000D03*
X111660714Y-68975000D03*
X111660714Y-60975000D03*
X111660714Y-56975000D03*
X111660714Y-52975000D03*
X111660714Y-48975000D03*
X107660714Y-72975000D03*
X107660714Y-64975000D03*
X107660714Y-60975000D03*
X107660714Y-56975000D03*
X107660714Y-52975000D03*
X107660714Y-48975000D03*
X103660714Y-68975000D03*
X103660714Y-64975000D03*
X103660714Y-60975000D03*
X103660714Y-52975000D03*
X103660714Y-48975000D03*
X99660714Y-72975000D03*
X99660714Y-68975000D03*
X99660714Y-64975000D03*
X99660714Y-60975000D03*
X99660714Y-56975000D03*
X99660714Y-52975000D03*
X99660714Y-48975000D03*
X95660714Y-72975000D03*
X95660714Y-68975000D03*
X95660714Y-64975000D03*
X95660714Y-60975000D03*
X95660714Y-56975000D03*
X95660714Y-52975000D03*
X95660714Y-48975000D03*
X132800000Y-84600000D03*
X133000000Y-67000000D03*
%TO.N,+12V*%
X147300000Y-71700000D03*
D36*
X128300000Y-76000000D03*
D35*
X138050000Y-72500000D03*
%TD*%
D37*
%TO.N,NEUT*%
X121000000Y-96500000D02*
X123500000Y-94000000D01*
X80250000Y-96500000D02*
X121000000Y-96500000D01*
X73750000Y-90000000D02*
X80250000Y-96500000D01*
%TO.N,LINE*%
X87650000Y-91400000D02*
X113400000Y-91400000D01*
X61650000Y-65400000D02*
X87650000Y-91400000D01*
X61500000Y-65400000D02*
X61650000Y-65400000D01*
X113400000Y-91400000D02*
X116000000Y-94000000D01*
%TO.N,+5V*%
X128650000Y-67650000D02*
X129000000Y-68000000D01*
X128650000Y-65401342D02*
X128650000Y-67650000D01*
X128661714Y-64560372D02*
X128661714Y-65389628D01*
X128650000Y-64548658D02*
X128661714Y-64560372D01*
X128661714Y-65389628D02*
X128650000Y-65401342D01*
X128650000Y-61401342D02*
X128650000Y-64548658D01*
X128650000Y-60548658D02*
X128661714Y-60560372D01*
X128650000Y-56150000D02*
X128650000Y-60548658D01*
X128661714Y-60560372D02*
X128661714Y-61389628D01*
X128661714Y-61389628D02*
X128650000Y-61401342D01*
%TO.N,NEUT*%
X60920000Y-105680000D02*
X60920000Y-120750000D01*
X67500000Y-99100000D02*
X60920000Y-105680000D01*
%TO.N,Net-(F1-Pad1)*%
X66000000Y-115900000D02*
X66000000Y-120750000D01*
X78000000Y-103900000D02*
X66000000Y-115900000D01*
%TO.N,NEUT*%
X73750000Y-89750000D02*
X61500000Y-77500000D01*
X61500000Y-77500000D02*
X61500000Y-73200000D01*
X67500000Y-99100000D02*
X67500000Y-99000000D01*
X67500000Y-99000000D02*
X73750000Y-92750000D01*
X73750000Y-92750000D02*
X73750000Y-90000000D01*
X73750000Y-90000000D02*
X73750000Y-89750000D01*
%TO.N,LINE*%
X58750000Y-90000000D02*
X58750000Y-68150000D01*
X58000000Y-98400000D02*
X60000000Y-96400000D01*
X60000000Y-96400000D02*
X60000000Y-91250000D01*
X58750000Y-68150000D02*
X61500000Y-65400000D01*
X58000000Y-103900000D02*
X58000000Y-98400000D01*
X60000000Y-91250000D02*
X58750000Y-90000000D01*
D38*
%TO.N,GND*%
X132000000Y-68000000D02*
X133000000Y-67000000D01*
X148625000Y-59750000D02*
X148625000Y-62225000D01*
X131500000Y-68000000D02*
X132000000Y-68000000D01*
X147250000Y-63600000D02*
X145712501Y-63600000D01*
X145250000Y-64062501D02*
X145250000Y-64725000D01*
X132800000Y-84600000D02*
X133950000Y-83450000D01*
X145712501Y-63600000D02*
X145250000Y-64062501D01*
X148625000Y-62225000D02*
X147250000Y-63600000D01*
X145250000Y-65600000D02*
X142900000Y-67950000D01*
X133950000Y-83450000D02*
X134900000Y-83450000D01*
X145250000Y-64725000D02*
X145250000Y-65600000D01*
%TO.N,+5V*%
X148500000Y-123600000D02*
X145322500Y-123600000D01*
D37*
X128650000Y-56150000D02*
X135700000Y-56150000D01*
X104000000Y-71382323D02*
X119250000Y-56132323D01*
X158500000Y-62250000D02*
X152400000Y-56150000D01*
X104000000Y-80600000D02*
X104000000Y-71382323D01*
D38*
X160400000Y-84280000D02*
X160400000Y-111700000D01*
X139970000Y-113600000D02*
X139970000Y-118147500D01*
D37*
X119250000Y-56132323D02*
X119267677Y-56150000D01*
X119267677Y-56150000D02*
X128650000Y-56150000D01*
X135700000Y-56150000D02*
X146550000Y-56150000D01*
D38*
X146550000Y-62100000D02*
X146200000Y-62450000D01*
X145322500Y-123600000D02*
X142472500Y-120750000D01*
X139970000Y-118147500D02*
X139964375Y-118153125D01*
D37*
X152400000Y-56150000D02*
X146550000Y-56150000D01*
D38*
X142472500Y-120661250D02*
X142472500Y-120750000D01*
X146550000Y-59750000D02*
X146550000Y-56150000D01*
D37*
X158500000Y-82380000D02*
X158500000Y-62250000D01*
D38*
X160400000Y-111700000D02*
X148500000Y-123600000D01*
X146550000Y-59750000D02*
X146550000Y-62100000D01*
X139964375Y-118153125D02*
X142472500Y-120661250D01*
X158500000Y-82380000D02*
X160400000Y-84280000D01*
X146200000Y-62450000D02*
X145250000Y-62450000D01*
%TO.N,Net-(D1-A)*%
X150080000Y-95755000D02*
X143875000Y-89550000D01*
X150130000Y-113600000D02*
X150080000Y-113550000D01*
X150080000Y-113550000D02*
X150080000Y-95755000D01*
X147552500Y-116177500D02*
X147552500Y-120750000D01*
X150130000Y-113600000D02*
X147552500Y-116177500D01*
%TO.N,+12V*%
X134350000Y-74850000D02*
X129450000Y-74850000D01*
X135750000Y-74800000D02*
X135800000Y-74850000D01*
X136000000Y-74850000D02*
X135800000Y-74850000D01*
X114600000Y-68320000D02*
X114600000Y-72600000D01*
X114920000Y-68000000D02*
X114600000Y-68320000D01*
X114600000Y-72600000D02*
X116000000Y-74000000D01*
X135750000Y-72050000D02*
X135750000Y-72000000D01*
X135800000Y-74850000D02*
X134350000Y-74850000D01*
X135600000Y-72200000D02*
X135750000Y-72050000D01*
X129450000Y-74850000D02*
X128300000Y-76000000D01*
X138662500Y-74850000D02*
X136000000Y-74850000D01*
X147400000Y-71600000D02*
X147300000Y-71700000D01*
X135750000Y-72000000D02*
X135750000Y-74800000D01*
X147400000Y-69800000D02*
X147400000Y-71600000D01*
%TO.N,Net-(D3-A)*%
X135700000Y-67950000D02*
X135750000Y-68000000D01*
X135975000Y-64725000D02*
X135700000Y-64450000D01*
X144300000Y-64725000D02*
X135975000Y-64725000D01*
X135700000Y-64450000D02*
X135700000Y-67950000D01*
D37*
%TO.N,NEUT_OUT*%
X123500000Y-99160000D02*
X122580000Y-100080000D01*
X122580000Y-100080000D02*
X122580000Y-120750000D01*
X123500000Y-99000000D02*
X123500000Y-99160000D01*
%TO.N,LINE_OUT*%
X116000000Y-99000000D02*
X117500000Y-100500000D01*
X117500000Y-100500000D02*
X117500000Y-120750000D01*
D38*
%TO.N,/GPIO_LIGHT*%
X141920000Y-84920000D02*
X141500000Y-84500000D01*
X136800000Y-79650000D02*
X136800000Y-83348292D01*
X136900000Y-79150000D02*
X136900000Y-79450000D01*
X136800000Y-79800000D02*
X136800000Y-79650000D01*
X136800000Y-83348292D02*
X134199292Y-85949000D01*
X130551000Y-85949000D02*
X129400000Y-87100000D01*
X158500000Y-84920000D02*
X141920000Y-84920000D01*
X141500000Y-84500000D02*
X136800000Y-79800000D01*
X134199292Y-85949000D02*
X130551000Y-85949000D01*
%TO.N,/GPIO_PUMP*%
X140625000Y-87400000D02*
X158440000Y-87400000D01*
X158440000Y-87400000D02*
X158500000Y-87460000D01*
X139975000Y-86750000D02*
X140625000Y-87400000D01*
%TO.N,Net-(Q1-B)*%
X134630000Y-81180000D02*
X134900000Y-81450000D01*
X130900000Y-81180000D02*
X134630000Y-81180000D01*
X134900000Y-79450000D02*
X134900000Y-81450000D01*
%TO.N,Net-(U1-FB)*%
X147250000Y-67950000D02*
X147400000Y-67800000D01*
X146200000Y-64725000D02*
X146200000Y-66600000D01*
X146200000Y-66600000D02*
X147400000Y-67800000D01*
X144900000Y-67950000D02*
X147250000Y-67950000D01*
%TO.N,Net-(D4-K)*%
X129000000Y-70000000D02*
X131500000Y-70000000D01*
%TO.N,Net-(D5-A)*%
X124800000Y-72700000D02*
X124800000Y-68280000D01*
X130900000Y-79910000D02*
X129410000Y-79910000D01*
D37*
X123560000Y-73940000D02*
X123500000Y-74000000D01*
D38*
X124800000Y-68280000D02*
X125080000Y-68000000D01*
X123500000Y-74000000D02*
X124800000Y-72700000D01*
X129410000Y-79910000D02*
X123500000Y-74000000D01*
%TO.N,Net-(Q3-G)*%
X133562500Y-89050000D02*
X131450000Y-89050000D01*
X131300000Y-87200000D02*
X131400000Y-87100000D01*
X131300000Y-88900000D02*
X131300000Y-87200000D01*
X131450000Y-89050000D02*
X131300000Y-88900000D01*
%TO.N,Net-(Q3-D)*%
X136052500Y-90615000D02*
X136052500Y-120750000D01*
X135437500Y-90000000D02*
X136052500Y-90615000D01*
%TO.N,Net-(Q4-G)*%
X139875000Y-88550000D02*
X141950000Y-88550000D01*
X138075000Y-86750000D02*
X139875000Y-88550000D01*
X141950000Y-88550000D02*
X142000000Y-88600000D01*
X137975000Y-86750000D02*
X138075000Y-86750000D01*
%TD*%
%TA.AperFunction,Conductor*%
%TO.N,+12V*%
G36*
X139243039Y-70919685D02*
G01*
X139288794Y-70972489D01*
X139300000Y-71024000D01*
X139300000Y-74626000D01*
X139280315Y-74693039D01*
X139227511Y-74738794D01*
X139176000Y-74750000D01*
X135924000Y-74750000D01*
X135856961Y-74730315D01*
X135811206Y-74677511D01*
X135800000Y-74626000D01*
X135800000Y-71024000D01*
X135819685Y-70956961D01*
X135872489Y-70911206D01*
X135924000Y-70900000D01*
X139176000Y-70900000D01*
X139243039Y-70919685D01*
G37*
%TD.AperFunction*%
%TD*%
%TA.AperFunction,Conductor*%
%TO.N,+5V*%
G36*
X146543039Y-56019685D02*
G01*
X146588794Y-56072489D01*
X146600000Y-56124000D01*
X146600000Y-61105000D01*
X146600000Y-61168642D01*
X146580315Y-61235681D01*
X146527511Y-61281436D01*
X146458353Y-61291380D01*
X146453719Y-61290624D01*
X146452498Y-61290400D01*
X146450000Y-61290203D01*
X146450000Y-62166666D01*
X146150000Y-62500000D01*
X145250000Y-62500000D01*
X145250000Y-61290203D01*
X145500000Y-61290203D01*
X145500000Y-62200000D01*
X145950000Y-62200000D01*
X145950000Y-61290203D01*
X145947504Y-61290400D01*
X145789806Y-61336216D01*
X145789791Y-61336222D01*
X145788112Y-61337216D01*
X145786624Y-61337593D01*
X145782641Y-61339317D01*
X145782362Y-61338674D01*
X145720387Y-61354393D01*
X145667548Y-61338878D01*
X145667359Y-61339317D01*
X145663803Y-61337778D01*
X145661888Y-61337216D01*
X145660208Y-61336222D01*
X145660193Y-61336216D01*
X145502494Y-61290400D01*
X145502497Y-61290400D01*
X145500000Y-61290203D01*
X145250000Y-61290203D01*
X145250000Y-61250000D01*
X145000000Y-61250000D01*
X128874000Y-61250000D01*
X128806961Y-61230315D01*
X128761206Y-61177511D01*
X128750000Y-61126000D01*
X128750000Y-60274986D01*
X145462501Y-60274986D01*
X145472994Y-60377697D01*
X145528141Y-60544119D01*
X145528143Y-60544124D01*
X145620184Y-60693345D01*
X145744154Y-60817315D01*
X145893375Y-60909356D01*
X145893380Y-60909358D01*
X146059802Y-60964505D01*
X146059809Y-60964506D01*
X146162519Y-60974999D01*
X146299999Y-60974999D01*
X146300000Y-60974998D01*
X146300000Y-60000000D01*
X145462501Y-60000000D01*
X145462501Y-60274986D01*
X128750000Y-60274986D01*
X128750000Y-59225013D01*
X145462500Y-59225013D01*
X145462500Y-59500000D01*
X146300000Y-59500000D01*
X146300000Y-58525000D01*
X146162527Y-58525000D01*
X146162512Y-58525001D01*
X146059802Y-58535494D01*
X145893380Y-58590641D01*
X145893375Y-58590643D01*
X145744154Y-58682684D01*
X145620184Y-58806654D01*
X145528143Y-58955875D01*
X145528141Y-58955880D01*
X145472994Y-59122302D01*
X145472993Y-59122309D01*
X145462500Y-59225013D01*
X128750000Y-59225013D01*
X128750000Y-57547844D01*
X133400000Y-57547844D01*
X133406401Y-57607372D01*
X133406403Y-57607379D01*
X133456645Y-57742086D01*
X133456649Y-57742093D01*
X133542809Y-57857187D01*
X133542812Y-57857190D01*
X133657906Y-57943350D01*
X133657913Y-57943354D01*
X133792620Y-57993596D01*
X133792627Y-57993598D01*
X133852155Y-57999999D01*
X133852172Y-58000000D01*
X135450000Y-58000000D01*
X135950000Y-58000000D01*
X137547828Y-58000000D01*
X137547844Y-57999999D01*
X137607372Y-57993598D01*
X137607379Y-57993596D01*
X137742086Y-57943354D01*
X137742093Y-57943350D01*
X137857187Y-57857190D01*
X137857190Y-57857187D01*
X137943350Y-57742093D01*
X137943354Y-57742086D01*
X137993596Y-57607379D01*
X137993598Y-57607372D01*
X137999999Y-57547844D01*
X138000000Y-57547827D01*
X138000000Y-56400000D01*
X135950000Y-56400000D01*
X135950000Y-58000000D01*
X135450000Y-58000000D01*
X135450000Y-56400000D01*
X133400000Y-56400000D01*
X133400000Y-57547844D01*
X128750000Y-57547844D01*
X128750000Y-56124000D01*
X128769685Y-56056961D01*
X128822489Y-56011206D01*
X128874000Y-56000000D01*
X133270000Y-56000000D01*
X138130000Y-56000000D01*
X146476000Y-56000000D01*
X146543039Y-56019685D01*
G37*
%TD.AperFunction*%
%TD*%
%TA.AperFunction,Conductor*%
%TO.N,GND*%
G36*
X167442539Y-45520185D02*
G01*
X167488294Y-45572989D01*
X167499500Y-45624500D01*
X167499500Y-127375500D01*
X167479815Y-127442539D01*
X167427011Y-127488294D01*
X167375500Y-127499500D01*
X136999926Y-127499500D01*
X136932887Y-127479815D01*
X136916317Y-127467072D01*
X132098760Y-123068432D01*
X132062525Y-123008693D01*
X132064339Y-122938847D01*
X132094684Y-122889183D01*
X132215212Y-122768656D01*
X132307314Y-122619334D01*
X132362499Y-122452797D01*
X132373000Y-122350009D01*
X132372999Y-119149992D01*
X132369524Y-119115978D01*
X132362499Y-119047203D01*
X132362498Y-119047200D01*
X132307314Y-118880666D01*
X132215212Y-118731344D01*
X132091156Y-118607288D01*
X131973000Y-118534409D01*
X131941836Y-118515187D01*
X131941831Y-118515185D01*
X131922004Y-118508615D01*
X131775297Y-118460001D01*
X131775295Y-118460000D01*
X131672510Y-118449500D01*
X130272498Y-118449500D01*
X130272481Y-118449501D01*
X130169703Y-118460000D01*
X130169700Y-118460001D01*
X130003168Y-118515185D01*
X130003163Y-118515187D01*
X129853842Y-118607289D01*
X129729789Y-118731342D01*
X129637687Y-118880663D01*
X129637686Y-118880666D01*
X129582501Y-119047203D01*
X129582501Y-119047204D01*
X129582500Y-119047204D01*
X129572000Y-119149983D01*
X129572000Y-120480262D01*
X129552315Y-120547301D01*
X129499511Y-120593056D01*
X129430353Y-120603000D01*
X129366797Y-120573975D01*
X129364391Y-120571834D01*
X126040391Y-117536878D01*
X126004156Y-117477139D01*
X126000000Y-117445306D01*
X126000000Y-91299986D01*
X130100001Y-91299986D01*
X130110494Y-91402697D01*
X130165641Y-91569119D01*
X130165643Y-91569124D01*
X130257684Y-91718345D01*
X130381654Y-91842315D01*
X130530875Y-91934356D01*
X130530880Y-91934358D01*
X130697302Y-91989505D01*
X130697309Y-91989506D01*
X130800019Y-91999999D01*
X131049999Y-91999999D01*
X131550000Y-91999999D01*
X131799972Y-91999999D01*
X131799986Y-91999998D01*
X131902697Y-91989505D01*
X132069119Y-91934358D01*
X132069124Y-91934356D01*
X132218345Y-91842315D01*
X132342316Y-91718344D01*
X132342320Y-91718339D01*
X132386640Y-91646484D01*
X132438587Y-91599758D01*
X132507549Y-91588535D01*
X132568178Y-91613599D01*
X132573441Y-91617681D01*
X132714803Y-91701282D01*
X132714806Y-91701283D01*
X132872504Y-91747099D01*
X132872510Y-91747100D01*
X132909350Y-91749999D01*
X132909366Y-91750000D01*
X133312500Y-91750000D01*
X133812500Y-91750000D01*
X134215634Y-91750000D01*
X134215649Y-91749999D01*
X134252489Y-91747100D01*
X134252495Y-91747099D01*
X134410193Y-91701283D01*
X134410196Y-91701282D01*
X134551552Y-91617685D01*
X134551561Y-91617678D01*
X134667678Y-91501561D01*
X134667685Y-91501552D01*
X134751281Y-91360198D01*
X134797100Y-91202486D01*
X134797295Y-91200001D01*
X134797295Y-91200000D01*
X133812500Y-91200000D01*
X133812500Y-91750000D01*
X133312500Y-91750000D01*
X133312500Y-91200000D01*
X132296362Y-91200000D01*
X132229323Y-91180315D01*
X132208681Y-91163681D01*
X132195000Y-91150000D01*
X131550000Y-91150000D01*
X131550000Y-91999999D01*
X131049999Y-91999999D01*
X131050000Y-91999998D01*
X131050000Y-91150000D01*
X130100001Y-91150000D01*
X130100001Y-91299986D01*
X126000000Y-91299986D01*
X126000000Y-89000000D01*
X114000000Y-77000000D01*
X105124500Y-77000000D01*
X105057461Y-76980315D01*
X105011706Y-76927511D01*
X105000500Y-76876000D01*
X105000500Y-71848104D01*
X105020185Y-71781065D01*
X105036814Y-71760428D01*
X109697260Y-67099982D01*
X113019500Y-67099982D01*
X113019500Y-68900017D01*
X113030000Y-69002796D01*
X113085185Y-69169332D01*
X113085186Y-69169335D01*
X113177288Y-69318656D01*
X113301344Y-69442712D01*
X113450665Y-69534814D01*
X113617202Y-69589999D01*
X113719990Y-69600500D01*
X113725500Y-69600500D01*
X113792539Y-69620185D01*
X113838294Y-69672989D01*
X113849500Y-69724500D01*
X113849500Y-72673918D01*
X113849500Y-72673920D01*
X113849499Y-72673920D01*
X113878340Y-72818907D01*
X113878343Y-72818917D01*
X113934914Y-72955492D01*
X113967812Y-73004727D01*
X113967813Y-73004730D01*
X114017046Y-73078414D01*
X114017052Y-73078421D01*
X114463181Y-73524549D01*
X114496666Y-73585872D01*
X114499500Y-73612230D01*
X114499500Y-75047870D01*
X114499501Y-75047876D01*
X114505908Y-75107483D01*
X114556202Y-75242328D01*
X114556206Y-75242335D01*
X114642452Y-75357544D01*
X114642455Y-75357547D01*
X114757664Y-75443793D01*
X114757671Y-75443797D01*
X114892517Y-75494091D01*
X114892516Y-75494091D01*
X114899444Y-75494835D01*
X114952127Y-75500500D01*
X117047872Y-75500499D01*
X117107483Y-75494091D01*
X117242331Y-75443796D01*
X117357546Y-75357546D01*
X117443796Y-75242331D01*
X117494091Y-75107483D01*
X117500500Y-75047873D01*
X117500499Y-72952128D01*
X117494091Y-72892517D01*
X117480278Y-72855483D01*
X117443797Y-72757671D01*
X117443793Y-72757664D01*
X117357547Y-72642455D01*
X117357544Y-72642452D01*
X117242335Y-72556206D01*
X117242328Y-72556202D01*
X117107482Y-72505908D01*
X117107483Y-72505908D01*
X117047883Y-72499501D01*
X117047881Y-72499500D01*
X117047873Y-72499500D01*
X117047865Y-72499500D01*
X115612230Y-72499500D01*
X115582789Y-72490855D01*
X115552803Y-72484332D01*
X115547787Y-72480577D01*
X115545191Y-72479815D01*
X115524549Y-72463181D01*
X115386819Y-72325451D01*
X115353334Y-72264128D01*
X115350500Y-72237770D01*
X115350500Y-69724500D01*
X115370185Y-69657461D01*
X115422989Y-69611706D01*
X115474500Y-69600500D01*
X115520005Y-69600500D01*
X115520010Y-69600500D01*
X115622798Y-69589999D01*
X115789335Y-69534814D01*
X115938656Y-69442712D01*
X116062712Y-69318656D01*
X116154814Y-69169335D01*
X116209999Y-69002798D01*
X116220500Y-68900010D01*
X116220500Y-67099990D01*
X116209999Y-66997202D01*
X116154814Y-66830665D01*
X116062712Y-66681344D01*
X115938656Y-66557288D01*
X115789335Y-66465186D01*
X115622798Y-66410001D01*
X115622796Y-66410000D01*
X115520017Y-66399500D01*
X115520010Y-66399500D01*
X113719990Y-66399500D01*
X113719982Y-66399500D01*
X113617203Y-66410000D01*
X113617202Y-66410001D01*
X113534669Y-66437349D01*
X113450667Y-66465185D01*
X113450662Y-66465187D01*
X113301342Y-66557289D01*
X113177289Y-66681342D01*
X113085187Y-66830662D01*
X113085185Y-66830667D01*
X113062211Y-66900000D01*
X113030001Y-66997202D01*
X113030001Y-66997203D01*
X113030000Y-66997203D01*
X113019500Y-67099982D01*
X109697260Y-67099982D01*
X117568040Y-59229201D01*
X117629359Y-59195719D01*
X117699051Y-59200703D01*
X117754984Y-59242575D01*
X117779401Y-59308039D01*
X117778190Y-59336283D01*
X117750000Y-59514270D01*
X117750000Y-59750375D01*
X117786934Y-59983570D01*
X117859897Y-60208125D01*
X117967087Y-60418497D01*
X118027338Y-60501427D01*
X118027340Y-60501428D01*
X118767037Y-59761731D01*
X118784075Y-59825316D01*
X118849901Y-59939330D01*
X118942993Y-60032422D01*
X119057007Y-60098248D01*
X119120590Y-60115285D01*
X118380893Y-60854981D01*
X118463828Y-60915237D01*
X118674197Y-61022425D01*
X118898752Y-61095388D01*
X118898751Y-61095388D01*
X119131948Y-61132323D01*
X119368052Y-61132323D01*
X119601247Y-61095388D01*
X119825802Y-61022425D01*
X120036163Y-60915241D01*
X120036169Y-60915237D01*
X120119104Y-60854981D01*
X120119105Y-60854981D01*
X119379408Y-60115285D01*
X119442993Y-60098248D01*
X119557007Y-60032422D01*
X119650099Y-59939330D01*
X119715925Y-59825316D01*
X119732962Y-59761731D01*
X120472658Y-60501428D01*
X120472658Y-60501427D01*
X120532914Y-60418492D01*
X120532918Y-60418486D01*
X120640102Y-60208125D01*
X120713065Y-59983570D01*
X120750000Y-59750375D01*
X120750000Y-59514270D01*
X120713065Y-59281075D01*
X120640102Y-59056520D01*
X120532914Y-58846151D01*
X120472658Y-58763217D01*
X120472658Y-58763216D01*
X119732962Y-59502913D01*
X119715925Y-59439330D01*
X119650099Y-59325316D01*
X119557007Y-59232224D01*
X119442993Y-59166398D01*
X119379408Y-59149360D01*
X120119105Y-58409663D01*
X120119104Y-58409661D01*
X120036174Y-58349410D01*
X119825802Y-58242220D01*
X119601247Y-58169257D01*
X119601248Y-58169257D01*
X119368052Y-58132323D01*
X119131948Y-58132323D01*
X118953961Y-58160513D01*
X118884667Y-58151558D01*
X118831215Y-58106562D01*
X118810576Y-58039810D01*
X118829301Y-57972497D01*
X118846878Y-57950363D01*
X119128101Y-57669140D01*
X119189424Y-57635656D01*
X119215782Y-57632822D01*
X120050002Y-57632822D01*
X120050008Y-57632822D01*
X120152797Y-57622322D01*
X120319334Y-57567137D01*
X120468656Y-57475035D01*
X120592712Y-57350979D01*
X120680036Y-57209402D01*
X120731984Y-57162679D01*
X120785575Y-57150500D01*
X127525500Y-57150500D01*
X127592539Y-57170185D01*
X127638294Y-57222989D01*
X127649500Y-57274500D01*
X127649500Y-60450118D01*
X127649500Y-60647198D01*
X127658679Y-60693345D01*
X127658831Y-60694106D01*
X127661214Y-60718299D01*
X127661214Y-61231699D01*
X127658831Y-61255891D01*
X127649500Y-61302798D01*
X127649500Y-64647200D01*
X127658831Y-64694107D01*
X127661214Y-64718300D01*
X127661214Y-65231699D01*
X127658831Y-65255891D01*
X127649500Y-65302798D01*
X127649500Y-67748544D01*
X127687947Y-67941833D01*
X127687949Y-67941836D01*
X127710038Y-67995165D01*
X127763368Y-68123914D01*
X127783978Y-68154760D01*
X127788042Y-68163544D01*
X127791815Y-68188915D01*
X127799480Y-68213393D01*
X127799500Y-68215604D01*
X127799500Y-68400000D01*
X127799501Y-68400019D01*
X127810000Y-68502796D01*
X127810001Y-68502799D01*
X127859120Y-68651029D01*
X127865186Y-68669334D01*
X127957096Y-68818345D01*
X127957289Y-68818657D01*
X128050951Y-68912319D01*
X128084436Y-68973642D01*
X128079452Y-69043334D01*
X128050951Y-69087681D01*
X127957289Y-69181342D01*
X127865187Y-69330663D01*
X127865185Y-69330668D01*
X127845665Y-69389576D01*
X127810001Y-69497203D01*
X127810001Y-69497204D01*
X127810000Y-69497204D01*
X127799500Y-69599983D01*
X127799500Y-70400001D01*
X127799501Y-70400019D01*
X127810000Y-70502796D01*
X127810001Y-70502799D01*
X127865185Y-70669331D01*
X127865187Y-70669336D01*
X127872177Y-70680668D01*
X127957288Y-70818656D01*
X128081344Y-70942712D01*
X128230666Y-71034814D01*
X128397203Y-71089999D01*
X128499991Y-71100500D01*
X129500008Y-71100499D01*
X129500016Y-71100498D01*
X129500019Y-71100498D01*
X129556302Y-71094748D01*
X129602797Y-71089999D01*
X129769334Y-71034814D01*
X129918656Y-70942712D01*
X130042712Y-70818656D01*
X130048420Y-70809402D01*
X130056006Y-70802578D01*
X130060245Y-70793297D01*
X130081543Y-70779609D01*
X130100368Y-70762678D01*
X130112004Y-70760033D01*
X130119023Y-70755523D01*
X130153958Y-70750500D01*
X130346042Y-70750500D01*
X130413081Y-70770185D01*
X130451580Y-70809402D01*
X130457288Y-70818656D01*
X130581344Y-70942712D01*
X130730666Y-71034814D01*
X130897203Y-71089999D01*
X130999991Y-71100500D01*
X132000008Y-71100499D01*
X132000016Y-71100498D01*
X132000019Y-71100498D01*
X132056302Y-71094748D01*
X132102797Y-71089999D01*
X132269334Y-71034814D01*
X132418656Y-70942712D01*
X132542712Y-70818656D01*
X132634814Y-70669334D01*
X132689999Y-70502797D01*
X132700500Y-70400009D01*
X132700499Y-69599992D01*
X132699755Y-69592712D01*
X132689999Y-69497203D01*
X132689998Y-69497200D01*
X132661978Y-69412641D01*
X132634814Y-69330666D01*
X132542712Y-69181344D01*
X132448695Y-69087327D01*
X132415210Y-69026004D01*
X132420194Y-68956312D01*
X132448695Y-68911964D01*
X132542317Y-68818342D01*
X132634356Y-68669124D01*
X132634358Y-68669119D01*
X132689505Y-68502697D01*
X132689506Y-68502690D01*
X132699999Y-68399986D01*
X132700000Y-68399973D01*
X132700000Y-68250000D01*
X131624000Y-68250000D01*
X131556961Y-68230315D01*
X131511206Y-68177511D01*
X131500000Y-68126000D01*
X131500000Y-68000000D01*
X131374000Y-68000000D01*
X131306961Y-67980315D01*
X131261206Y-67927511D01*
X131250000Y-67876000D01*
X131250000Y-67750000D01*
X131750000Y-67750000D01*
X132699999Y-67750000D01*
X132699999Y-67600028D01*
X132699998Y-67600013D01*
X132689505Y-67497302D01*
X132634358Y-67330880D01*
X132634356Y-67330875D01*
X132542315Y-67181654D01*
X132418345Y-67057684D01*
X132269124Y-66965643D01*
X132269119Y-66965641D01*
X132102697Y-66910494D01*
X132102690Y-66910493D01*
X131999986Y-66900000D01*
X131750000Y-66900000D01*
X131750000Y-67750000D01*
X131250000Y-67750000D01*
X131250000Y-66900000D01*
X131000029Y-66900000D01*
X131000012Y-66900001D01*
X130897302Y-66910494D01*
X130730880Y-66965641D01*
X130730875Y-66965643D01*
X130581654Y-67057684D01*
X130457684Y-67181654D01*
X130365639Y-67330882D01*
X130362653Y-67337287D01*
X130316479Y-67389726D01*
X130249285Y-67408876D01*
X130182405Y-67388659D01*
X130138344Y-67336985D01*
X130137864Y-67337209D01*
X130134815Y-67330670D01*
X130134814Y-67330666D01*
X130042712Y-67181344D01*
X129918656Y-67057288D01*
X129821241Y-66997202D01*
X129769336Y-66965187D01*
X129769335Y-66965186D01*
X129769334Y-66965186D01*
X129769328Y-66965184D01*
X129735494Y-66953972D01*
X129678050Y-66914199D01*
X129651228Y-66849683D01*
X129650500Y-66836267D01*
X129650500Y-65559270D01*
X129652883Y-65535077D01*
X129653404Y-65532461D01*
X129657781Y-65510450D01*
X129662214Y-65488170D01*
X129662214Y-64461828D01*
X129652883Y-64414921D01*
X129650500Y-64390729D01*
X129650500Y-61879500D01*
X129670185Y-61812461D01*
X129722989Y-61766706D01*
X129774500Y-61755500D01*
X143375500Y-61755500D01*
X143442539Y-61775185D01*
X143488294Y-61827989D01*
X143499500Y-61879500D01*
X143499500Y-63028201D01*
X143502401Y-63065067D01*
X143502402Y-63065073D01*
X143548254Y-63222893D01*
X143548255Y-63222896D01*
X143631917Y-63364362D01*
X143631923Y-63364370D01*
X143748129Y-63480576D01*
X143748140Y-63480585D01*
X143748455Y-63480771D01*
X143748650Y-63480980D01*
X143754298Y-63485361D01*
X143753591Y-63486272D01*
X143796136Y-63531843D01*
X143808637Y-63600585D01*
X143781988Y-63665173D01*
X143754078Y-63689356D01*
X143754298Y-63689639D01*
X143749092Y-63693676D01*
X143748455Y-63694229D01*
X143748140Y-63694414D01*
X143748129Y-63694423D01*
X143631923Y-63810629D01*
X143631914Y-63810641D01*
X143571014Y-63913620D01*
X143519946Y-63961304D01*
X143464282Y-63974500D01*
X138124499Y-63974500D01*
X138057460Y-63954815D01*
X138011705Y-63902011D01*
X138000499Y-63850500D01*
X138000499Y-63052129D01*
X138000498Y-63052123D01*
X138000497Y-63052116D01*
X137994091Y-62992517D01*
X137943796Y-62857669D01*
X137943795Y-62857668D01*
X137943793Y-62857664D01*
X137857547Y-62742455D01*
X137857544Y-62742452D01*
X137742335Y-62656206D01*
X137742328Y-62656202D01*
X137607482Y-62605908D01*
X137607483Y-62605908D01*
X137547883Y-62599501D01*
X137547881Y-62599500D01*
X137547873Y-62599500D01*
X137547864Y-62599500D01*
X133852129Y-62599500D01*
X133852123Y-62599501D01*
X133792516Y-62605908D01*
X133657671Y-62656202D01*
X133657664Y-62656206D01*
X133542455Y-62742452D01*
X133542452Y-62742455D01*
X133456206Y-62857664D01*
X133456202Y-62857671D01*
X133405908Y-62992517D01*
X133402074Y-63028186D01*
X133399501Y-63052123D01*
X133399500Y-63052135D01*
X133399500Y-65847870D01*
X133399501Y-65847876D01*
X133405908Y-65907483D01*
X133456202Y-66042328D01*
X133456206Y-66042335D01*
X133542452Y-66157544D01*
X133542455Y-66157547D01*
X133657664Y-66243793D01*
X133657671Y-66243797D01*
X133792517Y-66294091D01*
X133792516Y-66294091D01*
X133799444Y-66294835D01*
X133852127Y-66300500D01*
X134438771Y-66300499D01*
X134505809Y-66320183D01*
X134551564Y-66372987D01*
X134561508Y-66442146D01*
X134532483Y-66505702D01*
X134526453Y-66512178D01*
X134507289Y-66531342D01*
X134415187Y-66680663D01*
X134415185Y-66680668D01*
X134388897Y-66760000D01*
X134360001Y-66847203D01*
X134360001Y-66847204D01*
X134360000Y-66847204D01*
X134349500Y-66949983D01*
X134349500Y-69050001D01*
X134349501Y-69050018D01*
X134360000Y-69152796D01*
X134360001Y-69152799D01*
X134415185Y-69319331D01*
X134415187Y-69319336D01*
X134422177Y-69330668D01*
X134507288Y-69468656D01*
X134631344Y-69592712D01*
X134780666Y-69684814D01*
X134947203Y-69739999D01*
X135049991Y-69750500D01*
X136450008Y-69750499D01*
X136552797Y-69739999D01*
X136719334Y-69684814D01*
X136868656Y-69592712D01*
X136992712Y-69468656D01*
X137084814Y-69319334D01*
X137139999Y-69152797D01*
X137150500Y-69050009D01*
X137150500Y-68449986D01*
X141800001Y-68449986D01*
X141810494Y-68552697D01*
X141865641Y-68719119D01*
X141865643Y-68719124D01*
X141957684Y-68868345D01*
X142081654Y-68992315D01*
X142230875Y-69084356D01*
X142230880Y-69084358D01*
X142397302Y-69139505D01*
X142397309Y-69139506D01*
X142500019Y-69149999D01*
X142649999Y-69149999D01*
X142650000Y-69149998D01*
X142650000Y-68200000D01*
X141800001Y-68200000D01*
X141800001Y-68449986D01*
X137150500Y-68449986D01*
X137150499Y-67450013D01*
X141800000Y-67450013D01*
X141800000Y-67700000D01*
X142650000Y-67700000D01*
X142650000Y-66750000D01*
X142500027Y-66750000D01*
X142500012Y-66750001D01*
X142397302Y-66760494D01*
X142230880Y-66815641D01*
X142230875Y-66815643D01*
X142081654Y-66907684D01*
X141957684Y-67031654D01*
X141865643Y-67180875D01*
X141865641Y-67180880D01*
X141810494Y-67347302D01*
X141810493Y-67347309D01*
X141800000Y-67450013D01*
X137150499Y-67450013D01*
X137150499Y-66949992D01*
X137139999Y-66847203D01*
X137084814Y-66680666D01*
X136992712Y-66531344D01*
X136973548Y-66512180D01*
X136940063Y-66450857D01*
X136945047Y-66381165D01*
X136986919Y-66325232D01*
X137052383Y-66300815D01*
X137061229Y-66300499D01*
X137547871Y-66300499D01*
X137547872Y-66300499D01*
X137607483Y-66294091D01*
X137742331Y-66243796D01*
X137857546Y-66157546D01*
X137943796Y-66042331D01*
X137994091Y-65907483D01*
X138000500Y-65847873D01*
X138000500Y-65599500D01*
X138020185Y-65532461D01*
X138072989Y-65486706D01*
X138124500Y-65475500D01*
X143464282Y-65475500D01*
X143531321Y-65495185D01*
X143571014Y-65536380D01*
X143631914Y-65639358D01*
X143631923Y-65639370D01*
X143748129Y-65755576D01*
X143748133Y-65755579D01*
X143748135Y-65755581D01*
X143889602Y-65839244D01*
X143931224Y-65851336D01*
X144047426Y-65885097D01*
X144047429Y-65885097D01*
X144047431Y-65885098D01*
X144084306Y-65888000D01*
X144084314Y-65888000D01*
X144515686Y-65888000D01*
X144515694Y-65888000D01*
X144552569Y-65885098D01*
X144552571Y-65885097D01*
X144552573Y-65885097D01*
X144594191Y-65873005D01*
X144710398Y-65839244D01*
X144711181Y-65838781D01*
X144712369Y-65838079D01*
X144714112Y-65837636D01*
X144717557Y-65836146D01*
X144717797Y-65836701D01*
X144780093Y-65820895D01*
X144832397Y-65836253D01*
X144832644Y-65835684D01*
X144837255Y-65837679D01*
X144838612Y-65838078D01*
X144839801Y-65838781D01*
X144839806Y-65838783D01*
X144997505Y-65884599D01*
X144997511Y-65884600D01*
X144999998Y-65884795D01*
X145000000Y-65884795D01*
X145000000Y-65619314D01*
X145004505Y-65603971D01*
X145004022Y-65587990D01*
X145017266Y-65556196D01*
X145051744Y-65497898D01*
X145097598Y-65340069D01*
X145100500Y-65303194D01*
X145100500Y-64849000D01*
X145103050Y-64840314D01*
X145101762Y-64831353D01*
X145112740Y-64807312D01*
X145120185Y-64781961D01*
X145127025Y-64776033D01*
X145130787Y-64767797D01*
X145153021Y-64753507D01*
X145172989Y-64736206D01*
X145183503Y-64733918D01*
X145189565Y-64730023D01*
X145224500Y-64725000D01*
X145275500Y-64725000D01*
X145342539Y-64744685D01*
X145388294Y-64797489D01*
X145399500Y-64849000D01*
X145399500Y-65303201D01*
X145402401Y-65340067D01*
X145402402Y-65340073D01*
X145444576Y-65485233D01*
X145449500Y-65519828D01*
X145449500Y-66627458D01*
X145429815Y-66694497D01*
X145377011Y-66740252D01*
X145312902Y-66750816D01*
X145300028Y-66749501D01*
X145300012Y-66749500D01*
X145300009Y-66749500D01*
X145300003Y-66749500D01*
X144499998Y-66749500D01*
X144499980Y-66749501D01*
X144397203Y-66760000D01*
X144397200Y-66760001D01*
X144230668Y-66815185D01*
X144230663Y-66815187D01*
X144081345Y-66907287D01*
X143987327Y-67001305D01*
X143926003Y-67034789D01*
X143856312Y-67029805D01*
X143811965Y-67001304D01*
X143718345Y-66907684D01*
X143569124Y-66815643D01*
X143569119Y-66815641D01*
X143402697Y-66760494D01*
X143402690Y-66760493D01*
X143299986Y-66750000D01*
X143150000Y-66750000D01*
X143150000Y-69149999D01*
X143299972Y-69149999D01*
X143299986Y-69149998D01*
X143402697Y-69139505D01*
X143569119Y-69084358D01*
X143569124Y-69084356D01*
X143718342Y-68992317D01*
X143811964Y-68898695D01*
X143873287Y-68865210D01*
X143942979Y-68870194D01*
X143987327Y-68898695D01*
X144081344Y-68992712D01*
X144230666Y-69084814D01*
X144397203Y-69139999D01*
X144499991Y-69150500D01*
X145300008Y-69150499D01*
X145300016Y-69150498D01*
X145300019Y-69150498D01*
X145356302Y-69144748D01*
X145402797Y-69139999D01*
X145569334Y-69084814D01*
X145718656Y-68992712D01*
X145842712Y-68868656D01*
X145910099Y-68759402D01*
X145962047Y-68712679D01*
X146015638Y-68700500D01*
X146338770Y-68700500D01*
X146405809Y-68720185D01*
X146451564Y-68772989D01*
X146461508Y-68842147D01*
X146432483Y-68905703D01*
X146426451Y-68912181D01*
X146357289Y-68981342D01*
X146265187Y-69130663D01*
X146265185Y-69130668D01*
X146248393Y-69181344D01*
X146210001Y-69297203D01*
X146210001Y-69297204D01*
X146210000Y-69297204D01*
X146199500Y-69399983D01*
X146199500Y-70200001D01*
X146199501Y-70200019D01*
X146210000Y-70302796D01*
X146210001Y-70302799D01*
X146247174Y-70414977D01*
X146265186Y-70469334D01*
X146357288Y-70618656D01*
X146481344Y-70742712D01*
X146590597Y-70810099D01*
X146637321Y-70862047D01*
X146649500Y-70915638D01*
X146649500Y-71195064D01*
X146629815Y-71262103D01*
X146628603Y-71263954D01*
X146590608Y-71320817D01*
X146590602Y-71320828D01*
X146530264Y-71466498D01*
X146530261Y-71466510D01*
X146499500Y-71621153D01*
X146499500Y-71778846D01*
X146530261Y-71933489D01*
X146530264Y-71933501D01*
X146590602Y-72079172D01*
X146590609Y-72079185D01*
X146678210Y-72210288D01*
X146678213Y-72210292D01*
X146789707Y-72321786D01*
X146789711Y-72321789D01*
X146920814Y-72409390D01*
X146920827Y-72409397D01*
X147050675Y-72463181D01*
X147066503Y-72469737D01*
X147216131Y-72499500D01*
X147221153Y-72500499D01*
X147221156Y-72500500D01*
X147221158Y-72500500D01*
X147378844Y-72500500D01*
X147378845Y-72500499D01*
X147533497Y-72469737D01*
X147679179Y-72409394D01*
X147810289Y-72321789D01*
X147921789Y-72210289D01*
X148009394Y-72079179D01*
X148048682Y-71984327D01*
X148060137Y-71962897D01*
X148065084Y-71955495D01*
X148121658Y-71818913D01*
X148150500Y-71673918D01*
X148150500Y-71526083D01*
X148150500Y-70915638D01*
X148170185Y-70848599D01*
X148209401Y-70810100D01*
X148318656Y-70742712D01*
X148442712Y-70618656D01*
X148534814Y-70469334D01*
X148589999Y-70302797D01*
X148600500Y-70200009D01*
X148600499Y-69399992D01*
X148597579Y-69371411D01*
X148589999Y-69297203D01*
X148589998Y-69297200D01*
X148572786Y-69245259D01*
X148534814Y-69130666D01*
X148442712Y-68981344D01*
X148349049Y-68887681D01*
X148315564Y-68826358D01*
X148320548Y-68756666D01*
X148349049Y-68712319D01*
X148392253Y-68669115D01*
X148442712Y-68618656D01*
X148534814Y-68469334D01*
X148589999Y-68302797D01*
X148600500Y-68200009D01*
X148600499Y-67399992D01*
X148599450Y-67389726D01*
X148589999Y-67297203D01*
X148589998Y-67297200D01*
X148534814Y-67130666D01*
X148442712Y-66981344D01*
X148318656Y-66857288D01*
X148225888Y-66800069D01*
X148169336Y-66765187D01*
X148169331Y-66765185D01*
X148167862Y-66764698D01*
X148002797Y-66710001D01*
X148002795Y-66710000D01*
X147900016Y-66699500D01*
X147900009Y-66699500D01*
X147412230Y-66699500D01*
X147345191Y-66679815D01*
X147324549Y-66663181D01*
X146986819Y-66325451D01*
X146953334Y-66264128D01*
X146950500Y-66237770D01*
X146950500Y-65519828D01*
X146955424Y-65485233D01*
X146997597Y-65340073D01*
X146997598Y-65340067D01*
X147000499Y-65303201D01*
X147000500Y-65303194D01*
X147000500Y-64146806D01*
X146997598Y-64109931D01*
X146951744Y-63952102D01*
X146868081Y-63810635D01*
X146868079Y-63810633D01*
X146868076Y-63810629D01*
X146751870Y-63694423D01*
X146751867Y-63694421D01*
X146751865Y-63694419D01*
X146751549Y-63694232D01*
X146751353Y-63694022D01*
X146745702Y-63689639D01*
X146746409Y-63688727D01*
X146703866Y-63643164D01*
X146691362Y-63574423D01*
X146718006Y-63509833D01*
X146745921Y-63485644D01*
X146745702Y-63485361D01*
X146750911Y-63481320D01*
X146751550Y-63480767D01*
X146751865Y-63480581D01*
X146868081Y-63364365D01*
X146951744Y-63222898D01*
X146997598Y-63065069D01*
X147000500Y-63028194D01*
X147000500Y-62762230D01*
X147020185Y-62695191D01*
X147036814Y-62674553D01*
X147132952Y-62578416D01*
X147185347Y-62500000D01*
X147215084Y-62455495D01*
X147242160Y-62390128D01*
X147271659Y-62318912D01*
X147300500Y-62173917D01*
X147300500Y-62026082D01*
X147300500Y-60921248D01*
X147320185Y-60854209D01*
X147336151Y-60834239D01*
X147346657Y-60823570D01*
X147356156Y-60817712D01*
X147480212Y-60693656D01*
X147489614Y-60678411D01*
X147499444Y-60668431D01*
X147518222Y-60657990D01*
X147534194Y-60643623D01*
X147548150Y-60641350D01*
X147560510Y-60634479D01*
X147581950Y-60635847D01*
X147603156Y-60632395D01*
X147616125Y-60638029D01*
X147630237Y-60638930D01*
X147647534Y-60651673D01*
X147667240Y-60660234D01*
X147681519Y-60676712D01*
X147686489Y-60680373D01*
X147687903Y-60684078D01*
X147693329Y-60690339D01*
X147695181Y-60693341D01*
X147695183Y-60693344D01*
X147819154Y-60817315D01*
X147968375Y-60909356D01*
X147968380Y-60909358D01*
X148134802Y-60964505D01*
X148134809Y-60964506D01*
X148237519Y-60974999D01*
X148374999Y-60974999D01*
X148875000Y-60974999D01*
X149012472Y-60974999D01*
X149012486Y-60974998D01*
X149115197Y-60964505D01*
X149281619Y-60909358D01*
X149281624Y-60909356D01*
X149430845Y-60817315D01*
X149554815Y-60693345D01*
X149646856Y-60544124D01*
X149646858Y-60544119D01*
X149702005Y-60377697D01*
X149702006Y-60377690D01*
X149712499Y-60274986D01*
X149712500Y-60274973D01*
X149712500Y-60000000D01*
X148875000Y-60000000D01*
X148875000Y-60974999D01*
X148374999Y-60974999D01*
X148375000Y-60974998D01*
X148375000Y-59500000D01*
X148875000Y-59500000D01*
X149712499Y-59500000D01*
X149712499Y-59225028D01*
X149712498Y-59225013D01*
X149702005Y-59122302D01*
X149646858Y-58955880D01*
X149646856Y-58955875D01*
X149554815Y-58806654D01*
X149430845Y-58682684D01*
X149281624Y-58590643D01*
X149281619Y-58590641D01*
X149115197Y-58535494D01*
X149115190Y-58535493D01*
X149012486Y-58525000D01*
X148875000Y-58525000D01*
X148875000Y-59500000D01*
X148375000Y-59500000D01*
X148375000Y-58525000D01*
X148237527Y-58525000D01*
X148237512Y-58525001D01*
X148134802Y-58535494D01*
X147968380Y-58590641D01*
X147968375Y-58590643D01*
X147819154Y-58682684D01*
X147695183Y-58806655D01*
X147695179Y-58806660D01*
X147693326Y-58809665D01*
X147691518Y-58811290D01*
X147690702Y-58812323D01*
X147690525Y-58812183D01*
X147641374Y-58856385D01*
X147572411Y-58867601D01*
X147508331Y-58839752D01*
X147499445Y-58831568D01*
X147489611Y-58821583D01*
X147480212Y-58806344D01*
X147356156Y-58682288D01*
X147346660Y-58676430D01*
X147336152Y-58665761D01*
X147326431Y-58647631D01*
X147312675Y-58632335D01*
X147308589Y-58614355D01*
X147303136Y-58604184D01*
X147303948Y-58593928D01*
X147300500Y-58578752D01*
X147300500Y-57274500D01*
X147320185Y-57207461D01*
X147372989Y-57161706D01*
X147424500Y-57150500D01*
X151934218Y-57150500D01*
X152001257Y-57170185D01*
X152021899Y-57186819D01*
X157463181Y-62628101D01*
X157496666Y-62689424D01*
X157499500Y-62715782D01*
X157499500Y-80965858D01*
X157479815Y-81032897D01*
X157427011Y-81078652D01*
X157418847Y-81082034D01*
X157407669Y-81086204D01*
X157407664Y-81086206D01*
X157292455Y-81172452D01*
X157292452Y-81172455D01*
X157206206Y-81287664D01*
X157206202Y-81287671D01*
X157155908Y-81422517D01*
X157149501Y-81482116D01*
X157149501Y-81482123D01*
X157149500Y-81482135D01*
X157149500Y-83277870D01*
X157149501Y-83277876D01*
X157155908Y-83337483D01*
X157206202Y-83472328D01*
X157206206Y-83472335D01*
X157292452Y-83587544D01*
X157292455Y-83587547D01*
X157407664Y-83673793D01*
X157407671Y-83673797D01*
X157539082Y-83722810D01*
X157595016Y-83764681D01*
X157619433Y-83830145D01*
X157604582Y-83898418D01*
X157583431Y-83926673D01*
X157469892Y-84040212D01*
X157413097Y-84118385D01*
X157357767Y-84161051D01*
X157312779Y-84169500D01*
X142282230Y-84169500D01*
X142215191Y-84149815D01*
X142194549Y-84133181D01*
X137936818Y-79875450D01*
X137903333Y-79814127D01*
X137900499Y-79787769D01*
X137900499Y-79149998D01*
X137900498Y-79149981D01*
X137889999Y-79047203D01*
X137889998Y-79047200D01*
X137854874Y-78941204D01*
X137834814Y-78880666D01*
X137742712Y-78731344D01*
X137618656Y-78607288D01*
X137469334Y-78515186D01*
X137302797Y-78460001D01*
X137302795Y-78460000D01*
X137200016Y-78449500D01*
X137200009Y-78449500D01*
X137194658Y-78449500D01*
X137147206Y-78440061D01*
X137118917Y-78428343D01*
X137118907Y-78428340D01*
X136973920Y-78399500D01*
X136973918Y-78399500D01*
X136826082Y-78399500D01*
X136826080Y-78399500D01*
X136681088Y-78428341D01*
X136681082Y-78428343D01*
X136652789Y-78440062D01*
X136605340Y-78449500D01*
X136399999Y-78449500D01*
X136399980Y-78449501D01*
X136297203Y-78460000D01*
X136297200Y-78460001D01*
X136130668Y-78515185D01*
X136130663Y-78515187D01*
X135981342Y-78607289D01*
X135887681Y-78700951D01*
X135826358Y-78734436D01*
X135756666Y-78729452D01*
X135712319Y-78700951D01*
X135618657Y-78607289D01*
X135618656Y-78607288D01*
X135469334Y-78515186D01*
X135302797Y-78460001D01*
X135302795Y-78460000D01*
X135200010Y-78449500D01*
X134399998Y-78449500D01*
X134399980Y-78449501D01*
X134297203Y-78460000D01*
X134297200Y-78460001D01*
X134130668Y-78515185D01*
X134130663Y-78515187D01*
X133981342Y-78607289D01*
X133857289Y-78731342D01*
X133765187Y-78880663D01*
X133765185Y-78880668D01*
X133763915Y-78884501D01*
X133710001Y-79047203D01*
X133710001Y-79047204D01*
X133710000Y-79047204D01*
X133699500Y-79149983D01*
X133699500Y-80150001D01*
X133699501Y-80150019D01*
X133710000Y-80252796D01*
X133710002Y-80252802D01*
X133714540Y-80266497D01*
X133716942Y-80336325D01*
X133681210Y-80396367D01*
X133618689Y-80427559D01*
X133596834Y-80429500D01*
X132274500Y-80429500D01*
X132207461Y-80409815D01*
X132161706Y-80357011D01*
X132150500Y-80305500D01*
X132150499Y-79337129D01*
X132150498Y-79337123D01*
X132149568Y-79328473D01*
X132144091Y-79277517D01*
X132096527Y-79149992D01*
X132093797Y-79142671D01*
X132093793Y-79142664D01*
X132007547Y-79027455D01*
X132007544Y-79027452D01*
X131892335Y-78941206D01*
X131892328Y-78941202D01*
X131757482Y-78890908D01*
X131757483Y-78890908D01*
X131697883Y-78884501D01*
X131697881Y-78884500D01*
X131697873Y-78884500D01*
X131697864Y-78884500D01*
X130102129Y-78884500D01*
X130102123Y-78884501D01*
X130042516Y-78890908D01*
X129907671Y-78941202D01*
X129907664Y-78941206D01*
X129792455Y-79027452D01*
X129792453Y-79027454D01*
X129791033Y-79029352D01*
X129789136Y-79030771D01*
X129786183Y-79033725D01*
X129785758Y-79033300D01*
X129735098Y-79071222D01*
X129665406Y-79076204D01*
X129604087Y-79042720D01*
X126635288Y-76073920D01*
X127549499Y-76073920D01*
X127578340Y-76218907D01*
X127578343Y-76218917D01*
X127634914Y-76355492D01*
X127667812Y-76404727D01*
X127667813Y-76404730D01*
X127717046Y-76478414D01*
X127717047Y-76478415D01*
X127717048Y-76478416D01*
X127821584Y-76582952D01*
X127885265Y-76625501D01*
X127944505Y-76665084D01*
X127944507Y-76665085D01*
X127944511Y-76665087D01*
X128081082Y-76721656D01*
X128081087Y-76721658D01*
X128081091Y-76721658D01*
X128081092Y-76721659D01*
X128226079Y-76750500D01*
X128226082Y-76750500D01*
X128373920Y-76750500D01*
X128471462Y-76731096D01*
X128518913Y-76721658D01*
X128655495Y-76665084D01*
X128714735Y-76625501D01*
X128778416Y-76582952D01*
X129724548Y-75636818D01*
X129785871Y-75603334D01*
X129812229Y-75600500D01*
X134276082Y-75600500D01*
X135726082Y-75600500D01*
X135726083Y-75600500D01*
X135873918Y-75600500D01*
X135926082Y-75600500D01*
X137543942Y-75600500D01*
X137610981Y-75620185D01*
X137649479Y-75659401D01*
X137732288Y-75793656D01*
X137856344Y-75917712D01*
X138005666Y-76009814D01*
X138172203Y-76064999D01*
X138274991Y-76075500D01*
X139050008Y-76075499D01*
X139050016Y-76075498D01*
X139050019Y-76075498D01*
X139106302Y-76069748D01*
X139152797Y-76064999D01*
X139319334Y-76009814D01*
X139468656Y-75917712D01*
X139592712Y-75793656D01*
X139594752Y-75790347D01*
X139596745Y-75788555D01*
X139597193Y-75787989D01*
X139597289Y-75788065D01*
X139646694Y-75743623D01*
X139715656Y-75732395D01*
X139779740Y-75760234D01*
X139805829Y-75790339D01*
X139807681Y-75793341D01*
X139807683Y-75793344D01*
X139931654Y-75917315D01*
X140080875Y-76009356D01*
X140080880Y-76009358D01*
X140247302Y-76064505D01*
X140247309Y-76064506D01*
X140350019Y-76074999D01*
X140487499Y-76074999D01*
X140987500Y-76074999D01*
X141124972Y-76074999D01*
X141124986Y-76074998D01*
X141227697Y-76064505D01*
X141394119Y-76009358D01*
X141394124Y-76009356D01*
X141543345Y-75917315D01*
X141667315Y-75793345D01*
X141759356Y-75644124D01*
X141759358Y-75644119D01*
X141814505Y-75477697D01*
X141814506Y-75477690D01*
X141824999Y-75374986D01*
X141825000Y-75374973D01*
X141825000Y-75100000D01*
X140987500Y-75100000D01*
X140987500Y-76074999D01*
X140487499Y-76074999D01*
X140487500Y-76074998D01*
X140487500Y-74600000D01*
X140987500Y-74600000D01*
X141824999Y-74600000D01*
X141824999Y-74325028D01*
X141824998Y-74325013D01*
X141814505Y-74222302D01*
X141759358Y-74055880D01*
X141759356Y-74055875D01*
X141667315Y-73906654D01*
X141543345Y-73782684D01*
X141394124Y-73690643D01*
X141394119Y-73690641D01*
X141227697Y-73635494D01*
X141227690Y-73635493D01*
X141124986Y-73625000D01*
X140987500Y-73625000D01*
X140987500Y-74600000D01*
X140487500Y-74600000D01*
X140487500Y-73625000D01*
X140350027Y-73625000D01*
X140350012Y-73625001D01*
X140247302Y-73635494D01*
X140080880Y-73690641D01*
X140080875Y-73690643D01*
X139994597Y-73743861D01*
X139927204Y-73762301D01*
X139860541Y-73741378D01*
X139815771Y-73687736D01*
X139805500Y-73638322D01*
X139805500Y-71024010D01*
X139805500Y-71024000D01*
X139793947Y-70916544D01*
X139782741Y-70865033D01*
X139772683Y-70834814D01*
X139748616Y-70762502D01*
X139748613Y-70762496D01*
X139740904Y-70750500D01*
X139670825Y-70641457D01*
X139651068Y-70618656D01*
X139625076Y-70588659D01*
X139625072Y-70588656D01*
X139625070Y-70588653D01*
X139516336Y-70494433D01*
X139516333Y-70494431D01*
X139516331Y-70494430D01*
X139385465Y-70434664D01*
X139385460Y-70434662D01*
X139385459Y-70434662D01*
X139318420Y-70414977D01*
X139318422Y-70414977D01*
X139318417Y-70414976D01*
X139264944Y-70407288D01*
X139176000Y-70394500D01*
X139175998Y-70394500D01*
X136883090Y-70394500D01*
X136817994Y-70376039D01*
X136719340Y-70315189D01*
X136719335Y-70315187D01*
X136719334Y-70315186D01*
X136552797Y-70260001D01*
X136552795Y-70260000D01*
X136450010Y-70249500D01*
X135049998Y-70249500D01*
X135049981Y-70249501D01*
X134947203Y-70260000D01*
X134947200Y-70260001D01*
X134780668Y-70315185D01*
X134780663Y-70315187D01*
X134631342Y-70407289D01*
X134507289Y-70531342D01*
X134415187Y-70680663D01*
X134415185Y-70680668D01*
X134392045Y-70750500D01*
X134360001Y-70847203D01*
X134360001Y-70847204D01*
X134360000Y-70847204D01*
X134349500Y-70949983D01*
X134349500Y-73050001D01*
X134349501Y-73050018D01*
X134360000Y-73152796D01*
X134360001Y-73152799D01*
X134380138Y-73213567D01*
X134415186Y-73319334D01*
X134507288Y-73468656D01*
X134631344Y-73592712D01*
X134780666Y-73684814D01*
X134914505Y-73729164D01*
X134934536Y-73743033D01*
X134956703Y-73753156D01*
X134962751Y-73762568D01*
X134971949Y-73768936D01*
X134981303Y-73791435D01*
X134994477Y-73811934D01*
X134996935Y-73829034D01*
X134998772Y-73833451D01*
X134999500Y-73846869D01*
X134999500Y-73975500D01*
X134979815Y-74042539D01*
X134927011Y-74088294D01*
X134875500Y-74099500D01*
X129376076Y-74099500D01*
X129347242Y-74105234D01*
X129347243Y-74105235D01*
X129231093Y-74128339D01*
X129231083Y-74128342D01*
X129151081Y-74161479D01*
X129151082Y-74161480D01*
X129094506Y-74184915D01*
X129038701Y-74222203D01*
X128971582Y-74267049D01*
X127717048Y-75521583D01*
X127700263Y-75546704D01*
X127683590Y-75571659D01*
X127634914Y-75644507D01*
X127578343Y-75781082D01*
X127578340Y-75781092D01*
X127549500Y-75926079D01*
X127549500Y-75926082D01*
X127549500Y-76073918D01*
X127549500Y-76073920D01*
X127549499Y-76073920D01*
X126635288Y-76073920D01*
X126569039Y-76007671D01*
X125001280Y-74439912D01*
X124967795Y-74378589D01*
X124966488Y-74332836D01*
X124989916Y-74184916D01*
X125000500Y-74118096D01*
X125000500Y-73881902D01*
X124970207Y-73690643D01*
X124966488Y-73667163D01*
X124975442Y-73597871D01*
X125001275Y-73560090D01*
X125382952Y-73178415D01*
X125410205Y-73137627D01*
X125465084Y-73055495D01*
X125497205Y-72977949D01*
X125521659Y-72918912D01*
X125550500Y-72773917D01*
X125550500Y-72626082D01*
X125550500Y-69479680D01*
X125570185Y-69412641D01*
X125615075Y-69372029D01*
X125614697Y-69371411D01*
X125617987Y-69369394D01*
X125618210Y-69369193D01*
X125618845Y-69368870D01*
X125822656Y-69220793D01*
X126000793Y-69042656D01*
X126148870Y-68838845D01*
X126263241Y-68614379D01*
X126341090Y-68374785D01*
X126380500Y-68125962D01*
X126380500Y-67874038D01*
X126341090Y-67625215D01*
X126263241Y-67385621D01*
X126263239Y-67385618D01*
X126263239Y-67385616D01*
X126218188Y-67297200D01*
X126148870Y-67161155D01*
X126126720Y-67130668D01*
X126000798Y-66957350D01*
X126000794Y-66957345D01*
X125822654Y-66779205D01*
X125822649Y-66779201D01*
X125618848Y-66631132D01*
X125618847Y-66631131D01*
X125618845Y-66631130D01*
X125548747Y-66595413D01*
X125394383Y-66516760D01*
X125154785Y-66438910D01*
X124905962Y-66399500D01*
X124654038Y-66399500D01*
X124587738Y-66410001D01*
X124405214Y-66438910D01*
X124165616Y-66516760D01*
X123941151Y-66631132D01*
X123737350Y-66779201D01*
X123737345Y-66779205D01*
X123559205Y-66957345D01*
X123559201Y-66957350D01*
X123411132Y-67161151D01*
X123296760Y-67385616D01*
X123218910Y-67625214D01*
X123218910Y-67625215D01*
X123179500Y-67874038D01*
X123179500Y-68125962D01*
X123189471Y-68188915D01*
X123218910Y-68374785D01*
X123296760Y-68614383D01*
X123362148Y-68742712D01*
X123400843Y-68818656D01*
X123411132Y-68838848D01*
X123559201Y-69042649D01*
X123559205Y-69042654D01*
X123737345Y-69220794D01*
X123737350Y-69220798D01*
X123888574Y-69330668D01*
X123941155Y-69368870D01*
X123981794Y-69389576D01*
X124032590Y-69437550D01*
X124049500Y-69500061D01*
X124049500Y-72337770D01*
X124040855Y-72367207D01*
X124034332Y-72397198D01*
X124030576Y-72402214D01*
X124029815Y-72404809D01*
X124013185Y-72425446D01*
X123975451Y-72463181D01*
X123939912Y-72498720D01*
X123878588Y-72532204D01*
X123832833Y-72533511D01*
X123618097Y-72499500D01*
X123618092Y-72499500D01*
X123381908Y-72499500D01*
X123381903Y-72499500D01*
X123148631Y-72536446D01*
X122924003Y-72609433D01*
X122713566Y-72716657D01*
X122634754Y-72773918D01*
X122522490Y-72855483D01*
X122522488Y-72855485D01*
X122522487Y-72855485D01*
X122355485Y-73022487D01*
X122355485Y-73022488D01*
X122355483Y-73022490D01*
X122314852Y-73078414D01*
X122216657Y-73213566D01*
X122109433Y-73424003D01*
X122036446Y-73648631D01*
X121999500Y-73881902D01*
X121999500Y-74118097D01*
X122036446Y-74351368D01*
X122109433Y-74575996D01*
X122134912Y-74626000D01*
X122216657Y-74786433D01*
X122355483Y-74977510D01*
X122522490Y-75144517D01*
X122713567Y-75283343D01*
X122812991Y-75334002D01*
X122924003Y-75390566D01*
X122924005Y-75390566D01*
X122924008Y-75390568D01*
X123044412Y-75429689D01*
X123148631Y-75463553D01*
X123381903Y-75500500D01*
X123381908Y-75500500D01*
X123618096Y-75500500D01*
X123713592Y-75485374D01*
X123832834Y-75466488D01*
X123902126Y-75475442D01*
X123939912Y-75501280D01*
X128931580Y-80492948D01*
X128931584Y-80492951D01*
X129054498Y-80575080D01*
X129054511Y-80575087D01*
X129191082Y-80631656D01*
X129191087Y-80631658D01*
X129191091Y-80631658D01*
X129191092Y-80631659D01*
X129336079Y-80660500D01*
X129336082Y-80660500D01*
X129483917Y-80660500D01*
X129594611Y-80660500D01*
X129661650Y-80680185D01*
X129707405Y-80732989D01*
X129717349Y-80802147D01*
X129709172Y-80831952D01*
X129688910Y-80880868D01*
X129688907Y-80880880D01*
X129649500Y-81078992D01*
X129649500Y-81281007D01*
X129688907Y-81479119D01*
X129688909Y-81479127D01*
X129766212Y-81665754D01*
X129820204Y-81746558D01*
X129841081Y-81813235D01*
X129822596Y-81880615D01*
X129820204Y-81884337D01*
X129766655Y-81964479D01*
X129766654Y-81964481D01*
X129689390Y-82151016D01*
X129689387Y-82151025D01*
X129679647Y-82200000D01*
X130534134Y-82200000D01*
X130558326Y-82202383D01*
X130561123Y-82202939D01*
X130573995Y-82205499D01*
X130573996Y-82205500D01*
X130573997Y-82205500D01*
X130614170Y-82205500D01*
X130599925Y-82219745D01*
X130550556Y-82305255D01*
X130525000Y-82400630D01*
X130525000Y-82499370D01*
X130550556Y-82594745D01*
X130599925Y-82680255D01*
X130619670Y-82700000D01*
X129679647Y-82700000D01*
X129689387Y-82748974D01*
X129689390Y-82748983D01*
X129766652Y-82935513D01*
X129766659Y-82935526D01*
X129878829Y-83103399D01*
X129878832Y-83103403D01*
X130021596Y-83246167D01*
X130021600Y-83246170D01*
X130189473Y-83358340D01*
X130189486Y-83358347D01*
X130376016Y-83435609D01*
X130376025Y-83435612D01*
X130574041Y-83474999D01*
X130574045Y-83475000D01*
X130650000Y-83475000D01*
X130650000Y-82730330D01*
X130669745Y-82750075D01*
X130755255Y-82799444D01*
X130850630Y-82825000D01*
X130949370Y-82825000D01*
X131044745Y-82799444D01*
X131130255Y-82750075D01*
X131150000Y-82730330D01*
X131150000Y-83475000D01*
X131225955Y-83475000D01*
X131225958Y-83474999D01*
X131423974Y-83435612D01*
X131423983Y-83435609D01*
X131610513Y-83358347D01*
X131610526Y-83358340D01*
X131778399Y-83246170D01*
X131778403Y-83246167D01*
X131921167Y-83103403D01*
X131921170Y-83103399D01*
X132033340Y-82935526D01*
X132033347Y-82935513D01*
X132110609Y-82748983D01*
X132110612Y-82748974D01*
X132120353Y-82700000D01*
X131180330Y-82700000D01*
X131200075Y-82680255D01*
X131249444Y-82594745D01*
X131275000Y-82499370D01*
X131275000Y-82400630D01*
X131249444Y-82305255D01*
X131200075Y-82219745D01*
X131185830Y-82205500D01*
X131226004Y-82205500D01*
X131226004Y-82205499D01*
X131239473Y-82202820D01*
X131241674Y-82202383D01*
X131265866Y-82200000D01*
X132120353Y-82200000D01*
X132110612Y-82151025D01*
X132110610Y-82151020D01*
X132090286Y-82101953D01*
X132082817Y-82032483D01*
X132114092Y-81970004D01*
X132174181Y-81934352D01*
X132204847Y-81930500D01*
X133613072Y-81930500D01*
X133680111Y-81950185D01*
X133725866Y-82002989D01*
X133730774Y-82015486D01*
X133764832Y-82118267D01*
X133765185Y-82119331D01*
X133765187Y-82119336D01*
X133784727Y-82151016D01*
X133846089Y-82250500D01*
X133857289Y-82268657D01*
X133951304Y-82362672D01*
X133984789Y-82423995D01*
X133979805Y-82493687D01*
X133951305Y-82538034D01*
X133857682Y-82631657D01*
X133765643Y-82780875D01*
X133765641Y-82780880D01*
X133710494Y-82947302D01*
X133710493Y-82947309D01*
X133700000Y-83050013D01*
X133700000Y-83200000D01*
X134776000Y-83200000D01*
X134843039Y-83219685D01*
X134888794Y-83272489D01*
X134900000Y-83324000D01*
X134900000Y-83576000D01*
X134880315Y-83643039D01*
X134827511Y-83688794D01*
X134776000Y-83700000D01*
X133700001Y-83700000D01*
X133700001Y-83849986D01*
X133710494Y-83952697D01*
X133765641Y-84119119D01*
X133765643Y-84119124D01*
X133857684Y-84268345D01*
X133981654Y-84392315D01*
X134130875Y-84484356D01*
X134130880Y-84484358D01*
X134294336Y-84538522D01*
X134351781Y-84578294D01*
X134378604Y-84642810D01*
X134366289Y-84711586D01*
X134343013Y-84743909D01*
X133924743Y-85162181D01*
X133863420Y-85195666D01*
X133837062Y-85198500D01*
X130477080Y-85198500D01*
X130332092Y-85227340D01*
X130332086Y-85227342D01*
X130195508Y-85283914D01*
X130195496Y-85283921D01*
X130146270Y-85316811D01*
X130146271Y-85316812D01*
X130072581Y-85366049D01*
X129575449Y-85863181D01*
X129514126Y-85896666D01*
X129487768Y-85899500D01*
X128999998Y-85899500D01*
X128999980Y-85899501D01*
X128897203Y-85910000D01*
X128897200Y-85910001D01*
X128730668Y-85965185D01*
X128730663Y-85965187D01*
X128581342Y-86057289D01*
X128457289Y-86181342D01*
X128365187Y-86330663D01*
X128365186Y-86330666D01*
X128310001Y-86497203D01*
X128310001Y-86497204D01*
X128310000Y-86497204D01*
X128299500Y-86599983D01*
X128299500Y-87600001D01*
X128299501Y-87600019D01*
X128310000Y-87702796D01*
X128310001Y-87702799D01*
X128339795Y-87792710D01*
X128365186Y-87869334D01*
X128457288Y-88018656D01*
X128581344Y-88142712D01*
X128730666Y-88234814D01*
X128897203Y-88289999D01*
X128999991Y-88300500D01*
X129800008Y-88300499D01*
X129800016Y-88300498D01*
X129800019Y-88300498D01*
X129857991Y-88294576D01*
X129902797Y-88289999D01*
X129946766Y-88275428D01*
X130016593Y-88273026D01*
X130076636Y-88308756D01*
X130107829Y-88371276D01*
X130109129Y-88405736D01*
X130099500Y-88499981D01*
X130099500Y-89300001D01*
X130099501Y-89300019D01*
X130110000Y-89402796D01*
X130110001Y-89402799D01*
X130165185Y-89569331D01*
X130165187Y-89569336D01*
X130169736Y-89576711D01*
X130235831Y-89683869D01*
X130257289Y-89718657D01*
X130351304Y-89812672D01*
X130384789Y-89873995D01*
X130379805Y-89943687D01*
X130351305Y-89988034D01*
X130257682Y-90081657D01*
X130165643Y-90230875D01*
X130165641Y-90230880D01*
X130110494Y-90397302D01*
X130110493Y-90397309D01*
X130100000Y-90500013D01*
X130100000Y-90650000D01*
X132528638Y-90650000D01*
X132595677Y-90669685D01*
X132616319Y-90686319D01*
X132630000Y-90700000D01*
X133312500Y-90700000D01*
X133312500Y-90150000D01*
X132909350Y-90150000D01*
X132872510Y-90152899D01*
X132872504Y-90152900D01*
X132714806Y-90198716D01*
X132714799Y-90198719D01*
X132599542Y-90266881D01*
X132531818Y-90284064D01*
X132465556Y-90261904D01*
X132430883Y-90225246D01*
X132342315Y-90081654D01*
X132272842Y-90012181D01*
X132239357Y-89950858D01*
X132244341Y-89881166D01*
X132286213Y-89825233D01*
X132351677Y-89800816D01*
X132360523Y-89800500D01*
X132692672Y-89800500D01*
X132727267Y-89805424D01*
X132872426Y-89847597D01*
X132872429Y-89847597D01*
X132872431Y-89847598D01*
X132909306Y-89850500D01*
X134075500Y-89850500D01*
X134084185Y-89853050D01*
X134093147Y-89851762D01*
X134117187Y-89862740D01*
X134142539Y-89870185D01*
X134148466Y-89877025D01*
X134156703Y-89880787D01*
X134170992Y-89903021D01*
X134188294Y-89922989D01*
X134190581Y-89933503D01*
X134194477Y-89939565D01*
X134199500Y-89974500D01*
X134199500Y-90026000D01*
X134179815Y-90093039D01*
X134127011Y-90138794D01*
X134075500Y-90150000D01*
X133812500Y-90150000D01*
X133812500Y-90700000D01*
X134468185Y-90700000D01*
X134531306Y-90717268D01*
X134589602Y-90751744D01*
X134592156Y-90752486D01*
X134747426Y-90797597D01*
X134747429Y-90797597D01*
X134747431Y-90797598D01*
X134784306Y-90800500D01*
X135125269Y-90800500D01*
X135154705Y-90809143D01*
X135184695Y-90815667D01*
X135189711Y-90819422D01*
X135192308Y-90820185D01*
X135212949Y-90836818D01*
X135265680Y-90889548D01*
X135299166Y-90950871D01*
X135302000Y-90977230D01*
X135302000Y-118600975D01*
X135282315Y-118668014D01*
X135250887Y-118701291D01*
X135209527Y-118731342D01*
X135140132Y-118781760D01*
X134984256Y-118937636D01*
X134984252Y-118937641D01*
X134854687Y-119115974D01*
X134754604Y-119312393D01*
X134754603Y-119312396D01*
X134686485Y-119522047D01*
X134652000Y-119739778D01*
X134652000Y-121760221D01*
X134686485Y-121977952D01*
X134754603Y-122187603D01*
X134754604Y-122187606D01*
X134804719Y-122285959D01*
X134837354Y-122350009D01*
X134854687Y-122384025D01*
X134984252Y-122562358D01*
X134984256Y-122562363D01*
X135140136Y-122718243D01*
X135140141Y-122718247D01*
X135209769Y-122768834D01*
X135318478Y-122847815D01*
X135434528Y-122906946D01*
X135514893Y-122947895D01*
X135514896Y-122947896D01*
X135602240Y-122976275D01*
X135724549Y-123016015D01*
X135942278Y-123050500D01*
X135942279Y-123050500D01*
X136162721Y-123050500D01*
X136162722Y-123050500D01*
X136380451Y-123016015D01*
X136590106Y-122947895D01*
X136786522Y-122847815D01*
X136964865Y-122718242D01*
X137120742Y-122562365D01*
X137250315Y-122384022D01*
X137350395Y-122187606D01*
X137418515Y-121977951D01*
X137453000Y-121760222D01*
X137453000Y-119739778D01*
X137418515Y-119522049D01*
X137350395Y-119312394D01*
X137350395Y-119312393D01*
X137267649Y-119149998D01*
X137250315Y-119115978D01*
X137200348Y-119047204D01*
X137120747Y-118937641D01*
X137120743Y-118937636D01*
X136964867Y-118781760D01*
X136964865Y-118781758D01*
X136854113Y-118701291D01*
X136811449Y-118645963D01*
X136803000Y-118600975D01*
X136803000Y-90949986D01*
X138675001Y-90949986D01*
X138685494Y-91052697D01*
X138740641Y-91219119D01*
X138740643Y-91219124D01*
X138832684Y-91368345D01*
X138956654Y-91492315D01*
X139105875Y-91584356D01*
X139105880Y-91584358D01*
X139272302Y-91639505D01*
X139272309Y-91639506D01*
X139375019Y-91649999D01*
X139624999Y-91649999D01*
X139625000Y-91649998D01*
X139625000Y-90800000D01*
X140125000Y-90800000D01*
X140125000Y-91649999D01*
X140374972Y-91649999D01*
X140374986Y-91649998D01*
X140477697Y-91639505D01*
X140644119Y-91584358D01*
X140644124Y-91584356D01*
X140793345Y-91492315D01*
X140917315Y-91368345D01*
X140969133Y-91284336D01*
X141021081Y-91237612D01*
X141090044Y-91226389D01*
X141137794Y-91242701D01*
X141152306Y-91251284D01*
X141310004Y-91297099D01*
X141310010Y-91297100D01*
X141346850Y-91299999D01*
X141346866Y-91300000D01*
X141750000Y-91300000D01*
X142250000Y-91300000D01*
X142653134Y-91300000D01*
X142653149Y-91299999D01*
X142689989Y-91297100D01*
X142689995Y-91297099D01*
X142847693Y-91251283D01*
X142847696Y-91251282D01*
X142989052Y-91167685D01*
X142989061Y-91167678D01*
X143105178Y-91051561D01*
X143105185Y-91051552D01*
X143188781Y-90910198D01*
X143234600Y-90752486D01*
X143234795Y-90750001D01*
X143234795Y-90750000D01*
X142250000Y-90750000D01*
X142250000Y-91300000D01*
X141750000Y-91300000D01*
X141750000Y-90750000D01*
X141205000Y-90750000D01*
X141191319Y-90763681D01*
X141129996Y-90797166D01*
X141103638Y-90800000D01*
X140125000Y-90800000D01*
X139625000Y-90800000D01*
X138675001Y-90800000D01*
X138675001Y-90949986D01*
X136803000Y-90949986D01*
X136803000Y-90541079D01*
X136774159Y-90396092D01*
X136774158Y-90396091D01*
X136774158Y-90396087D01*
X136717584Y-90259505D01*
X136696396Y-90227795D01*
X136675520Y-90161118D01*
X136675500Y-90158906D01*
X136675500Y-89784313D01*
X136675499Y-89784298D01*
X136672598Y-89747432D01*
X136672597Y-89747426D01*
X136626745Y-89589606D01*
X136626744Y-89589603D01*
X136626744Y-89589602D01*
X136543081Y-89448135D01*
X136543079Y-89448133D01*
X136543076Y-89448129D01*
X136426870Y-89331923D01*
X136426862Y-89331917D01*
X136285396Y-89248255D01*
X136285393Y-89248254D01*
X136127573Y-89202402D01*
X136127567Y-89202401D01*
X136090701Y-89199500D01*
X136090694Y-89199500D01*
X134924500Y-89199500D01*
X134857461Y-89179815D01*
X134811706Y-89127011D01*
X134800500Y-89075500D01*
X134800500Y-88834313D01*
X134800499Y-88834298D01*
X134798626Y-88810500D01*
X134797598Y-88797431D01*
X134796249Y-88792788D01*
X134751745Y-88639606D01*
X134751744Y-88639603D01*
X134751744Y-88639602D01*
X134668081Y-88498135D01*
X134668079Y-88498133D01*
X134668076Y-88498129D01*
X134551870Y-88381923D01*
X134551862Y-88381917D01*
X134428724Y-88309094D01*
X134410398Y-88298256D01*
X134410397Y-88298255D01*
X134410396Y-88298255D01*
X134410393Y-88298254D01*
X134252573Y-88252402D01*
X134252567Y-88252401D01*
X134215701Y-88249500D01*
X134215694Y-88249500D01*
X132909306Y-88249500D01*
X132909298Y-88249500D01*
X132872432Y-88252401D01*
X132872426Y-88252402D01*
X132727267Y-88294576D01*
X132692672Y-88299500D01*
X132545908Y-88299500D01*
X132478869Y-88279815D01*
X132440363Y-88235728D01*
X132438605Y-88236813D01*
X132416895Y-88201615D01*
X132363529Y-88115094D01*
X132345090Y-88047704D01*
X132363529Y-87984905D01*
X132434814Y-87869334D01*
X132489999Y-87702797D01*
X132500500Y-87600009D01*
X132500499Y-86823499D01*
X132520183Y-86756461D01*
X132572987Y-86710706D01*
X132624499Y-86699500D01*
X134273212Y-86699500D01*
X134370754Y-86680096D01*
X134418205Y-86670658D01*
X134554787Y-86614084D01*
X134615723Y-86573368D01*
X134677708Y-86531952D01*
X137382952Y-83826707D01*
X137424217Y-83764949D01*
X137465084Y-83703787D01*
X137488518Y-83647212D01*
X137521659Y-83567204D01*
X137550500Y-83422209D01*
X137550500Y-83274374D01*
X137550500Y-81911230D01*
X137570185Y-81844191D01*
X137622989Y-81798436D01*
X137692147Y-81788492D01*
X137755703Y-81817517D01*
X137762181Y-81823549D01*
X141441586Y-85502954D01*
X141468246Y-85520766D01*
X141511250Y-85549500D01*
X141564505Y-85585084D01*
X141584838Y-85593506D01*
X141701088Y-85641659D01*
X141817241Y-85664763D01*
X141836468Y-85668587D01*
X141846081Y-85670500D01*
X141846082Y-85670500D01*
X141846083Y-85670500D01*
X141993918Y-85670500D01*
X157312779Y-85670500D01*
X157379818Y-85690185D01*
X157413097Y-85721615D01*
X157469892Y-85799788D01*
X157620213Y-85950109D01*
X157792182Y-86075050D01*
X157800946Y-86079516D01*
X157851742Y-86127491D01*
X157868536Y-86195312D01*
X157845998Y-86261447D01*
X157800946Y-86300484D01*
X157792182Y-86304949D01*
X157620213Y-86429890D01*
X157469897Y-86580206D01*
X157469890Y-86580214D01*
X157456688Y-86598386D01*
X157401358Y-86641052D01*
X157356371Y-86649500D01*
X141199499Y-86649500D01*
X141132460Y-86629815D01*
X141086705Y-86577011D01*
X141075499Y-86525500D01*
X141075499Y-86249998D01*
X141075498Y-86249981D01*
X141064999Y-86147203D01*
X141064998Y-86147200D01*
X141055506Y-86118556D01*
X141009814Y-85980666D01*
X140917712Y-85831344D01*
X140793656Y-85707288D01*
X140644334Y-85615186D01*
X140477797Y-85560001D01*
X140477795Y-85560000D01*
X140375010Y-85549500D01*
X139574998Y-85549500D01*
X139574980Y-85549501D01*
X139472203Y-85560000D01*
X139472200Y-85560001D01*
X139305668Y-85615185D01*
X139305663Y-85615187D01*
X139156342Y-85707289D01*
X139062681Y-85800951D01*
X139001358Y-85834436D01*
X138931666Y-85829452D01*
X138887319Y-85800951D01*
X138793657Y-85707289D01*
X138793656Y-85707288D01*
X138644334Y-85615186D01*
X138477797Y-85560001D01*
X138477795Y-85560000D01*
X138375010Y-85549500D01*
X137574998Y-85549500D01*
X137574980Y-85549501D01*
X137472203Y-85560000D01*
X137472200Y-85560001D01*
X137305668Y-85615185D01*
X137305663Y-85615187D01*
X137156342Y-85707289D01*
X137032289Y-85831342D01*
X136940187Y-85980663D01*
X136940186Y-85980666D01*
X136885001Y-86147203D01*
X136885001Y-86147204D01*
X136885000Y-86147204D01*
X136874500Y-86249983D01*
X136874500Y-87250001D01*
X136874501Y-87250019D01*
X136885000Y-87352796D01*
X136885001Y-87352799D01*
X136933614Y-87499500D01*
X136940186Y-87519334D01*
X137032288Y-87668656D01*
X137156344Y-87792712D01*
X137305666Y-87884814D01*
X137472203Y-87939999D01*
X137574991Y-87950500D01*
X138162769Y-87950499D01*
X138229808Y-87970183D01*
X138250450Y-87986818D01*
X138638181Y-88374548D01*
X138671666Y-88435871D01*
X138674500Y-88462229D01*
X138674500Y-88950001D01*
X138674501Y-88950019D01*
X138685000Y-89052796D01*
X138685001Y-89052799D01*
X138740185Y-89219331D01*
X138740187Y-89219336D01*
X138758025Y-89248256D01*
X138832286Y-89368653D01*
X138832289Y-89368657D01*
X138926304Y-89462672D01*
X138959789Y-89523995D01*
X138954805Y-89593687D01*
X138926305Y-89638034D01*
X138832682Y-89731657D01*
X138740643Y-89880875D01*
X138740641Y-89880880D01*
X138685494Y-90047302D01*
X138685493Y-90047309D01*
X138675000Y-90150013D01*
X138675000Y-90300000D01*
X140632500Y-90300000D01*
X140646181Y-90286319D01*
X140707504Y-90252834D01*
X140733862Y-90250000D01*
X141750000Y-90250000D01*
X141750000Y-89700000D01*
X141346850Y-89700000D01*
X141310010Y-89702899D01*
X141310004Y-89702900D01*
X141152306Y-89748716D01*
X141152305Y-89748716D01*
X141092597Y-89784027D01*
X141024873Y-89801208D01*
X140958610Y-89779048D01*
X140938692Y-89761757D01*
X140820591Y-89634816D01*
X140805920Y-89605482D01*
X140790210Y-89576711D01*
X140790375Y-89574400D01*
X140789338Y-89572326D01*
X140792855Y-89539722D01*
X140795194Y-89507019D01*
X140796623Y-89504795D01*
X140796832Y-89502859D01*
X140801930Y-89496536D01*
X140823691Y-89462676D01*
X140917712Y-89368656D01*
X140923420Y-89359402D01*
X140931006Y-89352578D01*
X140935245Y-89343297D01*
X140956543Y-89329609D01*
X140975368Y-89312678D01*
X140987004Y-89310033D01*
X140994023Y-89305523D01*
X141028958Y-89300500D01*
X141031531Y-89300500D01*
X141094651Y-89317767D01*
X141152102Y-89351744D01*
X141154973Y-89352578D01*
X141309926Y-89397597D01*
X141309929Y-89397597D01*
X141309931Y-89397598D01*
X141346806Y-89400500D01*
X142513000Y-89400500D01*
X142521685Y-89403050D01*
X142530647Y-89401762D01*
X142554687Y-89412740D01*
X142580039Y-89420185D01*
X142585966Y-89427025D01*
X142594203Y-89430787D01*
X142608492Y-89453021D01*
X142625794Y-89472989D01*
X142628081Y-89483503D01*
X142631977Y-89489565D01*
X142637000Y-89524500D01*
X142637000Y-89576000D01*
X142617315Y-89643039D01*
X142564511Y-89688794D01*
X142513000Y-89700000D01*
X142250000Y-89700000D01*
X142250000Y-90250000D01*
X142905685Y-90250000D01*
X142968806Y-90267268D01*
X143027102Y-90301744D01*
X143068724Y-90313836D01*
X143184926Y-90347597D01*
X143184929Y-90347597D01*
X143184931Y-90347598D01*
X143221806Y-90350500D01*
X143562770Y-90350500D01*
X143629809Y-90370185D01*
X143650451Y-90386819D01*
X149293181Y-96029548D01*
X149326666Y-96090871D01*
X149329500Y-96117229D01*
X149329500Y-112140089D01*
X149309815Y-112207128D01*
X149278385Y-112240407D01*
X149087350Y-112379201D01*
X149087345Y-112379205D01*
X148909205Y-112557345D01*
X148909201Y-112557350D01*
X148761132Y-112761151D01*
X148646760Y-112985616D01*
X148568910Y-113225214D01*
X148529500Y-113474038D01*
X148529500Y-113725961D01*
X148568910Y-113974786D01*
X148576068Y-113996818D01*
X148578062Y-114066659D01*
X148545817Y-114122814D01*
X146969545Y-115699086D01*
X146945468Y-115735122D01*
X146935862Y-115749500D01*
X146914247Y-115781849D01*
X146887414Y-115822007D01*
X146830843Y-115958582D01*
X146830840Y-115958592D01*
X146802000Y-116103579D01*
X146802000Y-118600975D01*
X146782315Y-118668014D01*
X146750887Y-118701291D01*
X146709527Y-118731342D01*
X146640132Y-118781760D01*
X146484256Y-118937636D01*
X146484252Y-118937641D01*
X146354687Y-119115974D01*
X146254604Y-119312393D01*
X146254603Y-119312396D01*
X146186485Y-119522047D01*
X146152000Y-119739778D01*
X146152000Y-121760221D01*
X146186485Y-121977952D01*
X146254603Y-122187603D01*
X146254604Y-122187606D01*
X146304719Y-122285959D01*
X146337354Y-122350009D01*
X146354687Y-122384025D01*
X146484252Y-122562358D01*
X146484256Y-122562363D01*
X146559712Y-122637819D01*
X146593197Y-122699142D01*
X146588213Y-122768834D01*
X146546341Y-122824767D01*
X146480877Y-122849184D01*
X146472031Y-122849500D01*
X145684729Y-122849500D01*
X145617690Y-122829815D01*
X145597048Y-122813181D01*
X143909318Y-121125450D01*
X143875833Y-121064127D01*
X143872999Y-121037769D01*
X143872999Y-119149998D01*
X143872998Y-119149981D01*
X143862499Y-119047203D01*
X143862498Y-119047200D01*
X143807314Y-118880666D01*
X143715212Y-118731344D01*
X143591156Y-118607288D01*
X143473000Y-118534409D01*
X143441836Y-118515187D01*
X143441831Y-118515185D01*
X143422004Y-118508615D01*
X143275297Y-118460001D01*
X143275295Y-118460000D01*
X143172510Y-118449500D01*
X141772498Y-118449500D01*
X141772481Y-118449501D01*
X141669703Y-118460000D01*
X141669700Y-118460001D01*
X141557604Y-118497147D01*
X141503166Y-118515186D01*
X141503164Y-118515186D01*
X141496311Y-118517458D01*
X141495921Y-118516283D01*
X141434096Y-118525670D01*
X141370314Y-118497147D01*
X141363095Y-118490478D01*
X140756819Y-117884201D01*
X140723334Y-117822878D01*
X140720500Y-117796520D01*
X140720500Y-115324500D01*
X140740185Y-115257461D01*
X140792989Y-115211706D01*
X140844500Y-115200500D01*
X140870005Y-115200500D01*
X140870010Y-115200500D01*
X140972798Y-115189999D01*
X141139335Y-115134814D01*
X141288656Y-115042712D01*
X141412712Y-114918656D01*
X141504814Y-114769335D01*
X141559999Y-114602798D01*
X141570500Y-114500010D01*
X141570500Y-112699990D01*
X141559999Y-112597202D01*
X141504814Y-112430665D01*
X141412712Y-112281344D01*
X141288656Y-112157288D01*
X141139335Y-112065186D01*
X140972798Y-112010001D01*
X140972796Y-112010000D01*
X140870017Y-111999500D01*
X140870010Y-111999500D01*
X139069990Y-111999500D01*
X139069982Y-111999500D01*
X138967203Y-112010000D01*
X138967202Y-112010001D01*
X138884669Y-112037349D01*
X138800667Y-112065185D01*
X138800662Y-112065187D01*
X138651342Y-112157289D01*
X138527289Y-112281342D01*
X138435187Y-112430662D01*
X138435186Y-112430665D01*
X138380001Y-112597202D01*
X138380001Y-112597203D01*
X138380000Y-112597203D01*
X138369500Y-112699982D01*
X138369500Y-114500017D01*
X138380000Y-114602796D01*
X138435185Y-114769332D01*
X138435186Y-114769335D01*
X138527288Y-114918656D01*
X138651344Y-115042712D01*
X138800665Y-115134814D01*
X138967202Y-115189999D01*
X139069990Y-115200500D01*
X139095500Y-115200500D01*
X139162539Y-115220185D01*
X139208294Y-115272989D01*
X139219500Y-115324500D01*
X139219500Y-118038717D01*
X139217116Y-118062909D01*
X139213875Y-118079208D01*
X139213875Y-118227042D01*
X139213875Y-118227044D01*
X139213874Y-118227044D01*
X139242715Y-118372031D01*
X139242717Y-118372037D01*
X139291776Y-118490478D01*
X139299291Y-118508619D01*
X139381423Y-118631541D01*
X139381426Y-118631544D01*
X139381427Y-118631545D01*
X139381427Y-118631546D01*
X141035681Y-120285798D01*
X141069166Y-120347121D01*
X141072000Y-120373479D01*
X141072000Y-122350001D01*
X141072001Y-122350018D01*
X141082500Y-122452796D01*
X141082501Y-122452799D01*
X141137685Y-122619331D01*
X141137687Y-122619336D01*
X141172569Y-122675888D01*
X141229788Y-122768656D01*
X141353844Y-122892712D01*
X141503166Y-122984814D01*
X141669703Y-123039999D01*
X141772491Y-123050500D01*
X143172508Y-123050499D01*
X143275297Y-123039999D01*
X143441834Y-122984814D01*
X143455678Y-122976275D01*
X143484629Y-122958418D01*
X143552021Y-122939977D01*
X143618685Y-122960899D01*
X143637407Y-122976275D01*
X144739549Y-124078416D01*
X144844084Y-124182951D01*
X144844087Y-124182953D01*
X144844088Y-124182954D01*
X144967003Y-124265083D01*
X144967006Y-124265085D01*
X145017165Y-124285861D01*
X145023580Y-124288518D01*
X145103588Y-124321659D01*
X145219741Y-124344763D01*
X145242880Y-124349365D01*
X145248581Y-124350500D01*
X145248582Y-124350500D01*
X148573920Y-124350500D01*
X148671462Y-124331096D01*
X148718913Y-124321658D01*
X148855495Y-124265084D01*
X148904729Y-124232186D01*
X148978416Y-124182952D01*
X153346953Y-119814415D01*
X155749500Y-119814415D01*
X155749500Y-120185584D01*
X155781849Y-120555332D01*
X155846300Y-120920847D01*
X155846303Y-120920860D01*
X155942362Y-121279361D01*
X156069306Y-121628140D01*
X156179124Y-121863644D01*
X156226169Y-121964532D01*
X156411750Y-122285968D01*
X156411754Y-122285974D01*
X156411761Y-122285985D01*
X156624639Y-122590006D01*
X156774545Y-122768657D01*
X156863217Y-122874332D01*
X157125668Y-123136783D01*
X157243889Y-123235982D01*
X157409993Y-123375360D01*
X157714014Y-123588238D01*
X157714021Y-123588242D01*
X157714032Y-123588250D01*
X158035468Y-123773831D01*
X158035477Y-123773835D01*
X158371859Y-123930693D01*
X158632566Y-124025582D01*
X158720632Y-124057635D01*
X158720633Y-124057635D01*
X158720638Y-124057637D01*
X158833267Y-124087815D01*
X159079147Y-124153699D01*
X159444670Y-124218151D01*
X159814417Y-124250499D01*
X159814418Y-124250500D01*
X159814419Y-124250500D01*
X160185582Y-124250500D01*
X160185582Y-124250499D01*
X160555330Y-124218151D01*
X160920853Y-124153699D01*
X161279368Y-124057635D01*
X161628145Y-123930691D01*
X161964532Y-123773831D01*
X162285968Y-123588250D01*
X162590005Y-123375361D01*
X162874332Y-123136783D01*
X163136783Y-122874332D01*
X163375361Y-122590005D01*
X163588250Y-122285968D01*
X163773831Y-121964532D01*
X163930691Y-121628145D01*
X164057635Y-121279368D01*
X164153699Y-120920853D01*
X164218151Y-120555330D01*
X164250500Y-120185581D01*
X164250500Y-119814419D01*
X164218151Y-119444670D01*
X164153699Y-119079147D01*
X164074014Y-118781758D01*
X164057637Y-118720638D01*
X163930693Y-118371859D01*
X163786627Y-118062909D01*
X163773831Y-118035468D01*
X163588250Y-117714032D01*
X163588242Y-117714021D01*
X163588238Y-117714014D01*
X163375360Y-117409993D01*
X163136780Y-117125665D01*
X162874334Y-116863219D01*
X162590006Y-116624639D01*
X162285985Y-116411761D01*
X162285974Y-116411754D01*
X162285968Y-116411750D01*
X162190470Y-116356614D01*
X161964538Y-116226172D01*
X161964522Y-116226164D01*
X161628140Y-116069306D01*
X161279361Y-115942362D01*
X160920860Y-115846303D01*
X160920863Y-115846303D01*
X160920853Y-115846301D01*
X160783076Y-115822007D01*
X160555332Y-115781849D01*
X160185584Y-115749500D01*
X160185581Y-115749500D01*
X159814419Y-115749500D01*
X159814415Y-115749500D01*
X159444667Y-115781849D01*
X159079152Y-115846300D01*
X159079149Y-115846300D01*
X159079147Y-115846301D01*
X159079142Y-115846302D01*
X159079139Y-115846303D01*
X158720638Y-115942362D01*
X158371859Y-116069306D01*
X158035477Y-116226164D01*
X158035461Y-116226172D01*
X157714040Y-116411745D01*
X157714014Y-116411761D01*
X157409993Y-116624639D01*
X157125665Y-116863219D01*
X156863219Y-117125665D01*
X156624639Y-117409993D01*
X156411761Y-117714014D01*
X156411745Y-117714040D01*
X156226172Y-118035461D01*
X156226164Y-118035477D01*
X156069306Y-118371859D01*
X155942362Y-118720638D01*
X155846303Y-119079139D01*
X155846300Y-119079152D01*
X155781849Y-119444667D01*
X155749500Y-119814415D01*
X153346953Y-119814415D01*
X155082160Y-118079208D01*
X160982948Y-112178419D01*
X160982947Y-112178419D01*
X160982951Y-112178416D01*
X161065084Y-112055495D01*
X161121658Y-111918913D01*
X161150500Y-111773918D01*
X161150500Y-111626083D01*
X161150500Y-84206082D01*
X161150500Y-84206079D01*
X161121659Y-84061092D01*
X161121658Y-84061091D01*
X161121658Y-84061087D01*
X161113010Y-84040208D01*
X161065085Y-83924507D01*
X161015292Y-83849986D01*
X161005223Y-83834916D01*
X160982952Y-83801584D01*
X159886818Y-82705450D01*
X159853333Y-82644127D01*
X159850499Y-82617769D01*
X159850499Y-81482129D01*
X159850498Y-81482123D01*
X159850497Y-81482116D01*
X159844091Y-81422517D01*
X159793796Y-81287669D01*
X159793795Y-81287668D01*
X159793793Y-81287664D01*
X159707547Y-81172455D01*
X159707544Y-81172452D01*
X159592335Y-81086206D01*
X159592332Y-81086205D01*
X159592331Y-81086204D01*
X159581161Y-81082038D01*
X159525231Y-81040166D01*
X159500816Y-80974701D01*
X159500500Y-80965858D01*
X159500500Y-62151456D01*
X159462052Y-61958170D01*
X159462051Y-61958169D01*
X159462051Y-61958165D01*
X159426280Y-61871806D01*
X159386635Y-61776092D01*
X159386628Y-61776079D01*
X159277140Y-61612219D01*
X159277139Y-61612218D01*
X159137782Y-61472861D01*
X159137781Y-61472860D01*
X153184208Y-55519288D01*
X153184206Y-55519285D01*
X153184206Y-55519286D01*
X153177139Y-55512219D01*
X153177139Y-55512218D01*
X153037782Y-55372861D01*
X153037781Y-55372860D01*
X153037780Y-55372859D01*
X152873920Y-55263371D01*
X152873911Y-55263366D01*
X152752486Y-55213070D01*
X152752482Y-55213069D01*
X152745165Y-55210038D01*
X152691836Y-55187949D01*
X152576715Y-55165050D01*
X152572525Y-55164216D01*
X152572523Y-55164216D01*
X152498543Y-55149500D01*
X152498541Y-55149500D01*
X146648541Y-55149500D01*
X138124499Y-55149500D01*
X138057460Y-55129815D01*
X138011705Y-55077011D01*
X138000499Y-55025500D01*
X138000499Y-54752129D01*
X138000498Y-54752123D01*
X138000497Y-54752116D01*
X137994091Y-54692517D01*
X137975370Y-54642324D01*
X137943797Y-54557671D01*
X137943793Y-54557664D01*
X137857547Y-54442455D01*
X137857544Y-54442452D01*
X137742335Y-54356206D01*
X137742328Y-54356202D01*
X137607482Y-54305908D01*
X137607483Y-54305908D01*
X137547883Y-54299501D01*
X137547881Y-54299500D01*
X137547873Y-54299500D01*
X137547864Y-54299500D01*
X133852129Y-54299500D01*
X133852123Y-54299501D01*
X133792516Y-54305908D01*
X133657671Y-54356202D01*
X133657664Y-54356206D01*
X133542455Y-54442452D01*
X133542452Y-54442455D01*
X133456206Y-54557664D01*
X133456202Y-54557671D01*
X133405908Y-54692517D01*
X133399501Y-54752116D01*
X133399501Y-54752123D01*
X133399500Y-54752135D01*
X133399500Y-55025500D01*
X133379815Y-55092539D01*
X133327011Y-55138294D01*
X133275500Y-55149500D01*
X120803022Y-55149500D01*
X120735983Y-55129815D01*
X120690228Y-55077011D01*
X120685318Y-55064510D01*
X120684814Y-55062989D01*
X120592712Y-54913667D01*
X120468656Y-54789611D01*
X120319334Y-54697509D01*
X120152797Y-54642324D01*
X120152795Y-54642323D01*
X120050010Y-54631823D01*
X118449998Y-54631823D01*
X118449981Y-54631824D01*
X118347203Y-54642323D01*
X118347200Y-54642324D01*
X118180668Y-54697508D01*
X118180663Y-54697510D01*
X118031342Y-54789612D01*
X117907289Y-54913665D01*
X117815187Y-55062986D01*
X117815185Y-55062991D01*
X117805394Y-55092539D01*
X117760001Y-55229526D01*
X117760001Y-55229527D01*
X117760000Y-55229527D01*
X117749500Y-55332306D01*
X117749500Y-56166540D01*
X117729815Y-56233579D01*
X117713181Y-56254221D01*
X103362221Y-70605181D01*
X103362218Y-70605184D01*
X103325951Y-70641451D01*
X103222859Y-70744542D01*
X103113371Y-70908402D01*
X103113364Y-70908415D01*
X103068368Y-71017048D01*
X103068368Y-71017049D01*
X103037950Y-71090483D01*
X103037948Y-71090488D01*
X103035956Y-71100504D01*
X102999500Y-71283778D01*
X102999500Y-76876000D01*
X102979815Y-76943039D01*
X102927011Y-76988794D01*
X102875500Y-77000000D01*
X98051362Y-77000000D01*
X97984323Y-76980315D01*
X97963681Y-76963681D01*
X93036319Y-72036319D01*
X93002834Y-71974996D01*
X93000000Y-71948638D01*
X93000000Y-57731947D01*
X102500000Y-57731947D01*
X102500000Y-57750000D01*
X103399999Y-57750000D01*
X103374979Y-57810402D01*
X103350000Y-57935981D01*
X103350000Y-58064019D01*
X103374979Y-58189598D01*
X103399999Y-58250000D01*
X102500000Y-58250000D01*
X102500000Y-58268052D01*
X102536934Y-58501247D01*
X102609897Y-58725802D01*
X102717085Y-58936171D01*
X102855866Y-59127186D01*
X103022813Y-59294133D01*
X103213828Y-59432914D01*
X103424195Y-59540102D01*
X103648744Y-59613063D01*
X103648750Y-59613065D01*
X103750000Y-59629101D01*
X103750000Y-58600001D01*
X103810402Y-58625021D01*
X103935981Y-58650000D01*
X104064019Y-58650000D01*
X104189598Y-58625021D01*
X104250000Y-58600001D01*
X104250000Y-59629100D01*
X104351249Y-59613065D01*
X104351255Y-59613063D01*
X104575804Y-59540102D01*
X104786171Y-59432914D01*
X104977186Y-59294133D01*
X105144133Y-59127186D01*
X105282914Y-58936171D01*
X105390102Y-58725802D01*
X105463065Y-58501247D01*
X105500000Y-58268052D01*
X105500000Y-58250000D01*
X104600001Y-58250000D01*
X104625021Y-58189598D01*
X104650000Y-58064019D01*
X104650000Y-57935981D01*
X104625021Y-57810402D01*
X104600001Y-57750000D01*
X105500000Y-57750000D01*
X105500000Y-57731947D01*
X105463065Y-57498752D01*
X105390102Y-57274197D01*
X105282914Y-57063828D01*
X105144133Y-56872813D01*
X104977186Y-56705866D01*
X104786171Y-56567085D01*
X104575802Y-56459897D01*
X104351247Y-56386934D01*
X104250000Y-56370897D01*
X104250000Y-57399998D01*
X104189598Y-57374979D01*
X104064019Y-57350000D01*
X103935981Y-57350000D01*
X103810402Y-57374979D01*
X103750000Y-57399998D01*
X103750000Y-56370897D01*
X103648752Y-56386934D01*
X103424197Y-56459897D01*
X103213828Y-56567085D01*
X103022813Y-56705866D01*
X102855866Y-56872813D01*
X102717085Y-57063828D01*
X102609897Y-57274197D01*
X102536934Y-57498752D01*
X102500000Y-57731947D01*
X93000000Y-57731947D01*
X93000000Y-52814415D01*
X155749500Y-52814415D01*
X155749500Y-53185584D01*
X155781849Y-53555332D01*
X155846300Y-53920847D01*
X155846303Y-53920860D01*
X155942362Y-54279361D01*
X156069306Y-54628140D01*
X156226164Y-54964522D01*
X156226172Y-54964538D01*
X156341938Y-55165050D01*
X156411750Y-55285968D01*
X156411754Y-55285974D01*
X156411761Y-55285985D01*
X156624639Y-55590006D01*
X156797083Y-55795517D01*
X156863217Y-55874332D01*
X157125668Y-56136783D01*
X157222342Y-56217902D01*
X157409993Y-56375360D01*
X157714014Y-56588238D01*
X157714021Y-56588242D01*
X157714032Y-56588250D01*
X158035468Y-56773831D01*
X158035477Y-56773835D01*
X158371859Y-56930693D01*
X158632566Y-57025582D01*
X158720632Y-57057635D01*
X158720633Y-57057635D01*
X158720638Y-57057637D01*
X158833267Y-57087815D01*
X159079147Y-57153699D01*
X159444670Y-57218151D01*
X159814417Y-57250499D01*
X159814418Y-57250500D01*
X159814419Y-57250500D01*
X160185582Y-57250500D01*
X160185582Y-57250499D01*
X160555330Y-57218151D01*
X160920853Y-57153699D01*
X161243659Y-57067203D01*
X161279361Y-57057637D01*
X161279362Y-57057636D01*
X161279368Y-57057635D01*
X161628145Y-56930691D01*
X161964532Y-56773831D01*
X162285968Y-56588250D01*
X162590005Y-56375361D01*
X162874332Y-56136783D01*
X163136783Y-55874332D01*
X163375361Y-55590005D01*
X163588250Y-55285968D01*
X163773831Y-54964532D01*
X163930691Y-54628145D01*
X164057635Y-54279368D01*
X164153699Y-53920853D01*
X164218151Y-53555330D01*
X164250500Y-53185581D01*
X164250500Y-52814419D01*
X164218151Y-52444670D01*
X164153699Y-52079147D01*
X164057635Y-51720632D01*
X164025582Y-51632566D01*
X163930693Y-51371859D01*
X163773835Y-51035477D01*
X163773827Y-51035461D01*
X163762177Y-51015283D01*
X163588250Y-50714032D01*
X163588242Y-50714021D01*
X163588238Y-50714014D01*
X163375360Y-50409993D01*
X163136780Y-50125665D01*
X162874334Y-49863219D01*
X162590006Y-49624639D01*
X162285985Y-49411761D01*
X162285974Y-49411754D01*
X162285968Y-49411750D01*
X162190470Y-49356614D01*
X161964538Y-49226172D01*
X161964522Y-49226164D01*
X161628140Y-49069306D01*
X161279361Y-48942362D01*
X160920860Y-48846303D01*
X160920863Y-48846303D01*
X160920853Y-48846301D01*
X160869246Y-48837201D01*
X160555332Y-48781849D01*
X160185584Y-48749500D01*
X160185581Y-48749500D01*
X159814419Y-48749500D01*
X159814415Y-48749500D01*
X159444667Y-48781849D01*
X159079152Y-48846300D01*
X159079149Y-48846300D01*
X159079147Y-48846301D01*
X159079142Y-48846302D01*
X159079139Y-48846303D01*
X158720638Y-48942362D01*
X158371859Y-49069306D01*
X158035477Y-49226164D01*
X158035461Y-49226172D01*
X157714040Y-49411745D01*
X157714014Y-49411761D01*
X157409993Y-49624639D01*
X157125665Y-49863219D01*
X156863219Y-50125665D01*
X156624639Y-50409993D01*
X156411761Y-50714014D01*
X156411745Y-50714040D01*
X156226172Y-51035461D01*
X156226164Y-51035477D01*
X156069306Y-51371859D01*
X155942362Y-51720638D01*
X155846303Y-52079139D01*
X155846300Y-52079152D01*
X155781849Y-52444667D01*
X155749500Y-52814415D01*
X93000000Y-52814415D01*
X93000000Y-45624500D01*
X93019685Y-45557461D01*
X93072489Y-45511706D01*
X93124000Y-45500500D01*
X167375500Y-45500500D01*
X167442539Y-45520185D01*
G37*
%TD.AperFunction*%
%TA.AperFunction,Conductor*%
G36*
X157336225Y-88170185D02*
G01*
X157369504Y-88201615D01*
X157469890Y-88339785D01*
X157469894Y-88339790D01*
X157620213Y-88490109D01*
X157792179Y-88615048D01*
X157792181Y-88615049D01*
X157792184Y-88615051D01*
X157801493Y-88619794D01*
X157852290Y-88667766D01*
X157869087Y-88735587D01*
X157846552Y-88801722D01*
X157801505Y-88840760D01*
X157792446Y-88845376D01*
X157792440Y-88845380D01*
X157738282Y-88884727D01*
X157738282Y-88884728D01*
X158370591Y-89517037D01*
X158307007Y-89534075D01*
X158192993Y-89599901D01*
X158099901Y-89692993D01*
X158034075Y-89807007D01*
X158017037Y-89870591D01*
X157384728Y-89238282D01*
X157384727Y-89238282D01*
X157345380Y-89292439D01*
X157248904Y-89481782D01*
X157183242Y-89683869D01*
X157183242Y-89683872D01*
X157150000Y-89893753D01*
X157150000Y-90106246D01*
X157183242Y-90316127D01*
X157183242Y-90316130D01*
X157248904Y-90518217D01*
X157345375Y-90707550D01*
X157384728Y-90761716D01*
X158017037Y-90129408D01*
X158034075Y-90192993D01*
X158099901Y-90307007D01*
X158192993Y-90400099D01*
X158307007Y-90465925D01*
X158370590Y-90482962D01*
X157738282Y-91115269D01*
X157738282Y-91115270D01*
X157792449Y-91154624D01*
X157981782Y-91251095D01*
X158183870Y-91316757D01*
X158393754Y-91350000D01*
X158606246Y-91350000D01*
X158816127Y-91316757D01*
X158816130Y-91316757D01*
X159018217Y-91251095D01*
X159207554Y-91154622D01*
X159261716Y-91115270D01*
X159261717Y-91115270D01*
X158629408Y-90482962D01*
X158692993Y-90465925D01*
X158807007Y-90400099D01*
X158900099Y-90307007D01*
X158965925Y-90192993D01*
X158982962Y-90129409D01*
X159613181Y-90759628D01*
X159646666Y-90820951D01*
X159649500Y-90847309D01*
X159649500Y-111337769D01*
X159629815Y-111404808D01*
X159613181Y-111425450D01*
X149161615Y-121877015D01*
X149100292Y-121910500D01*
X149030600Y-121905516D01*
X148974667Y-121863644D01*
X148950250Y-121798180D01*
X148951460Y-121769940D01*
X148953000Y-121760222D01*
X148953000Y-119739778D01*
X148918515Y-119522049D01*
X148850395Y-119312394D01*
X148850395Y-119312393D01*
X148767649Y-119149998D01*
X148750315Y-119115978D01*
X148700348Y-119047204D01*
X148620747Y-118937641D01*
X148620743Y-118937636D01*
X148464867Y-118781760D01*
X148464865Y-118781758D01*
X148354113Y-118701291D01*
X148311449Y-118645963D01*
X148303000Y-118600975D01*
X148303000Y-116539728D01*
X148322685Y-116472689D01*
X148339314Y-116452052D01*
X149607186Y-115184179D01*
X149668507Y-115150696D01*
X149733181Y-115153930D01*
X149755215Y-115161090D01*
X150004038Y-115200500D01*
X150004039Y-115200500D01*
X150255961Y-115200500D01*
X150255962Y-115200500D01*
X150504785Y-115161090D01*
X150744379Y-115083241D01*
X150968845Y-114968870D01*
X151172656Y-114820793D01*
X151350793Y-114642656D01*
X151498870Y-114438845D01*
X151613241Y-114214379D01*
X151691090Y-113974785D01*
X151730500Y-113725962D01*
X151730500Y-113474038D01*
X151691090Y-113225215D01*
X151613241Y-112985621D01*
X151613239Y-112985618D01*
X151613239Y-112985616D01*
X151571747Y-112904184D01*
X151498870Y-112761155D01*
X151454425Y-112699982D01*
X151350798Y-112557350D01*
X151350794Y-112557345D01*
X151172654Y-112379205D01*
X151172649Y-112379201D01*
X150968846Y-112231130D01*
X150898204Y-112195135D01*
X150847408Y-112147160D01*
X150830500Y-112084651D01*
X150830500Y-95681079D01*
X150801659Y-95536092D01*
X150801658Y-95536091D01*
X150801658Y-95536087D01*
X150801656Y-95536082D01*
X150745087Y-95399511D01*
X150745080Y-95399498D01*
X150662952Y-95276585D01*
X150662951Y-95276584D01*
X150558416Y-95172049D01*
X148599934Y-93213567D01*
X146542060Y-91155692D01*
X145149319Y-89762951D01*
X145115834Y-89701628D01*
X145113000Y-89675270D01*
X145113000Y-89334313D01*
X145112999Y-89334298D01*
X145110339Y-89300500D01*
X145110098Y-89297431D01*
X145093520Y-89240371D01*
X145064245Y-89139606D01*
X145064244Y-89139603D01*
X145064244Y-89139602D01*
X144980581Y-88998135D01*
X144980579Y-88998133D01*
X144980576Y-88998129D01*
X144864370Y-88881923D01*
X144864362Y-88881917D01*
X144783842Y-88834298D01*
X144722898Y-88798256D01*
X144722897Y-88798255D01*
X144722896Y-88798255D01*
X144722893Y-88798254D01*
X144565073Y-88752402D01*
X144565067Y-88752401D01*
X144528201Y-88749500D01*
X144528194Y-88749500D01*
X143362000Y-88749500D01*
X143294961Y-88729815D01*
X143249206Y-88677011D01*
X143238000Y-88625500D01*
X143238000Y-88384313D01*
X143237999Y-88384298D01*
X143236974Y-88371276D01*
X143235098Y-88347431D01*
X143223960Y-88309094D01*
X143224160Y-88239225D01*
X143262103Y-88180555D01*
X143325741Y-88151712D01*
X143343037Y-88150500D01*
X157269186Y-88150500D01*
X157336225Y-88170185D01*
G37*
%TD.AperFunction*%
%TA.AperFunction,Conductor*%
G36*
X159568834Y-88403576D02*
G01*
X159624767Y-88445448D01*
X159649184Y-88510912D01*
X159649500Y-88519758D01*
X159649500Y-89152690D01*
X159629815Y-89219729D01*
X159613181Y-89240371D01*
X158982962Y-89870590D01*
X158965925Y-89807007D01*
X158900099Y-89692993D01*
X158807007Y-89599901D01*
X158692993Y-89534075D01*
X158629409Y-89517037D01*
X159261716Y-88884728D01*
X159207547Y-88845373D01*
X159207547Y-88845372D01*
X159198500Y-88840763D01*
X159147706Y-88792788D01*
X159130912Y-88724966D01*
X159153451Y-88658832D01*
X159198508Y-88619793D01*
X159207816Y-88615051D01*
X159287007Y-88557515D01*
X159379786Y-88490109D01*
X159379788Y-88490106D01*
X159379792Y-88490104D01*
X159437819Y-88432077D01*
X159499142Y-88398592D01*
X159568834Y-88403576D01*
G37*
%TD.AperFunction*%
%TD*%
M02*
