%TF.GenerationSoftware,KiCad,Pcbnew,9.0.7*%
%TF.CreationDate,2026-03-22T18:19:07+03:00*%
%TF.ProjectId,cactus_plate,63616374-7573-45f7-906c-6174652e6b69,rev?*%
%TF.SameCoordinates,Original*%
%TF.FileFunction,Soldermask,Top*%
%TF.FilePolarity,Negative*%
%FSLAX46Y46*%
G04 Gerber Fmt 4.6, Leading zero omitted, Abs format (unit mm)*
G04 Created by KiCad (PCBNEW 9.0.7) date 2026-03-22 18:19:07*
%MOMM*%
%LPD*%
G01*
G04 APERTURE LIST*
G04 Aperture macros list*
%AMRoundRect*
0 Rectangle with rounded corners*
0 $1 Rounding radius*
0 $2 $3 $4 $5 $6 $7 $8 $9 X,Y pos of 4 corners*
0 Add a 4 corners polygon primitive as box body*
4,1,4,$2,$3,$4,$5,$6,$7,$8,$9,$2,$3,0*
0 Add four circle primitives for the rounded corners*
1,1,$1+$1,$2,$3*
1,1,$1+$1,$4,$5*
1,1,$1+$1,$6,$7*
1,1,$1+$1,$8,$9*
0 Add four rect primitives between the rounded corners*
20,1,$1+$1,$2,$3,$4,$5,0*
20,1,$1+$1,$4,$5,$6,$7,0*
20,1,$1+$1,$6,$7,$8,$9,0*
20,1,$1+$1,$8,$9,$2,$3,0*%
G04 Aperture macros list end*
%ADD10RoundRect,0.150000X-0.587500X-0.150000X0.587500X-0.150000X0.587500X0.150000X-0.587500X0.150000X0*%
%ADD11RoundRect,0.250000X0.650000X-1.000000X0.650000X1.000000X-0.650000X1.000000X-0.650000X-1.000000X0*%
%ADD12RoundRect,0.250000X0.350000X0.450000X-0.350000X0.450000X-0.350000X-0.450000X0.350000X-0.450000X0*%
%ADD13RoundRect,0.250000X-0.350000X-0.450000X0.350000X-0.450000X0.350000X0.450000X-0.350000X0.450000X0*%
%ADD14C,2.200000*%
%ADD15RoundRect,0.249999X-0.850001X-0.850001X0.850001X-0.850001X0.850001X0.850001X-0.850001X0.850001X0*%
%ADD16RoundRect,0.250000X-0.450000X0.350000X-0.450000X-0.350000X0.450000X-0.350000X0.450000X0.350000X0*%
%ADD17C,7.500000*%
%ADD18RoundRect,0.250000X0.450000X-0.350000X0.450000X0.350000X-0.450000X0.350000X-0.450000X-0.350000X0*%
%ADD19R,3.600000X2.700000*%
%ADD20O,2.000000X2.300000*%
%ADD21RoundRect,0.250000X-0.750000X-0.900000X0.750000X-0.900000X0.750000X0.900000X-0.750000X0.900000X0*%
%ADD22C,1.600000*%
%ADD23RoundRect,0.250000X-0.337500X-0.475000X0.337500X-0.475000X0.337500X0.475000X-0.337500X0.475000X0*%
%ADD24O,1.500000X1.050000*%
%ADD25R,1.500000X1.050000*%
%ADD26C,2.000000*%
%ADD27C,1.700000*%
%ADD28R,1.700000X1.700000*%
%ADD29C,1.800000*%
%ADD30R,2.000000X2.000000*%
%ADD31RoundRect,0.150000X0.150000X-0.512500X0.150000X0.512500X-0.150000X0.512500X-0.150000X-0.512500X0*%
%ADD32O,1.800000X3.600000*%
%ADD33RoundRect,0.250000X-0.650000X-1.550000X0.650000X-1.550000X0.650000X1.550000X-0.650000X1.550000X0*%
%ADD34RoundRect,0.250000X-0.750000X0.750000X-0.750000X-0.750000X0.750000X-0.750000X0.750000X0.750000X0*%
G04 APERTURE END LIST*
D10*
%TO.C,Q3*%
X135437500Y-90000000D03*
X133562500Y-90950000D03*
X133562500Y-89050000D03*
%TD*%
D11*
%TO.C,D3*%
X135750000Y-68000000D03*
X135750000Y-72000000D03*
%TD*%
D12*
%TO.C,R8*%
X129400000Y-87100000D03*
X131400000Y-87100000D03*
%TD*%
D13*
%TO.C,R5*%
X139975000Y-86750000D03*
X137975000Y-86750000D03*
%TD*%
D14*
%TO.C,D5*%
X124780000Y-68000000D03*
D15*
X114620000Y-68000000D03*
%TD*%
D16*
%TO.C,R3*%
X134900000Y-83450000D03*
X134900000Y-81450000D03*
%TD*%
D17*
%TO.C,REF\u002A\u002A*%
X50000000Y-120000000D03*
%TD*%
D14*
%TO.C,D1*%
X150130000Y-113600000D03*
D15*
X139970000Y-113600000D03*
%TD*%
D18*
%TO.C,R1*%
X147400000Y-67800000D03*
X147400000Y-69800000D03*
%TD*%
D19*
%TO.C,L1*%
X135700000Y-64450000D03*
X135700000Y-56150000D03*
%TD*%
D10*
%TO.C,Q4*%
X143875000Y-89550000D03*
X142000000Y-90500000D03*
X142000000Y-88600000D03*
%TD*%
D20*
%TO.C,PS2*%
X104000000Y-80600000D03*
X104000000Y-58000000D03*
X61500000Y-73200000D03*
D21*
X61500000Y-65400000D03*
%TD*%
D22*
%TO.C,C1*%
X73750000Y-90000000D03*
X58750000Y-90000000D03*
%TD*%
D23*
%TO.C,C4*%
X140737500Y-74850000D03*
X138662500Y-74850000D03*
%TD*%
D17*
%TO.C,REF\u002A\u002A*%
X160000000Y-53000000D03*
%TD*%
D18*
%TO.C,R7*%
X131500000Y-68000000D03*
X131500000Y-70000000D03*
%TD*%
D24*
%TO.C,Q1*%
X130900000Y-82450000D03*
X130900000Y-81180000D03*
D25*
X130900000Y-79910000D03*
%TD*%
D17*
%TO.C,REF\u002A\u002A*%
X160000000Y-120000000D03*
%TD*%
D26*
%TO.C,F1*%
X58000000Y-103900000D03*
X78000000Y-103900000D03*
%TD*%
D27*
%TO.C,J4*%
X158500000Y-90000000D03*
X158500000Y-87460000D03*
X158500000Y-84920000D03*
D28*
X158500000Y-82380000D03*
%TD*%
D29*
%TO.C,RV1*%
X67500000Y-99100000D03*
X60000000Y-96400000D03*
%TD*%
D26*
%TO.C,K4*%
X123500000Y-74000000D03*
D30*
X116000000Y-74000000D03*
D26*
X123500000Y-99000000D03*
X123500000Y-89000000D03*
X123500000Y-94000000D03*
X116000000Y-99000000D03*
X116000000Y-89000000D03*
X116000000Y-94000000D03*
%TD*%
D16*
%TO.C,R9*%
X131300000Y-90900000D03*
X131300000Y-88900000D03*
%TD*%
D17*
%TO.C,REF\u002A\u002A*%
X50000000Y-53000000D03*
%TD*%
D18*
%TO.C,D4*%
X129000000Y-68000000D03*
X129000000Y-70000000D03*
%TD*%
D13*
%TO.C,R4*%
X136800000Y-79650000D03*
X134800000Y-79650000D03*
%TD*%
D31*
%TO.C,U1*%
X144300000Y-62450000D03*
X145250000Y-62450000D03*
X146200000Y-62450000D03*
X146200000Y-64725000D03*
X145250000Y-64725000D03*
X144300000Y-64725000D03*
%TD*%
D16*
%TO.C,R6*%
X139875000Y-90550000D03*
X139875000Y-88550000D03*
%TD*%
D32*
%TO.C,J5*%
X136052500Y-120750000D03*
D33*
X130972500Y-120750000D03*
%TD*%
D32*
%TO.C,J3*%
X122580000Y-120750000D03*
D33*
X117500000Y-120750000D03*
%TD*%
D23*
%TO.C,C3*%
X148625000Y-59750000D03*
X146550000Y-59750000D03*
%TD*%
D12*
%TO.C,R2*%
X142900000Y-67950000D03*
X144900000Y-67950000D03*
%TD*%
D26*
%TO.C,C2*%
X119250000Y-59632323D03*
D34*
X119250000Y-56132323D03*
%TD*%
D32*
%TO.C,J1*%
X147552500Y-120750000D03*
D33*
X142472500Y-120750000D03*
%TD*%
D32*
%TO.C,J2*%
X66000000Y-120750000D03*
D33*
X60920000Y-120750000D03*
%TD*%
M02*
