%TF.GenerationSoftware,KiCad,Pcbnew,9.0.7*%
%TF.CreationDate,2026-01-25T16:38:02+03:00*%
%TF.ProjectId,cactus_plate,63616374-7573-45f7-906c-6174652e6b69,rev?*%
%TF.SameCoordinates,Original*%
%TF.FileFunction,Copper,L2,Bot*%
%TF.FilePolarity,Positive*%
%FSLAX46Y46*%
G04 Gerber Fmt 4.6, Leading zero omitted, Abs format (unit mm)*
G04 Created by KiCad (PCBNEW 9.0.7) date 2026-01-25 16:38:02*
%MOMM*%
%LPD*%
G01*
G04 APERTURE LIST*
G04 Aperture macros list*
%AMRoundRect*
0 Rectangle with rounded corners*
0 $1 Rounding radius*
0 $2 $3 $4 $5 $6 $7 $8 $9 X,Y pos of 4 corners*
0 Add a 4 corners polygon primitive as box body*
4,1,4,$2,$3,$4,$5,$6,$7,$8,$9,$2,$3,0*
0 Add four circle primitives for the rounded corners*
1,1,$1+$1,$2,$3*
1,1,$1+$1,$4,$5*
1,1,$1+$1,$6,$7*
1,1,$1+$1,$8,$9*
0 Add four rect primitives between the rounded corners*
20,1,$1+$1,$2,$3,$4,$5,0*
20,1,$1+$1,$4,$5,$6,$7,0*
20,1,$1+$1,$6,$7,$8,$9,0*
20,1,$1+$1,$8,$9,$2,$3,0*%
G04 Aperture macros list end*
%TA.AperFunction,ComponentPad*%
%ADD10C,2.000000*%
%TD*%
%TA.AperFunction,ComponentPad*%
%ADD11C,13.000000*%
%TD*%
%TA.AperFunction,ComponentPad*%
%ADD12R,1.050000X1.500000*%
%TD*%
%TA.AperFunction,ComponentPad*%
%ADD13O,1.050000X1.500000*%
%TD*%
%TA.AperFunction,ComponentPad*%
%ADD14RoundRect,0.250000X-0.550000X-0.550000X0.550000X-0.550000X0.550000X0.550000X-0.550000X0.550000X0*%
%TD*%
%TA.AperFunction,ComponentPad*%
%ADD15C,1.600000*%
%TD*%
%TA.AperFunction,ComponentPad*%
%ADD16RoundRect,0.250000X-0.750000X-0.900000X0.750000X-0.900000X0.750000X0.900000X-0.750000X0.900000X0*%
%TD*%
%TA.AperFunction,ComponentPad*%
%ADD17O,2.000000X2.300000*%
%TD*%
%TA.AperFunction,ComponentPad*%
%ADD18R,1.700000X1.700000*%
%TD*%
%TA.AperFunction,ComponentPad*%
%ADD19C,1.700000*%
%TD*%
%TA.AperFunction,ComponentPad*%
%ADD20C,1.800000*%
%TD*%
%TA.AperFunction,ComponentPad*%
%ADD21R,2.000000X2.000000*%
%TD*%
%TA.AperFunction,ComponentPad*%
%ADD22RoundRect,0.250000X-0.650000X-1.550000X0.650000X-1.550000X0.650000X1.550000X-0.650000X1.550000X0*%
%TD*%
%TA.AperFunction,ComponentPad*%
%ADD23O,1.800000X3.600000*%
%TD*%
%TA.AperFunction,ComponentPad*%
%ADD24RoundRect,0.250000X-0.750000X-0.750000X0.750000X-0.750000X0.750000X0.750000X-0.750000X0.750000X0*%
%TD*%
%TA.AperFunction,ComponentPad*%
%ADD25RoundRect,0.250000X1.550000X-0.650000X1.550000X0.650000X-1.550000X0.650000X-1.550000X-0.650000X0*%
%TD*%
%TA.AperFunction,ComponentPad*%
%ADD26O,3.600000X1.800000*%
%TD*%
%TA.AperFunction,ViaPad*%
%ADD27C,0.600000*%
%TD*%
%TA.AperFunction,Conductor*%
%ADD28C,1.000000*%
%TD*%
%TA.AperFunction,Conductor*%
%ADD29C,0.500000*%
%TD*%
G04 APERTURE END LIST*
D10*
%TO.P,GND,1*%
%TO.N,GND*%
X111000000Y-63500000D03*
%TD*%
%TO.P,+12V,1*%
%TO.N,+12V*%
X111000000Y-57000000D03*
%TD*%
%TO.P,+5V,1*%
%TO.N,+5V*%
X102000000Y-57000000D03*
%TD*%
D11*
%TO.P,REF\u002A\u002A,1*%
%TO.N,N/C*%
X40000000Y-35000000D03*
%TD*%
%TO.P,REF\u002A\u002A,1*%
%TO.N,N/C*%
X155000000Y-35000000D03*
%TD*%
%TO.P,REF\u002A\u002A,1*%
%TO.N,N/C*%
X40000000Y-110000000D03*
%TD*%
%TO.P,REF\u002A\u002A,1*%
%TO.N,N/C*%
X155000000Y-110000000D03*
%TD*%
D12*
%TO.P,Q2,1,C*%
%TO.N,Net-(D2-A)*%
X131130000Y-60000000D03*
D13*
%TO.P,Q2,2,B*%
%TO.N,Net-(Q2-B)*%
X132400000Y-60000000D03*
%TO.P,Q2,3,E*%
%TO.N,GND*%
X133670000Y-60000000D03*
%TD*%
D14*
%TO.P,D1,1,K*%
%TO.N,+12V*%
X115940000Y-69000000D03*
D15*
%TO.P,D1,2,A*%
%TO.N,Net-(D1-A)*%
X123560000Y-69000000D03*
%TD*%
D16*
%TO.P,PS2,1,AC/L*%
%TO.N,LINE*%
X57500000Y-81800000D03*
D17*
%TO.P,PS2,2,AC/N*%
%TO.N,NEUT*%
X57500000Y-89600000D03*
%TO.P,PS2,3,-Vout*%
%TO.N,GND*%
X100000000Y-74400000D03*
%TO.P,PS2,4,+Vout*%
%TO.N,+5V*%
X100000000Y-97000000D03*
%TD*%
D15*
%TO.P,C1,1*%
%TO.N,LINE*%
X70500000Y-62500000D03*
%TO.P,C1,2*%
%TO.N,NEUT*%
X55500000Y-62500000D03*
%TD*%
D12*
%TO.P,Q1,1,C*%
%TO.N,Net-(D1-A)*%
X115960000Y-60000000D03*
D13*
%TO.P,Q1,2,B*%
%TO.N,Net-(Q1-B)*%
X117230000Y-60000000D03*
%TO.P,Q1,3,E*%
%TO.N,GND*%
X118500000Y-60000000D03*
%TD*%
D10*
%TO.P,F1,1*%
%TO.N,Net-(F1-Pad1)*%
X52500000Y-42100000D03*
%TO.P,F1,2*%
%TO.N,LINE*%
X72500000Y-42100000D03*
%TD*%
D18*
%TO.P,J4,1,Pin_1*%
%TO.N,+5V*%
X109380000Y-31000000D03*
D19*
%TO.P,J4,2,Pin_2*%
%TO.N,/GPIO_LIGHT*%
X111920000Y-31000000D03*
%TO.P,J4,3,Pin_3*%
%TO.N,/GPIO_PUMP*%
X114460000Y-31000000D03*
%TO.P,J4,4,Pin_4*%
%TO.N,GND*%
X117000000Y-31000000D03*
%TD*%
D20*
%TO.P,RV1,1*%
%TO.N,LINE*%
X66750000Y-52350000D03*
%TO.P,RV1,2*%
%TO.N,NEUT*%
X59250000Y-49650000D03*
%TD*%
D14*
%TO.P,D2,1,K*%
%TO.N,+12V*%
X130950000Y-69000000D03*
D15*
%TO.P,D2,2,A*%
%TO.N,Net-(D2-A)*%
X138570000Y-69000000D03*
%TD*%
D10*
%TO.P,K4,11*%
%TO.N,LINE*%
X116000000Y-94000000D03*
%TO.P,K4,12*%
%TO.N,unconnected-(K4-Pad12)*%
X116000000Y-89000000D03*
%TO.P,K4,14*%
%TO.N,LINE_OUT*%
X116000000Y-99000000D03*
%TO.P,K4,21*%
%TO.N,NEUT*%
X123500000Y-94000000D03*
%TO.P,K4,22*%
%TO.N,unconnected-(K4-Pad22)*%
X123500000Y-89000000D03*
%TO.P,K4,24*%
%TO.N,NEUT_OUT*%
X123500000Y-99000000D03*
D21*
%TO.P,K4,A1*%
%TO.N,+12V*%
X116000000Y-74000000D03*
D10*
%TO.P,K4,A2*%
%TO.N,Net-(D1-A)*%
X123500000Y-74000000D03*
%TD*%
%TO.P,K3,11*%
%TO.N,+5V*%
X138500000Y-94000000D03*
%TO.P,K3,12*%
%TO.N,unconnected-(K3-Pad12)*%
X131000000Y-90500000D03*
%TO.P,K3,14*%
%TO.N,+5V_OUT*%
X131000000Y-97500000D03*
D21*
%TO.P,K3,A1*%
%TO.N,+12V*%
X131000000Y-74000000D03*
D10*
%TO.P,K3,A2*%
%TO.N,Net-(D2-A)*%
X138500000Y-74000000D03*
%TD*%
D22*
%TO.P,J3,1*%
%TO.N,LINE_OUT*%
X117500000Y-110500000D03*
D23*
%TO.P,J3,2*%
%TO.N,NEUT_OUT*%
X122580000Y-110500000D03*
%TD*%
D24*
%TO.P,C2,1*%
%TO.N,+5V*%
X87700000Y-63050000D03*
D10*
%TO.P,C2,2*%
%TO.N,GND*%
X91200000Y-63050000D03*
%TD*%
D22*
%TO.P,J1,1*%
%TO.N,+5V_OUT*%
X132420000Y-110500000D03*
D23*
%TO.P,J1,2*%
%TO.N,GND*%
X137500000Y-110500000D03*
%TD*%
D25*
%TO.P,J2,1*%
%TO.N,NEUT*%
X41000000Y-55000000D03*
D26*
%TO.P,J2,2*%
%TO.N,Net-(F1-Pad1)*%
X41000000Y-49920000D03*
%TD*%
D27*
%TO.N,GND*%
X104000000Y-60000000D03*
X136000000Y-55000000D03*
X121000000Y-55000000D03*
X102000000Y-45000000D03*
X94000000Y-36000000D03*
X97000000Y-34000000D03*
X101000000Y-36000000D03*
X105000000Y-35000000D03*
X108000000Y-38000000D03*
X106000000Y-41000000D03*
X108000000Y-44000000D03*
%TO.N,+12V*%
X104300000Y-48950000D03*
X103500000Y-39700000D03*
%TD*%
D28*
%TO.N,NEUT*%
X120000000Y-100000000D02*
X120000000Y-96500000D01*
X122500000Y-94000000D02*
X123500000Y-94000000D01*
X111750000Y-108250000D02*
X120000000Y-100000000D01*
X57500000Y-89600000D02*
X76150000Y-108250000D01*
X76150000Y-108250000D02*
X111750000Y-108250000D01*
X120000000Y-96500000D02*
X122500000Y-94000000D01*
D29*
%TO.N,+12V*%
X103500000Y-39700000D02*
X104300000Y-40500000D01*
X104300000Y-40500000D02*
X104300000Y-48950000D01*
%TD*%
%TA.AperFunction,Conductor*%
%TO.N,GND*%
G36*
X162943039Y-26019685D02*
G01*
X162988794Y-26072489D01*
X163000000Y-26124000D01*
X163000000Y-116876000D01*
X162980315Y-116943039D01*
X162927511Y-116988794D01*
X162876000Y-117000000D01*
X156870661Y-117000000D01*
X156803622Y-116980315D01*
X156757867Y-116927511D01*
X156747923Y-116858353D01*
X156776948Y-116794797D01*
X156835726Y-116757023D01*
X156910616Y-116735032D01*
X157212164Y-116646490D01*
X157680683Y-116471742D01*
X157887437Y-116377320D01*
X158135530Y-116264021D01*
X158135534Y-116264018D01*
X158135542Y-116264015D01*
X158574423Y-116024368D01*
X158995089Y-115754022D01*
X158997311Y-115752358D01*
X159395389Y-115454362D01*
X159412131Y-115439854D01*
X159773307Y-115126894D01*
X160126894Y-114773307D01*
X160454355Y-114395397D01*
X160454354Y-114395397D01*
X160454362Y-114395389D01*
X160754019Y-113995093D01*
X160754035Y-113995069D01*
X160809126Y-113909345D01*
X161024368Y-113574423D01*
X161264015Y-113135542D01*
X161264018Y-113135534D01*
X161264021Y-113135530D01*
X161421819Y-112789999D01*
X161471742Y-112680683D01*
X161646490Y-112212164D01*
X161787370Y-111732373D01*
X161893663Y-111243754D01*
X161964827Y-110748796D01*
X162000500Y-110250023D01*
X162000500Y-109749977D01*
X161964827Y-109251204D01*
X161893663Y-108756246D01*
X161893662Y-108756239D01*
X161787372Y-108267634D01*
X161787369Y-108267624D01*
X161646490Y-107787836D01*
X161471742Y-107319317D01*
X161471741Y-107319316D01*
X161471739Y-107319309D01*
X161471737Y-107319306D01*
X161264021Y-106864469D01*
X161264017Y-106864462D01*
X161024369Y-106425579D01*
X161024361Y-106425566D01*
X160754035Y-106004930D01*
X160754019Y-106004906D01*
X160454362Y-105604610D01*
X160254877Y-105374393D01*
X160126894Y-105226693D01*
X160126884Y-105226683D01*
X160126872Y-105226670D01*
X159773329Y-104873127D01*
X159773316Y-104873115D01*
X159773307Y-104873106D01*
X159658493Y-104773619D01*
X159395389Y-104545637D01*
X158995093Y-104245980D01*
X158995069Y-104245964D01*
X158574433Y-103975638D01*
X158574420Y-103975630D01*
X158135537Y-103735982D01*
X158135530Y-103735978D01*
X157680693Y-103528262D01*
X157680690Y-103528260D01*
X157355858Y-103407105D01*
X157212164Y-103353510D01*
X157055274Y-103307442D01*
X156732375Y-103212630D01*
X156732365Y-103212627D01*
X156243760Y-103106337D01*
X155748796Y-103035173D01*
X155250025Y-102999500D01*
X155250023Y-102999500D01*
X154749977Y-102999500D01*
X154749974Y-102999500D01*
X154251203Y-103035173D01*
X153756239Y-103106337D01*
X153267634Y-103212627D01*
X153267624Y-103212630D01*
X152787853Y-103353505D01*
X152787836Y-103353510D01*
X152787826Y-103353513D01*
X152787825Y-103353514D01*
X152319309Y-103528260D01*
X152319306Y-103528262D01*
X151864469Y-103735978D01*
X151864462Y-103735982D01*
X151425579Y-103975630D01*
X151425566Y-103975638D01*
X151004930Y-104245964D01*
X151004906Y-104245980D01*
X150604610Y-104545637D01*
X150226696Y-104873103D01*
X150226670Y-104873127D01*
X149873127Y-105226670D01*
X149873103Y-105226696D01*
X149545637Y-105604610D01*
X149245980Y-106004906D01*
X149245964Y-106004930D01*
X148975638Y-106425566D01*
X148975630Y-106425579D01*
X148735982Y-106864462D01*
X148735978Y-106864469D01*
X148528262Y-107319306D01*
X148528260Y-107319309D01*
X148353514Y-107787825D01*
X148353505Y-107787853D01*
X148212630Y-108267624D01*
X148212627Y-108267634D01*
X148106337Y-108756239D01*
X148035173Y-109251203D01*
X147999500Y-109749974D01*
X147999500Y-110250025D01*
X148035173Y-110748796D01*
X148106337Y-111243760D01*
X148212627Y-111732365D01*
X148212630Y-111732375D01*
X148272892Y-111937606D01*
X148353510Y-112212164D01*
X148353514Y-112212174D01*
X148528260Y-112680690D01*
X148528262Y-112680693D01*
X148735978Y-113135530D01*
X148735982Y-113135537D01*
X148975630Y-113574420D01*
X148975638Y-113574433D01*
X149245964Y-113995069D01*
X149245980Y-113995093D01*
X149545637Y-114395389D01*
X149773619Y-114658493D01*
X149873106Y-114773307D01*
X149873115Y-114773316D01*
X149873127Y-114773329D01*
X150226670Y-115126872D01*
X150226683Y-115126884D01*
X150226693Y-115126894D01*
X150374393Y-115254877D01*
X150604610Y-115454362D01*
X151004906Y-115754019D01*
X151004930Y-115754035D01*
X151425566Y-116024361D01*
X151425579Y-116024369D01*
X151864462Y-116264017D01*
X151864469Y-116264021D01*
X152319306Y-116471737D01*
X152319309Y-116471739D01*
X152319316Y-116471741D01*
X152319317Y-116471742D01*
X152787836Y-116646490D01*
X153072608Y-116730107D01*
X153164274Y-116757023D01*
X153223052Y-116794798D01*
X153252077Y-116858353D01*
X153242133Y-116927512D01*
X153196378Y-116980316D01*
X153129339Y-117000000D01*
X128124000Y-117000000D01*
X128056961Y-116980315D01*
X128011206Y-116927511D01*
X128000000Y-116876000D01*
X128000000Y-108899983D01*
X131019500Y-108899983D01*
X131019500Y-112100001D01*
X131019501Y-112100018D01*
X131030000Y-112202796D01*
X131030001Y-112202799D01*
X131033108Y-112212174D01*
X131085186Y-112369334D01*
X131177288Y-112518656D01*
X131301344Y-112642712D01*
X131450666Y-112734814D01*
X131617203Y-112789999D01*
X131719991Y-112800500D01*
X133120008Y-112800499D01*
X133222797Y-112789999D01*
X133389334Y-112734814D01*
X133538656Y-112642712D01*
X133662712Y-112518656D01*
X133754814Y-112369334D01*
X133809999Y-112202797D01*
X133820500Y-112100009D01*
X133820499Y-109489818D01*
X136100000Y-109489818D01*
X136100000Y-110250000D01*
X136951518Y-110250000D01*
X136940889Y-110268409D01*
X136900000Y-110421009D01*
X136900000Y-110578991D01*
X136940889Y-110731591D01*
X136951518Y-110750000D01*
X136100000Y-110750000D01*
X136100000Y-111510181D01*
X136134473Y-111727835D01*
X136202567Y-111937410D01*
X136302613Y-112133760D01*
X136432142Y-112312041D01*
X136587958Y-112467857D01*
X136766239Y-112597386D01*
X136962589Y-112697432D01*
X137172163Y-112765526D01*
X137249999Y-112777854D01*
X137250000Y-112777854D01*
X137250000Y-111048482D01*
X137268409Y-111059111D01*
X137421009Y-111100000D01*
X137578991Y-111100000D01*
X137731591Y-111059111D01*
X137750000Y-111048482D01*
X137750000Y-112777854D01*
X137827834Y-112765526D01*
X137827837Y-112765526D01*
X138037410Y-112697432D01*
X138233760Y-112597386D01*
X138412041Y-112467857D01*
X138567857Y-112312041D01*
X138697386Y-112133760D01*
X138797432Y-111937410D01*
X138865526Y-111727835D01*
X138900000Y-111510181D01*
X138900000Y-110750000D01*
X138048482Y-110750000D01*
X138059111Y-110731591D01*
X138100000Y-110578991D01*
X138100000Y-110421009D01*
X138059111Y-110268409D01*
X138048482Y-110250000D01*
X138900000Y-110250000D01*
X138900000Y-109489818D01*
X138865526Y-109272164D01*
X138797432Y-109062589D01*
X138697386Y-108866239D01*
X138567857Y-108687958D01*
X138412041Y-108532142D01*
X138233760Y-108402613D01*
X138037410Y-108302567D01*
X137827836Y-108234473D01*
X137750000Y-108222144D01*
X137750000Y-109951517D01*
X137731591Y-109940889D01*
X137578991Y-109900000D01*
X137421009Y-109900000D01*
X137268409Y-109940889D01*
X137250000Y-109951517D01*
X137250000Y-108222144D01*
X137172164Y-108234473D01*
X137172161Y-108234473D01*
X136962589Y-108302567D01*
X136766239Y-108402613D01*
X136587958Y-108532142D01*
X136432142Y-108687958D01*
X136302613Y-108866239D01*
X136202567Y-109062589D01*
X136134473Y-109272164D01*
X136100000Y-109489818D01*
X133820499Y-109489818D01*
X133820499Y-108899992D01*
X133817024Y-108865978D01*
X133809999Y-108797203D01*
X133809998Y-108797200D01*
X133785713Y-108723914D01*
X133754814Y-108630666D01*
X133662712Y-108481344D01*
X133538656Y-108357288D01*
X133389334Y-108265186D01*
X133222797Y-108210001D01*
X133222795Y-108210000D01*
X133120010Y-108199500D01*
X131719998Y-108199500D01*
X131719981Y-108199501D01*
X131617203Y-108210000D01*
X131617200Y-108210001D01*
X131450668Y-108265185D01*
X131450663Y-108265187D01*
X131301342Y-108357289D01*
X131177289Y-108481342D01*
X131085187Y-108630663D01*
X131085186Y-108630666D01*
X131030001Y-108797203D01*
X131030001Y-108797204D01*
X131030000Y-108797204D01*
X131019500Y-108899983D01*
X128000000Y-108899983D01*
X128000000Y-97381902D01*
X129499500Y-97381902D01*
X129499500Y-97618097D01*
X129536446Y-97851368D01*
X129609433Y-98075996D01*
X129679530Y-98213567D01*
X129716657Y-98286433D01*
X129855483Y-98477510D01*
X130022490Y-98644517D01*
X130213567Y-98783343D01*
X130312991Y-98834002D01*
X130424003Y-98890566D01*
X130424005Y-98890566D01*
X130424008Y-98890568D01*
X130544412Y-98929689D01*
X130648631Y-98963553D01*
X130881903Y-99000500D01*
X130881908Y-99000500D01*
X131118097Y-99000500D01*
X131351368Y-98963553D01*
X131575992Y-98890568D01*
X131786433Y-98783343D01*
X131977510Y-98644517D01*
X132144517Y-98477510D01*
X132283343Y-98286433D01*
X132390568Y-98075992D01*
X132463553Y-97851368D01*
X132483410Y-97725996D01*
X132500500Y-97618097D01*
X132500500Y-97381902D01*
X132463553Y-97148631D01*
X132390566Y-96924003D01*
X132283342Y-96713566D01*
X132144517Y-96522490D01*
X131977510Y-96355483D01*
X131786433Y-96216657D01*
X131769767Y-96208165D01*
X131575996Y-96109433D01*
X131351368Y-96036446D01*
X131118097Y-95999500D01*
X131118092Y-95999500D01*
X130881908Y-95999500D01*
X130881903Y-95999500D01*
X130648631Y-96036446D01*
X130424003Y-96109433D01*
X130213566Y-96216657D01*
X130134637Y-96274003D01*
X130022490Y-96355483D01*
X130022488Y-96355485D01*
X130022487Y-96355485D01*
X129855485Y-96522487D01*
X129855485Y-96522488D01*
X129855483Y-96522490D01*
X129795862Y-96604550D01*
X129716657Y-96713566D01*
X129609433Y-96924003D01*
X129536446Y-97148631D01*
X129499500Y-97381902D01*
X128000000Y-97381902D01*
X128000000Y-93881902D01*
X136999500Y-93881902D01*
X136999500Y-94118097D01*
X137036446Y-94351368D01*
X137109433Y-94575996D01*
X137216657Y-94786433D01*
X137355483Y-94977510D01*
X137522490Y-95144517D01*
X137713567Y-95283343D01*
X137812991Y-95334002D01*
X137924003Y-95390566D01*
X137924005Y-95390566D01*
X137924008Y-95390568D01*
X138044412Y-95429689D01*
X138148631Y-95463553D01*
X138381903Y-95500500D01*
X138381908Y-95500500D01*
X138618097Y-95500500D01*
X138851368Y-95463553D01*
X138864051Y-95459432D01*
X139075992Y-95390568D01*
X139286433Y-95283343D01*
X139477510Y-95144517D01*
X139644517Y-94977510D01*
X139783343Y-94786433D01*
X139890568Y-94575992D01*
X139963553Y-94351368D01*
X140000500Y-94118097D01*
X140000500Y-93881902D01*
X139963553Y-93648631D01*
X139890566Y-93424003D01*
X139834002Y-93312991D01*
X139783343Y-93213567D01*
X139644517Y-93022490D01*
X139477510Y-92855483D01*
X139286433Y-92716657D01*
X139075996Y-92609433D01*
X138851368Y-92536446D01*
X138618097Y-92499500D01*
X138618092Y-92499500D01*
X138381908Y-92499500D01*
X138381903Y-92499500D01*
X138148631Y-92536446D01*
X137924003Y-92609433D01*
X137713566Y-92716657D01*
X137604550Y-92795862D01*
X137522490Y-92855483D01*
X137522488Y-92855485D01*
X137522487Y-92855485D01*
X137355485Y-93022487D01*
X137355485Y-93022488D01*
X137355483Y-93022490D01*
X137328203Y-93060038D01*
X137216657Y-93213566D01*
X137109433Y-93424003D01*
X137036446Y-93648631D01*
X136999500Y-93881902D01*
X128000000Y-93881902D01*
X128000000Y-90381902D01*
X129499500Y-90381902D01*
X129499500Y-90618097D01*
X129536446Y-90851368D01*
X129609433Y-91075996D01*
X129716657Y-91286433D01*
X129855483Y-91477510D01*
X130022490Y-91644517D01*
X130213567Y-91783343D01*
X130312991Y-91834002D01*
X130424003Y-91890566D01*
X130424005Y-91890566D01*
X130424008Y-91890568D01*
X130544412Y-91929689D01*
X130648631Y-91963553D01*
X130881903Y-92000500D01*
X130881908Y-92000500D01*
X131118097Y-92000500D01*
X131351368Y-91963553D01*
X131575992Y-91890568D01*
X131786433Y-91783343D01*
X131977510Y-91644517D01*
X132144517Y-91477510D01*
X132283343Y-91286433D01*
X132390568Y-91075992D01*
X132463553Y-90851368D01*
X132500500Y-90618097D01*
X132500500Y-90381902D01*
X132463553Y-90148631D01*
X132390566Y-89924003D01*
X132283342Y-89713566D01*
X132144517Y-89522490D01*
X131977510Y-89355483D01*
X131786433Y-89216657D01*
X131575996Y-89109433D01*
X131351368Y-89036446D01*
X131118097Y-88999500D01*
X131118092Y-88999500D01*
X130881908Y-88999500D01*
X130881903Y-88999500D01*
X130648631Y-89036446D01*
X130424003Y-89109433D01*
X130213566Y-89216657D01*
X130104550Y-89295862D01*
X130022490Y-89355483D01*
X130022488Y-89355485D01*
X130022487Y-89355485D01*
X129855485Y-89522487D01*
X129855485Y-89522488D01*
X129855483Y-89522490D01*
X129795862Y-89604550D01*
X129716657Y-89713566D01*
X129609433Y-89924003D01*
X129536446Y-90148631D01*
X129499500Y-90381902D01*
X128000000Y-90381902D01*
X128000000Y-88000000D01*
X123000000Y-82000000D01*
X107500000Y-82000000D01*
X107499999Y-82000000D01*
X103000000Y-86499999D01*
X103000000Y-99876000D01*
X102980315Y-99943039D01*
X102927511Y-99988794D01*
X102876000Y-100000000D01*
X85059598Y-100000000D01*
X84992559Y-99980315D01*
X84962770Y-99953462D01*
X82443599Y-96804498D01*
X82385522Y-96731902D01*
X98499500Y-96731902D01*
X98499500Y-97268097D01*
X98536446Y-97501368D01*
X98609433Y-97725996D01*
X98673314Y-97851368D01*
X98716657Y-97936433D01*
X98855483Y-98127510D01*
X99022490Y-98294517D01*
X99213567Y-98433343D01*
X99300250Y-98477510D01*
X99424003Y-98540566D01*
X99424005Y-98540566D01*
X99424008Y-98540568D01*
X99544412Y-98579689D01*
X99648631Y-98613553D01*
X99881903Y-98650500D01*
X99881908Y-98650500D01*
X100118097Y-98650500D01*
X100351368Y-98613553D01*
X100575992Y-98540568D01*
X100786433Y-98433343D01*
X100977510Y-98294517D01*
X101144517Y-98127510D01*
X101283343Y-97936433D01*
X101390568Y-97725992D01*
X101463553Y-97501368D01*
X101463849Y-97499500D01*
X101500500Y-97268097D01*
X101500500Y-96731902D01*
X101463553Y-96498631D01*
X101429689Y-96394412D01*
X101390568Y-96274008D01*
X101390566Y-96274005D01*
X101390566Y-96274003D01*
X101283342Y-96063566D01*
X101236795Y-95999500D01*
X101144517Y-95872490D01*
X100977510Y-95705483D01*
X100786433Y-95566657D01*
X100575996Y-95459433D01*
X100351368Y-95386446D01*
X100118097Y-95349500D01*
X100118092Y-95349500D01*
X99881908Y-95349500D01*
X99881903Y-95349500D01*
X99648631Y-95386446D01*
X99424003Y-95459433D01*
X99213566Y-95566657D01*
X99104550Y-95645862D01*
X99022490Y-95705483D01*
X99022488Y-95705485D01*
X99022487Y-95705485D01*
X98855485Y-95872487D01*
X98855485Y-95872488D01*
X98855483Y-95872490D01*
X98795862Y-95954550D01*
X98716657Y-96063566D01*
X98609433Y-96274003D01*
X98536446Y-96498631D01*
X98499500Y-96731902D01*
X82385522Y-96731902D01*
X81027172Y-95033965D01*
X81000664Y-94969319D01*
X81000000Y-94956503D01*
X81000000Y-74131947D01*
X98500000Y-74131947D01*
X98500000Y-74150000D01*
X99399999Y-74150000D01*
X99374979Y-74210402D01*
X99350000Y-74335981D01*
X99350000Y-74464019D01*
X99374979Y-74589598D01*
X99399999Y-74650000D01*
X98500000Y-74650000D01*
X98500000Y-74668052D01*
X98536934Y-74901247D01*
X98609897Y-75125802D01*
X98717085Y-75336171D01*
X98855866Y-75527186D01*
X99022813Y-75694133D01*
X99213828Y-75832914D01*
X99424195Y-75940102D01*
X99648744Y-76013063D01*
X99648750Y-76013065D01*
X99750000Y-76029101D01*
X99750000Y-75000001D01*
X99810402Y-75025021D01*
X99935981Y-75050000D01*
X100064019Y-75050000D01*
X100189598Y-75025021D01*
X100250000Y-75000001D01*
X100250000Y-76029100D01*
X100351249Y-76013065D01*
X100351255Y-76013063D01*
X100575804Y-75940102D01*
X100786171Y-75832914D01*
X100977186Y-75694133D01*
X101144133Y-75527186D01*
X101282914Y-75336171D01*
X101390102Y-75125802D01*
X101463065Y-74901247D01*
X101500000Y-74668052D01*
X101500000Y-74650000D01*
X100600001Y-74650000D01*
X100625021Y-74589598D01*
X100650000Y-74464019D01*
X100650000Y-74335981D01*
X100625021Y-74210402D01*
X100600001Y-74150000D01*
X101500000Y-74150000D01*
X101500000Y-74131947D01*
X101463065Y-73898752D01*
X101390102Y-73674197D01*
X101282914Y-73463828D01*
X101144133Y-73272813D01*
X100977186Y-73105866D01*
X100977180Y-73105861D01*
X100899103Y-73049135D01*
X100899087Y-73049124D01*
X100786171Y-72967085D01*
X100756830Y-72952135D01*
X114499500Y-72952135D01*
X114499500Y-75047870D01*
X114499501Y-75047876D01*
X114505908Y-75107483D01*
X114556202Y-75242328D01*
X114556206Y-75242335D01*
X114642452Y-75357544D01*
X114642455Y-75357547D01*
X114757664Y-75443793D01*
X114757671Y-75443797D01*
X114892517Y-75494091D01*
X114892516Y-75494091D01*
X114899444Y-75494835D01*
X114952127Y-75500500D01*
X117047872Y-75500499D01*
X117107483Y-75494091D01*
X117242331Y-75443796D01*
X117357546Y-75357546D01*
X117443796Y-75242331D01*
X117494091Y-75107483D01*
X117500500Y-75047873D01*
X117500499Y-73881902D01*
X121999500Y-73881902D01*
X121999500Y-74118097D01*
X122036446Y-74351368D01*
X122109433Y-74575996D01*
X122176637Y-74707890D01*
X122216657Y-74786433D01*
X122355483Y-74977510D01*
X122522490Y-75144517D01*
X122713567Y-75283343D01*
X122812991Y-75334002D01*
X122924003Y-75390566D01*
X122924005Y-75390566D01*
X122924008Y-75390568D01*
X123044412Y-75429689D01*
X123148631Y-75463553D01*
X123381903Y-75500500D01*
X123381908Y-75500500D01*
X123618097Y-75500500D01*
X123851368Y-75463553D01*
X124075992Y-75390568D01*
X124286433Y-75283343D01*
X124477510Y-75144517D01*
X124644517Y-74977510D01*
X124783343Y-74786433D01*
X124890568Y-74575992D01*
X124963553Y-74351368D01*
X124985880Y-74210402D01*
X125000500Y-74118097D01*
X125000500Y-73881902D01*
X124963553Y-73648631D01*
X124890566Y-73424003D01*
X124783342Y-73213566D01*
X124705093Y-73105866D01*
X124644517Y-73022490D01*
X124574162Y-72952135D01*
X129499500Y-72952135D01*
X129499500Y-75047870D01*
X129499501Y-75047876D01*
X129505908Y-75107483D01*
X129556202Y-75242328D01*
X129556206Y-75242335D01*
X129642452Y-75357544D01*
X129642455Y-75357547D01*
X129757664Y-75443793D01*
X129757671Y-75443797D01*
X129892517Y-75494091D01*
X129892516Y-75494091D01*
X129899444Y-75494835D01*
X129952127Y-75500500D01*
X132047872Y-75500499D01*
X132107483Y-75494091D01*
X132242331Y-75443796D01*
X132357546Y-75357546D01*
X132443796Y-75242331D01*
X132494091Y-75107483D01*
X132500500Y-75047873D01*
X132500499Y-73881902D01*
X136999500Y-73881902D01*
X136999500Y-74118097D01*
X137036446Y-74351368D01*
X137109433Y-74575996D01*
X137176637Y-74707890D01*
X137216657Y-74786433D01*
X137355483Y-74977510D01*
X137522490Y-75144517D01*
X137713567Y-75283343D01*
X137812991Y-75334002D01*
X137924003Y-75390566D01*
X137924005Y-75390566D01*
X137924008Y-75390568D01*
X138044412Y-75429689D01*
X138148631Y-75463553D01*
X138381903Y-75500500D01*
X138381908Y-75500500D01*
X138618097Y-75500500D01*
X138851368Y-75463553D01*
X139075992Y-75390568D01*
X139286433Y-75283343D01*
X139477510Y-75144517D01*
X139644517Y-74977510D01*
X139783343Y-74786433D01*
X139890568Y-74575992D01*
X139963553Y-74351368D01*
X139985880Y-74210402D01*
X140000500Y-74118097D01*
X140000500Y-73881902D01*
X139963553Y-73648631D01*
X139890566Y-73424003D01*
X139783342Y-73213566D01*
X139644517Y-73022490D01*
X139477510Y-72855483D01*
X139286433Y-72716657D01*
X139075996Y-72609433D01*
X138851368Y-72536446D01*
X138618097Y-72499500D01*
X138618092Y-72499500D01*
X138381908Y-72499500D01*
X138381903Y-72499500D01*
X138148631Y-72536446D01*
X137924003Y-72609433D01*
X137713566Y-72716657D01*
X137657119Y-72757669D01*
X137522490Y-72855483D01*
X137522488Y-72855485D01*
X137522487Y-72855485D01*
X137355485Y-73022487D01*
X137355485Y-73022488D01*
X137355483Y-73022490D01*
X137295862Y-73104550D01*
X137216657Y-73213566D01*
X137109433Y-73424003D01*
X137036446Y-73648631D01*
X136999500Y-73881902D01*
X132500499Y-73881902D01*
X132500499Y-72952128D01*
X132494091Y-72892517D01*
X132480278Y-72855483D01*
X132443797Y-72757671D01*
X132443793Y-72757664D01*
X132357547Y-72642455D01*
X132357544Y-72642452D01*
X132242335Y-72556206D01*
X132242328Y-72556202D01*
X132107482Y-72505908D01*
X132107483Y-72505908D01*
X132047883Y-72499501D01*
X132047881Y-72499500D01*
X132047873Y-72499500D01*
X132047864Y-72499500D01*
X129952129Y-72499500D01*
X129952123Y-72499501D01*
X129892516Y-72505908D01*
X129757671Y-72556202D01*
X129757664Y-72556206D01*
X129642455Y-72642452D01*
X129642452Y-72642455D01*
X129556206Y-72757664D01*
X129556202Y-72757671D01*
X129505908Y-72892517D01*
X129499501Y-72952116D01*
X129499501Y-72952123D01*
X129499500Y-72952135D01*
X124574162Y-72952135D01*
X124477510Y-72855483D01*
X124286433Y-72716657D01*
X124075996Y-72609433D01*
X123851368Y-72536446D01*
X123618097Y-72499500D01*
X123618092Y-72499500D01*
X123381908Y-72499500D01*
X123381903Y-72499500D01*
X123148631Y-72536446D01*
X122924003Y-72609433D01*
X122713566Y-72716657D01*
X122657119Y-72757669D01*
X122522490Y-72855483D01*
X122522488Y-72855485D01*
X122522487Y-72855485D01*
X122355485Y-73022487D01*
X122355485Y-73022488D01*
X122355483Y-73022490D01*
X122295862Y-73104550D01*
X122216657Y-73213566D01*
X122109433Y-73424003D01*
X122036446Y-73648631D01*
X121999500Y-73881902D01*
X117500499Y-73881902D01*
X117500499Y-72952128D01*
X117494091Y-72892517D01*
X117480278Y-72855483D01*
X117443797Y-72757671D01*
X117443793Y-72757664D01*
X117357547Y-72642455D01*
X117357544Y-72642452D01*
X117242335Y-72556206D01*
X117242328Y-72556202D01*
X117107482Y-72505908D01*
X117107483Y-72505908D01*
X117047883Y-72499501D01*
X117047881Y-72499500D01*
X117047873Y-72499500D01*
X117047864Y-72499500D01*
X114952129Y-72499500D01*
X114952123Y-72499501D01*
X114892516Y-72505908D01*
X114757671Y-72556202D01*
X114757664Y-72556206D01*
X114642455Y-72642452D01*
X114642452Y-72642455D01*
X114556206Y-72757664D01*
X114556202Y-72757671D01*
X114505908Y-72892517D01*
X114499501Y-72952116D01*
X114499501Y-72952123D01*
X114499500Y-72952135D01*
X100756830Y-72952135D01*
X100575802Y-72859897D01*
X100351247Y-72786934D01*
X100250000Y-72770897D01*
X100250000Y-73799998D01*
X100189598Y-73774979D01*
X100064019Y-73750000D01*
X99935981Y-73750000D01*
X99810402Y-73774979D01*
X99750000Y-73799998D01*
X99750000Y-72770897D01*
X99648752Y-72786934D01*
X99424197Y-72859897D01*
X99213828Y-72967085D01*
X99022813Y-73105866D01*
X98855866Y-73272813D01*
X98717085Y-73463828D01*
X98609897Y-73674197D01*
X98536934Y-73898752D01*
X98500000Y-74131947D01*
X81000000Y-74131947D01*
X81000000Y-68399983D01*
X114639500Y-68399983D01*
X114639500Y-69600001D01*
X114639501Y-69600018D01*
X114650000Y-69702796D01*
X114650001Y-69702799D01*
X114697856Y-69847213D01*
X114705186Y-69869334D01*
X114797288Y-70018656D01*
X114921344Y-70142712D01*
X115070666Y-70234814D01*
X115237203Y-70289999D01*
X115339991Y-70300500D01*
X116540008Y-70300499D01*
X116642797Y-70289999D01*
X116809334Y-70234814D01*
X116958656Y-70142712D01*
X117082712Y-70018656D01*
X117174814Y-69869334D01*
X117229999Y-69702797D01*
X117240500Y-69600009D01*
X117240499Y-68897648D01*
X122259500Y-68897648D01*
X122259500Y-69102351D01*
X122291522Y-69304534D01*
X122354781Y-69499223D01*
X122447715Y-69681613D01*
X122568028Y-69847213D01*
X122712786Y-69991971D01*
X122867749Y-70104556D01*
X122878390Y-70112287D01*
X122994607Y-70171503D01*
X123060776Y-70205218D01*
X123060778Y-70205218D01*
X123060781Y-70205220D01*
X123151856Y-70234812D01*
X123255465Y-70268477D01*
X123356557Y-70284488D01*
X123457648Y-70300500D01*
X123457649Y-70300500D01*
X123662351Y-70300500D01*
X123662352Y-70300500D01*
X123864534Y-70268477D01*
X124059219Y-70205220D01*
X124241610Y-70112287D01*
X124370482Y-70018657D01*
X124407213Y-69991971D01*
X124407215Y-69991968D01*
X124407219Y-69991966D01*
X124551966Y-69847219D01*
X124551968Y-69847215D01*
X124551971Y-69847213D01*
X124656892Y-69702799D01*
X124672287Y-69681610D01*
X124765220Y-69499219D01*
X124828477Y-69304534D01*
X124860500Y-69102352D01*
X124860500Y-68897648D01*
X124828477Y-68695466D01*
X124765220Y-68500781D01*
X124765218Y-68500778D01*
X124765218Y-68500776D01*
X124740940Y-68453129D01*
X124713861Y-68399983D01*
X129649500Y-68399983D01*
X129649500Y-69600001D01*
X129649501Y-69600018D01*
X129660000Y-69702796D01*
X129660001Y-69702799D01*
X129707856Y-69847213D01*
X129715186Y-69869334D01*
X129807288Y-70018656D01*
X129931344Y-70142712D01*
X130080666Y-70234814D01*
X130247203Y-70289999D01*
X130349991Y-70300500D01*
X131550008Y-70300499D01*
X131652797Y-70289999D01*
X131819334Y-70234814D01*
X131968656Y-70142712D01*
X132092712Y-70018656D01*
X132184814Y-69869334D01*
X132239999Y-69702797D01*
X132250500Y-69600009D01*
X132250499Y-68897648D01*
X137269500Y-68897648D01*
X137269500Y-69102351D01*
X137301522Y-69304534D01*
X137364781Y-69499223D01*
X137457715Y-69681613D01*
X137578028Y-69847213D01*
X137722786Y-69991971D01*
X137877749Y-70104556D01*
X137888390Y-70112287D01*
X138004607Y-70171503D01*
X138070776Y-70205218D01*
X138070778Y-70205218D01*
X138070781Y-70205220D01*
X138161856Y-70234812D01*
X138265465Y-70268477D01*
X138366557Y-70284488D01*
X138467648Y-70300500D01*
X138467649Y-70300500D01*
X138672351Y-70300500D01*
X138672352Y-70300500D01*
X138874534Y-70268477D01*
X139069219Y-70205220D01*
X139251610Y-70112287D01*
X139380482Y-70018657D01*
X139417213Y-69991971D01*
X139417215Y-69991968D01*
X139417219Y-69991966D01*
X139561966Y-69847219D01*
X139561968Y-69847215D01*
X139561971Y-69847213D01*
X139666892Y-69702799D01*
X139682287Y-69681610D01*
X139775220Y-69499219D01*
X139838477Y-69304534D01*
X139870500Y-69102352D01*
X139870500Y-68897648D01*
X139838477Y-68695466D01*
X139775220Y-68500781D01*
X139775218Y-68500778D01*
X139775218Y-68500776D01*
X139723865Y-68399991D01*
X139682287Y-68318390D01*
X139666892Y-68297200D01*
X139561971Y-68152786D01*
X139417213Y-68008028D01*
X139251613Y-67887715D01*
X139251612Y-67887714D01*
X139251610Y-67887713D01*
X139191898Y-67857288D01*
X139069223Y-67794781D01*
X138874534Y-67731522D01*
X138699995Y-67703878D01*
X138672352Y-67699500D01*
X138467648Y-67699500D01*
X138443329Y-67703351D01*
X138265465Y-67731522D01*
X138070776Y-67794781D01*
X137888386Y-67887715D01*
X137722786Y-68008028D01*
X137578028Y-68152786D01*
X137457715Y-68318386D01*
X137364781Y-68500776D01*
X137301522Y-68695465D01*
X137269500Y-68897648D01*
X132250499Y-68897648D01*
X132250499Y-68399992D01*
X132239999Y-68297203D01*
X132184814Y-68130666D01*
X132092712Y-67981344D01*
X131968656Y-67857288D01*
X131819334Y-67765186D01*
X131652797Y-67710001D01*
X131652795Y-67710000D01*
X131550010Y-67699500D01*
X130349998Y-67699500D01*
X130349981Y-67699501D01*
X130247203Y-67710000D01*
X130247200Y-67710001D01*
X130080668Y-67765185D01*
X130080663Y-67765187D01*
X129931342Y-67857289D01*
X129807289Y-67981342D01*
X129715187Y-68130663D01*
X129715186Y-68130666D01*
X129660001Y-68297203D01*
X129660001Y-68297204D01*
X129660000Y-68297204D01*
X129649500Y-68399983D01*
X124713861Y-68399983D01*
X124672284Y-68318385D01*
X124551971Y-68152786D01*
X124407213Y-68008028D01*
X124241613Y-67887715D01*
X124241612Y-67887714D01*
X124241610Y-67887713D01*
X124181898Y-67857288D01*
X124059223Y-67794781D01*
X123864534Y-67731522D01*
X123689995Y-67703878D01*
X123662352Y-67699500D01*
X123457648Y-67699500D01*
X123433329Y-67703351D01*
X123255465Y-67731522D01*
X123060776Y-67794781D01*
X122878386Y-67887715D01*
X122712786Y-68008028D01*
X122568028Y-68152786D01*
X122447715Y-68318386D01*
X122354781Y-68500776D01*
X122291522Y-68695465D01*
X122259500Y-68897648D01*
X117240499Y-68897648D01*
X117240499Y-68399992D01*
X117229999Y-68297203D01*
X117174814Y-68130666D01*
X117082712Y-67981344D01*
X116958656Y-67857288D01*
X116809334Y-67765186D01*
X116642797Y-67710001D01*
X116642795Y-67710000D01*
X116540010Y-67699500D01*
X115339998Y-67699500D01*
X115339981Y-67699501D01*
X115237203Y-67710000D01*
X115237200Y-67710001D01*
X115070668Y-67765185D01*
X115070663Y-67765187D01*
X114921342Y-67857289D01*
X114797289Y-67981342D01*
X114705187Y-68130663D01*
X114705186Y-68130666D01*
X114650001Y-68297203D01*
X114650001Y-68297204D01*
X114650000Y-68297204D01*
X114639500Y-68399983D01*
X81000000Y-68399983D01*
X81000000Y-62249983D01*
X86199500Y-62249983D01*
X86199500Y-63850001D01*
X86199501Y-63850018D01*
X86210000Y-63952796D01*
X86210001Y-63952799D01*
X86250761Y-64075802D01*
X86265186Y-64119334D01*
X86357288Y-64268656D01*
X86481344Y-64392712D01*
X86630666Y-64484814D01*
X86797203Y-64539999D01*
X86899991Y-64550500D01*
X88500008Y-64550499D01*
X88602797Y-64539999D01*
X88769334Y-64484814D01*
X88918656Y-64392712D01*
X89042712Y-64268656D01*
X89134814Y-64119334D01*
X89189999Y-63952797D01*
X89200500Y-63850009D01*
X89200499Y-62931947D01*
X89700000Y-62931947D01*
X89700000Y-63168052D01*
X89736934Y-63401247D01*
X89809897Y-63625802D01*
X89917087Y-63836174D01*
X89977338Y-63919104D01*
X89977340Y-63919105D01*
X90717037Y-63179408D01*
X90734075Y-63242993D01*
X90799901Y-63357007D01*
X90892993Y-63450099D01*
X91007007Y-63515925D01*
X91070590Y-63532962D01*
X90330893Y-64272658D01*
X90413828Y-64332914D01*
X90624197Y-64440102D01*
X90848752Y-64513065D01*
X90848751Y-64513065D01*
X91081948Y-64550000D01*
X91318052Y-64550000D01*
X91551247Y-64513065D01*
X91775802Y-64440102D01*
X91986163Y-64332918D01*
X91986169Y-64332914D01*
X92069104Y-64272658D01*
X92069105Y-64272658D01*
X91329408Y-63532962D01*
X91392993Y-63515925D01*
X91507007Y-63450099D01*
X91600099Y-63357007D01*
X91665925Y-63242993D01*
X91682962Y-63179409D01*
X92422658Y-63919105D01*
X92422658Y-63919104D01*
X92482914Y-63836169D01*
X92482918Y-63836163D01*
X92590102Y-63625802D01*
X92663065Y-63401248D01*
X92666122Y-63381947D01*
X109500000Y-63381947D01*
X109500000Y-63618052D01*
X109536934Y-63851247D01*
X109609897Y-64075802D01*
X109717087Y-64286174D01*
X109777338Y-64369104D01*
X109777340Y-64369105D01*
X110517037Y-63629408D01*
X110534075Y-63692993D01*
X110599901Y-63807007D01*
X110692993Y-63900099D01*
X110807007Y-63965925D01*
X110870590Y-63982962D01*
X110130893Y-64722658D01*
X110213828Y-64782914D01*
X110424197Y-64890102D01*
X110648752Y-64963065D01*
X110648751Y-64963065D01*
X110881948Y-65000000D01*
X111118052Y-65000000D01*
X111351247Y-64963065D01*
X111575802Y-64890102D01*
X111786163Y-64782918D01*
X111786169Y-64782914D01*
X111869104Y-64722658D01*
X111869105Y-64722658D01*
X111129408Y-63982962D01*
X111192993Y-63965925D01*
X111307007Y-63900099D01*
X111400099Y-63807007D01*
X111465925Y-63692993D01*
X111482962Y-63629408D01*
X112222658Y-64369105D01*
X112222658Y-64369104D01*
X112282914Y-64286169D01*
X112282918Y-64286163D01*
X112390102Y-64075802D01*
X112463065Y-63851247D01*
X112500000Y-63618052D01*
X112500000Y-63381947D01*
X112463065Y-63148752D01*
X112390102Y-62924197D01*
X112282914Y-62713828D01*
X112222658Y-62630894D01*
X112222658Y-62630893D01*
X111482962Y-63370590D01*
X111465925Y-63307007D01*
X111400099Y-63192993D01*
X111307007Y-63099901D01*
X111192993Y-63034075D01*
X111129409Y-63017037D01*
X111869105Y-62277340D01*
X111869104Y-62277338D01*
X111786174Y-62217087D01*
X111575802Y-62109897D01*
X111351247Y-62036934D01*
X111351248Y-62036934D01*
X111118052Y-62000000D01*
X110881948Y-62000000D01*
X110648752Y-62036934D01*
X110424197Y-62109897D01*
X110213830Y-62217084D01*
X110130894Y-62277340D01*
X110870591Y-63017037D01*
X110807007Y-63034075D01*
X110692993Y-63099901D01*
X110599901Y-63192993D01*
X110534075Y-63307007D01*
X110517037Y-63370591D01*
X109777340Y-62630894D01*
X109717084Y-62713830D01*
X109609897Y-62924197D01*
X109536934Y-63148752D01*
X109500000Y-63381947D01*
X92666122Y-63381947D01*
X92669967Y-63357676D01*
X92669967Y-63357674D01*
X92700000Y-63168053D01*
X92700000Y-62931947D01*
X92663065Y-62698752D01*
X92590102Y-62474197D01*
X92542562Y-62380894D01*
X92542561Y-62380892D01*
X92482916Y-62263830D01*
X92422658Y-62180894D01*
X92422658Y-62180893D01*
X91682962Y-62920590D01*
X91665925Y-62857007D01*
X91600099Y-62742993D01*
X91507007Y-62649901D01*
X91392993Y-62584075D01*
X91329409Y-62567037D01*
X92069105Y-61827340D01*
X92069104Y-61827338D01*
X91986174Y-61767087D01*
X91775802Y-61659897D01*
X91551247Y-61586934D01*
X91551248Y-61586934D01*
X91318052Y-61550000D01*
X91081948Y-61550000D01*
X90848752Y-61586934D01*
X90624197Y-61659897D01*
X90413830Y-61767084D01*
X90330894Y-61827340D01*
X91070591Y-62567037D01*
X91007007Y-62584075D01*
X90892993Y-62649901D01*
X90799901Y-62742993D01*
X90734075Y-62857007D01*
X90717037Y-62920591D01*
X89977340Y-62180894D01*
X89917084Y-62263830D01*
X89809897Y-62474197D01*
X89736934Y-62698752D01*
X89700000Y-62931947D01*
X89200499Y-62931947D01*
X89200499Y-62249992D01*
X89193440Y-62180893D01*
X89189999Y-62147203D01*
X89189998Y-62147200D01*
X89153459Y-62036934D01*
X89134814Y-61980666D01*
X89042712Y-61831344D01*
X88918656Y-61707288D01*
X88769334Y-61615186D01*
X88602797Y-61560001D01*
X88602795Y-61560000D01*
X88500010Y-61549500D01*
X86899998Y-61549500D01*
X86899981Y-61549501D01*
X86797203Y-61560000D01*
X86797200Y-61560001D01*
X86630668Y-61615185D01*
X86630663Y-61615187D01*
X86481342Y-61707289D01*
X86357289Y-61831342D01*
X86265187Y-61980663D01*
X86265185Y-61980668D01*
X86237349Y-62064670D01*
X86210001Y-62147203D01*
X86210001Y-62147204D01*
X86210000Y-62147204D01*
X86199500Y-62249983D01*
X81000000Y-62249983D01*
X81000000Y-59202135D01*
X114934500Y-59202135D01*
X114934500Y-60797870D01*
X114934501Y-60797876D01*
X114940908Y-60857483D01*
X114991202Y-60992328D01*
X114991206Y-60992335D01*
X115077452Y-61107544D01*
X115077455Y-61107547D01*
X115192664Y-61193793D01*
X115192671Y-61193797D01*
X115327517Y-61244091D01*
X115327516Y-61244091D01*
X115334444Y-61244835D01*
X115387127Y-61250500D01*
X116532872Y-61250499D01*
X116592483Y-61244091D01*
X116727331Y-61193796D01*
X116728430Y-61192972D01*
X116729717Y-61192492D01*
X116735112Y-61189547D01*
X116735535Y-61190322D01*
X116793887Y-61168552D01*
X116850198Y-61177673D01*
X116930873Y-61211091D01*
X117096777Y-61244091D01*
X117128992Y-61250499D01*
X117128996Y-61250500D01*
X117128997Y-61250500D01*
X117331004Y-61250500D01*
X117331005Y-61250499D01*
X117529127Y-61211091D01*
X117715756Y-61133786D01*
X117796562Y-61079792D01*
X117863234Y-61058917D01*
X117930614Y-61077401D01*
X117934340Y-61079795D01*
X118014479Y-61133343D01*
X118014486Y-61133347D01*
X118201016Y-61210609D01*
X118201025Y-61210612D01*
X118250000Y-61220353D01*
X118250000Y-60365865D01*
X118250067Y-60361789D01*
X118250400Y-60351638D01*
X118255500Y-60326003D01*
X118255500Y-60285830D01*
X118269745Y-60300075D01*
X118355255Y-60349444D01*
X118450630Y-60375000D01*
X118549370Y-60375000D01*
X118644745Y-60349444D01*
X118730255Y-60300075D01*
X118750000Y-60280330D01*
X118750000Y-61220352D01*
X118798974Y-61210612D01*
X118798983Y-61210609D01*
X118985513Y-61133347D01*
X118985526Y-61133340D01*
X119153399Y-61021170D01*
X119153403Y-61021167D01*
X119296167Y-60878403D01*
X119296170Y-60878399D01*
X119408340Y-60710526D01*
X119408347Y-60710513D01*
X119485609Y-60523983D01*
X119485612Y-60523974D01*
X119524999Y-60325958D01*
X119525000Y-60325955D01*
X119525000Y-60250000D01*
X118780330Y-60250000D01*
X118800075Y-60230255D01*
X118849444Y-60144745D01*
X118875000Y-60049370D01*
X118875000Y-59950630D01*
X118849444Y-59855255D01*
X118800075Y-59769745D01*
X118780330Y-59750000D01*
X119525000Y-59750000D01*
X119525000Y-59674045D01*
X119524999Y-59674041D01*
X119485612Y-59476025D01*
X119485609Y-59476016D01*
X119408347Y-59289486D01*
X119408341Y-59289475D01*
X119393789Y-59267696D01*
X119393788Y-59267695D01*
X119349982Y-59202135D01*
X130104500Y-59202135D01*
X130104500Y-60797870D01*
X130104501Y-60797876D01*
X130110908Y-60857483D01*
X130161202Y-60992328D01*
X130161206Y-60992335D01*
X130247452Y-61107544D01*
X130247455Y-61107547D01*
X130362664Y-61193793D01*
X130362671Y-61193797D01*
X130497517Y-61244091D01*
X130497516Y-61244091D01*
X130504444Y-61244835D01*
X130557127Y-61250500D01*
X131702872Y-61250499D01*
X131762483Y-61244091D01*
X131897331Y-61193796D01*
X131898430Y-61192972D01*
X131899717Y-61192492D01*
X131905112Y-61189547D01*
X131905535Y-61190322D01*
X131963887Y-61168552D01*
X132020198Y-61177673D01*
X132100873Y-61211091D01*
X132266777Y-61244091D01*
X132298992Y-61250499D01*
X132298996Y-61250500D01*
X132298997Y-61250500D01*
X132501004Y-61250500D01*
X132501005Y-61250499D01*
X132699127Y-61211091D01*
X132885756Y-61133786D01*
X132966562Y-61079792D01*
X133033234Y-61058917D01*
X133100614Y-61077401D01*
X133104340Y-61079795D01*
X133184479Y-61133343D01*
X133184486Y-61133347D01*
X133371016Y-61210609D01*
X133371025Y-61210612D01*
X133420000Y-61220353D01*
X133420000Y-60365865D01*
X133420067Y-60361789D01*
X133420400Y-60351638D01*
X133425500Y-60326003D01*
X133425500Y-60285830D01*
X133439745Y-60300075D01*
X133525255Y-60349444D01*
X133620630Y-60375000D01*
X133719370Y-60375000D01*
X133814745Y-60349444D01*
X133900255Y-60300075D01*
X133920000Y-60280330D01*
X133920000Y-61220352D01*
X133968974Y-61210612D01*
X133968983Y-61210609D01*
X134155513Y-61133347D01*
X134155526Y-61133340D01*
X134323399Y-61021170D01*
X134323403Y-61021167D01*
X134466167Y-60878403D01*
X134466170Y-60878399D01*
X134578340Y-60710526D01*
X134578347Y-60710513D01*
X134655609Y-60523983D01*
X134655612Y-60523974D01*
X134694999Y-60325958D01*
X134695000Y-60325955D01*
X134695000Y-60250000D01*
X133950330Y-60250000D01*
X133970075Y-60230255D01*
X134019444Y-60144745D01*
X134045000Y-60049370D01*
X134045000Y-59950630D01*
X134019444Y-59855255D01*
X133970075Y-59769745D01*
X133950330Y-59750000D01*
X134695000Y-59750000D01*
X134695000Y-59674045D01*
X134694999Y-59674041D01*
X134655612Y-59476025D01*
X134655609Y-59476016D01*
X134578347Y-59289486D01*
X134578340Y-59289473D01*
X134466170Y-59121600D01*
X134466167Y-59121596D01*
X134323403Y-58978832D01*
X134323399Y-58978829D01*
X134155526Y-58866659D01*
X134155513Y-58866652D01*
X133968984Y-58789390D01*
X133968977Y-58789388D01*
X133920000Y-58779645D01*
X133920000Y-59719670D01*
X133900255Y-59699925D01*
X133814745Y-59650556D01*
X133719370Y-59625000D01*
X133620630Y-59625000D01*
X133525255Y-59650556D01*
X133439745Y-59699925D01*
X133425500Y-59714170D01*
X133425500Y-59673997D01*
X133422383Y-59658326D01*
X133420000Y-59634134D01*
X133420000Y-58779646D01*
X133419999Y-58779645D01*
X133371022Y-58789388D01*
X133371015Y-58789390D01*
X133184481Y-58866654D01*
X133184479Y-58866655D01*
X133104337Y-58920204D01*
X133037660Y-58941081D01*
X132970280Y-58922596D01*
X132966558Y-58920204D01*
X132885754Y-58866212D01*
X132699127Y-58788909D01*
X132699119Y-58788907D01*
X132501007Y-58749500D01*
X132501003Y-58749500D01*
X132298997Y-58749500D01*
X132298992Y-58749500D01*
X132100880Y-58788907D01*
X132100868Y-58788910D01*
X132020198Y-58822325D01*
X131950729Y-58829794D01*
X131905342Y-58810036D01*
X131905114Y-58810454D01*
X131900447Y-58807905D01*
X131898432Y-58807028D01*
X131897331Y-58806204D01*
X131897330Y-58806203D01*
X131897328Y-58806202D01*
X131762482Y-58755908D01*
X131762483Y-58755908D01*
X131702883Y-58749501D01*
X131702881Y-58749500D01*
X131702873Y-58749500D01*
X131702864Y-58749500D01*
X130557129Y-58749500D01*
X130557123Y-58749501D01*
X130497516Y-58755908D01*
X130362671Y-58806202D01*
X130362664Y-58806206D01*
X130247455Y-58892452D01*
X130247452Y-58892455D01*
X130161206Y-59007664D01*
X130161202Y-59007671D01*
X130110908Y-59142517D01*
X130104501Y-59202116D01*
X130104500Y-59202135D01*
X119349982Y-59202135D01*
X119296170Y-59121600D01*
X119296167Y-59121596D01*
X119153403Y-58978832D01*
X119153399Y-58978829D01*
X118985526Y-58866659D01*
X118985513Y-58866652D01*
X118798984Y-58789390D01*
X118798977Y-58789388D01*
X118750000Y-58779645D01*
X118750000Y-59719670D01*
X118730255Y-59699925D01*
X118644745Y-59650556D01*
X118549370Y-59625000D01*
X118450630Y-59625000D01*
X118355255Y-59650556D01*
X118269745Y-59699925D01*
X118255500Y-59714170D01*
X118255500Y-59673997D01*
X118252383Y-59658326D01*
X118250000Y-59634134D01*
X118250000Y-58779646D01*
X118249999Y-58779645D01*
X118201022Y-58789388D01*
X118201015Y-58789390D01*
X118014481Y-58866654D01*
X118014479Y-58866655D01*
X117934337Y-58920204D01*
X117867660Y-58941081D01*
X117800280Y-58922596D01*
X117796558Y-58920204D01*
X117715754Y-58866212D01*
X117529127Y-58788909D01*
X117529119Y-58788907D01*
X117331007Y-58749500D01*
X117331003Y-58749500D01*
X117128997Y-58749500D01*
X117128992Y-58749500D01*
X116930880Y-58788907D01*
X116930868Y-58788910D01*
X116850198Y-58822325D01*
X116780729Y-58829794D01*
X116735342Y-58810036D01*
X116735114Y-58810454D01*
X116730447Y-58807905D01*
X116728432Y-58807028D01*
X116727331Y-58806204D01*
X116727330Y-58806203D01*
X116727328Y-58806202D01*
X116592482Y-58755908D01*
X116592483Y-58755908D01*
X116532883Y-58749501D01*
X116532881Y-58749500D01*
X116532873Y-58749500D01*
X116532864Y-58749500D01*
X115387129Y-58749500D01*
X115387123Y-58749501D01*
X115327516Y-58755908D01*
X115192671Y-58806202D01*
X115192664Y-58806206D01*
X115077455Y-58892452D01*
X115077452Y-58892455D01*
X114991206Y-59007664D01*
X114991202Y-59007671D01*
X114940908Y-59142517D01*
X114934501Y-59202116D01*
X114934500Y-59202135D01*
X81000000Y-59202135D01*
X81000000Y-56881902D01*
X100499500Y-56881902D01*
X100499500Y-57118097D01*
X100536446Y-57351368D01*
X100609433Y-57575996D01*
X100716657Y-57786433D01*
X100855483Y-57977510D01*
X101022490Y-58144517D01*
X101213567Y-58283343D01*
X101312991Y-58334002D01*
X101424003Y-58390566D01*
X101424005Y-58390566D01*
X101424008Y-58390568D01*
X101544412Y-58429689D01*
X101648631Y-58463553D01*
X101881903Y-58500500D01*
X101881908Y-58500500D01*
X102118097Y-58500500D01*
X102351368Y-58463553D01*
X102575992Y-58390568D01*
X102786433Y-58283343D01*
X102977510Y-58144517D01*
X103144517Y-57977510D01*
X103283343Y-57786433D01*
X103390568Y-57575992D01*
X103463553Y-57351368D01*
X103500500Y-57118097D01*
X103500500Y-56881902D01*
X109499500Y-56881902D01*
X109499500Y-57118097D01*
X109536446Y-57351368D01*
X109609433Y-57575996D01*
X109716657Y-57786433D01*
X109855483Y-57977510D01*
X110022490Y-58144517D01*
X110213567Y-58283343D01*
X110312991Y-58334002D01*
X110424003Y-58390566D01*
X110424005Y-58390566D01*
X110424008Y-58390568D01*
X110544412Y-58429689D01*
X110648631Y-58463553D01*
X110881903Y-58500500D01*
X110881908Y-58500500D01*
X111118097Y-58500500D01*
X111351368Y-58463553D01*
X111575992Y-58390568D01*
X111786433Y-58283343D01*
X111977510Y-58144517D01*
X112144517Y-57977510D01*
X112283343Y-57786433D01*
X112390568Y-57575992D01*
X112463553Y-57351368D01*
X112500500Y-57118097D01*
X112500500Y-56881902D01*
X112463553Y-56648631D01*
X112390566Y-56424003D01*
X112283342Y-56213566D01*
X112144517Y-56022490D01*
X111977510Y-55855483D01*
X111786433Y-55716657D01*
X111575996Y-55609433D01*
X111351368Y-55536446D01*
X111118097Y-55499500D01*
X111118092Y-55499500D01*
X110881908Y-55499500D01*
X110881903Y-55499500D01*
X110648631Y-55536446D01*
X110424003Y-55609433D01*
X110213566Y-55716657D01*
X110104550Y-55795862D01*
X110022490Y-55855483D01*
X110022488Y-55855485D01*
X110022487Y-55855485D01*
X109855485Y-56022487D01*
X109855485Y-56022488D01*
X109855483Y-56022490D01*
X109795862Y-56104550D01*
X109716657Y-56213566D01*
X109609433Y-56424003D01*
X109536446Y-56648631D01*
X109499500Y-56881902D01*
X103500500Y-56881902D01*
X103463553Y-56648631D01*
X103390566Y-56424003D01*
X103283342Y-56213566D01*
X103144517Y-56022490D01*
X102977510Y-55855483D01*
X102786433Y-55716657D01*
X102575996Y-55609433D01*
X102351368Y-55536446D01*
X102118097Y-55499500D01*
X102118092Y-55499500D01*
X101881908Y-55499500D01*
X101881903Y-55499500D01*
X101648631Y-55536446D01*
X101424003Y-55609433D01*
X101213566Y-55716657D01*
X101104550Y-55795862D01*
X101022490Y-55855483D01*
X101022488Y-55855485D01*
X101022487Y-55855485D01*
X100855485Y-56022487D01*
X100855485Y-56022488D01*
X100855483Y-56022490D01*
X100795862Y-56104550D01*
X100716657Y-56213566D01*
X100609433Y-56424003D01*
X100536446Y-56648631D01*
X100499500Y-56881902D01*
X81000000Y-56881902D01*
X81000000Y-39621153D01*
X102699500Y-39621153D01*
X102699500Y-39778846D01*
X102730261Y-39933489D01*
X102730264Y-39933501D01*
X102790602Y-40079172D01*
X102790609Y-40079185D01*
X102878210Y-40210288D01*
X102878213Y-40210292D01*
X102989710Y-40321789D01*
X103120815Y-40409390D01*
X103120821Y-40409394D01*
X103144475Y-40419191D01*
X103184703Y-40446071D01*
X103513181Y-40774549D01*
X103546666Y-40835872D01*
X103549500Y-40862230D01*
X103549500Y-48645396D01*
X103540062Y-48692844D01*
X103530263Y-48716503D01*
X103530262Y-48716506D01*
X103530260Y-48716511D01*
X103499500Y-48871153D01*
X103499500Y-49028846D01*
X103530261Y-49183489D01*
X103530264Y-49183501D01*
X103590602Y-49329172D01*
X103590609Y-49329185D01*
X103678210Y-49460288D01*
X103678213Y-49460292D01*
X103789707Y-49571786D01*
X103789711Y-49571789D01*
X103920814Y-49659390D01*
X103920827Y-49659397D01*
X104066498Y-49719735D01*
X104066503Y-49719737D01*
X104221153Y-49750499D01*
X104221156Y-49750500D01*
X104221158Y-49750500D01*
X104378844Y-49750500D01*
X104378845Y-49750499D01*
X104533497Y-49719737D01*
X104679179Y-49659394D01*
X104810289Y-49571789D01*
X104921789Y-49460289D01*
X105009394Y-49329179D01*
X105069737Y-49183497D01*
X105100500Y-49028842D01*
X105100500Y-48871158D01*
X105100500Y-48871155D01*
X105100499Y-48871153D01*
X105069739Y-48716511D01*
X105069738Y-48716508D01*
X105069737Y-48716503D01*
X105059937Y-48692844D01*
X105050500Y-48645396D01*
X105050500Y-40426079D01*
X105021659Y-40281092D01*
X105021658Y-40281091D01*
X105021658Y-40281087D01*
X104965084Y-40144505D01*
X104905609Y-40055494D01*
X104882952Y-40021584D01*
X104246071Y-39384703D01*
X104219191Y-39344475D01*
X104209394Y-39320821D01*
X104209389Y-39320814D01*
X104121789Y-39189710D01*
X104010292Y-39078213D01*
X104010288Y-39078210D01*
X103879185Y-38990609D01*
X103879172Y-38990602D01*
X103733501Y-38930264D01*
X103733489Y-38930261D01*
X103578845Y-38899500D01*
X103578842Y-38899500D01*
X103421158Y-38899500D01*
X103421155Y-38899500D01*
X103266510Y-38930261D01*
X103266498Y-38930264D01*
X103120827Y-38990602D01*
X103120814Y-38990609D01*
X102989711Y-39078210D01*
X102989707Y-39078213D01*
X102878213Y-39189707D01*
X102878210Y-39189711D01*
X102790609Y-39320814D01*
X102790602Y-39320827D01*
X102730264Y-39466498D01*
X102730261Y-39466510D01*
X102699500Y-39621153D01*
X81000000Y-39621153D01*
X81000000Y-34749974D01*
X147999500Y-34749974D01*
X147999500Y-35250025D01*
X148035173Y-35748796D01*
X148106337Y-36243760D01*
X148212627Y-36732365D01*
X148212630Y-36732375D01*
X148307442Y-37055274D01*
X148353510Y-37212164D01*
X148353514Y-37212174D01*
X148528260Y-37680690D01*
X148528262Y-37680693D01*
X148735978Y-38135530D01*
X148735982Y-38135537D01*
X148975630Y-38574420D01*
X148975638Y-38574433D01*
X149245964Y-38995069D01*
X149245980Y-38995093D01*
X149545637Y-39395389D01*
X149741264Y-39621153D01*
X149873106Y-39773307D01*
X149873115Y-39773316D01*
X149873127Y-39773329D01*
X150226670Y-40126872D01*
X150226683Y-40126884D01*
X150226693Y-40126894D01*
X150374393Y-40254877D01*
X150604610Y-40454362D01*
X151004906Y-40754019D01*
X151004930Y-40754035D01*
X151425566Y-41024361D01*
X151425579Y-41024369D01*
X151864462Y-41264017D01*
X151864469Y-41264021D01*
X152319306Y-41471737D01*
X152319309Y-41471739D01*
X152319316Y-41471741D01*
X152319317Y-41471742D01*
X152787836Y-41646490D01*
X153267624Y-41787369D01*
X153267634Y-41787372D01*
X153756239Y-41893662D01*
X153756246Y-41893663D01*
X154251204Y-41964827D01*
X154749977Y-42000500D01*
X155250023Y-42000500D01*
X155748796Y-41964827D01*
X156243754Y-41893663D01*
X156243755Y-41893662D01*
X156243760Y-41893662D01*
X156732365Y-41787372D01*
X156732368Y-41787371D01*
X156732373Y-41787370D01*
X157212164Y-41646490D01*
X157680683Y-41471742D01*
X157887437Y-41377320D01*
X158135530Y-41264021D01*
X158135534Y-41264018D01*
X158135542Y-41264015D01*
X158574423Y-41024368D01*
X158909345Y-40809126D01*
X158995069Y-40754035D01*
X158995093Y-40754019D01*
X159395389Y-40454362D01*
X159428029Y-40426079D01*
X159773307Y-40126894D01*
X160126894Y-39773307D01*
X160454355Y-39395397D01*
X160454354Y-39395397D01*
X160454362Y-39395389D01*
X160754019Y-38995093D01*
X160754035Y-38995069D01*
X160815453Y-38899500D01*
X161024368Y-38574423D01*
X161264015Y-38135542D01*
X161264018Y-38135534D01*
X161264021Y-38135530D01*
X161471737Y-37680693D01*
X161471739Y-37680690D01*
X161471742Y-37680683D01*
X161646490Y-37212164D01*
X161787370Y-36732373D01*
X161893663Y-36243754D01*
X161964827Y-35748796D01*
X162000500Y-35250023D01*
X162000500Y-34749977D01*
X161964827Y-34251204D01*
X161893663Y-33756246D01*
X161893662Y-33756239D01*
X161787372Y-33267634D01*
X161787369Y-33267624D01*
X161646490Y-32787836D01*
X161471742Y-32319317D01*
X161471741Y-32319316D01*
X161471739Y-32319309D01*
X161471737Y-32319306D01*
X161264021Y-31864469D01*
X161264017Y-31864462D01*
X161207913Y-31761716D01*
X161024368Y-31425577D01*
X160948168Y-31307007D01*
X160754035Y-31004930D01*
X160754019Y-31004906D01*
X160454362Y-30604610D01*
X160242228Y-30359795D01*
X160126894Y-30226693D01*
X160126884Y-30226683D01*
X160126872Y-30226670D01*
X159773329Y-29873127D01*
X159773316Y-29873115D01*
X159773307Y-29873106D01*
X159629970Y-29748904D01*
X159395389Y-29545637D01*
X158995093Y-29245980D01*
X158995069Y-29245964D01*
X158574433Y-28975638D01*
X158574420Y-28975630D01*
X158135537Y-28735982D01*
X158135530Y-28735978D01*
X157680693Y-28528262D01*
X157680690Y-28528260D01*
X157355858Y-28407105D01*
X157212164Y-28353510D01*
X157055274Y-28307442D01*
X156732375Y-28212630D01*
X156732365Y-28212627D01*
X156243760Y-28106337D01*
X155748796Y-28035173D01*
X155250025Y-27999500D01*
X155250023Y-27999500D01*
X154749977Y-27999500D01*
X154749974Y-27999500D01*
X154251203Y-28035173D01*
X153756239Y-28106337D01*
X153267634Y-28212627D01*
X153267624Y-28212630D01*
X152787853Y-28353505D01*
X152787836Y-28353510D01*
X152787826Y-28353513D01*
X152787825Y-28353514D01*
X152319309Y-28528260D01*
X152319306Y-28528262D01*
X151864469Y-28735978D01*
X151864462Y-28735982D01*
X151425579Y-28975630D01*
X151425566Y-28975638D01*
X151004930Y-29245964D01*
X151004906Y-29245980D01*
X150604610Y-29545637D01*
X150226696Y-29873103D01*
X150226670Y-29873127D01*
X149873127Y-30226670D01*
X149873103Y-30226696D01*
X149545637Y-30604610D01*
X149245980Y-31004906D01*
X149245964Y-31004930D01*
X148975638Y-31425566D01*
X148975630Y-31425579D01*
X148735982Y-31864462D01*
X148735978Y-31864469D01*
X148528262Y-32319306D01*
X148528260Y-32319309D01*
X148353514Y-32787825D01*
X148353505Y-32787853D01*
X148212630Y-33267624D01*
X148212627Y-33267634D01*
X148106337Y-33756239D01*
X148035173Y-34251203D01*
X147999500Y-34749974D01*
X81000000Y-34749974D01*
X81000000Y-31043497D01*
X81019685Y-30976458D01*
X81027172Y-30966035D01*
X81718292Y-30102135D01*
X108029500Y-30102135D01*
X108029500Y-31897870D01*
X108029501Y-31897876D01*
X108035908Y-31957483D01*
X108086202Y-32092328D01*
X108086206Y-32092335D01*
X108172452Y-32207544D01*
X108172455Y-32207547D01*
X108287664Y-32293793D01*
X108287671Y-32293797D01*
X108422517Y-32344091D01*
X108422516Y-32344091D01*
X108429444Y-32344835D01*
X108482127Y-32350500D01*
X110277872Y-32350499D01*
X110337483Y-32344091D01*
X110472331Y-32293796D01*
X110587546Y-32207546D01*
X110673796Y-32092331D01*
X110722810Y-31960916D01*
X110764681Y-31904984D01*
X110830145Y-31880566D01*
X110898418Y-31895417D01*
X110926673Y-31916569D01*
X111040213Y-32030109D01*
X111212179Y-32155048D01*
X111212181Y-32155049D01*
X111212184Y-32155051D01*
X111401588Y-32251557D01*
X111603757Y-32317246D01*
X111813713Y-32350500D01*
X111813714Y-32350500D01*
X112026286Y-32350500D01*
X112026287Y-32350500D01*
X112236243Y-32317246D01*
X112438412Y-32251557D01*
X112627816Y-32155051D01*
X112714138Y-32092335D01*
X112799786Y-32030109D01*
X112799788Y-32030106D01*
X112799792Y-32030104D01*
X112950104Y-31879792D01*
X112950106Y-31879788D01*
X112950109Y-31879786D01*
X113075048Y-31707820D01*
X113075047Y-31707820D01*
X113075051Y-31707816D01*
X113079514Y-31699054D01*
X113127488Y-31648259D01*
X113195308Y-31631463D01*
X113261444Y-31653999D01*
X113300486Y-31699056D01*
X113304951Y-31707820D01*
X113429890Y-31879786D01*
X113580213Y-32030109D01*
X113752179Y-32155048D01*
X113752181Y-32155049D01*
X113752184Y-32155051D01*
X113941588Y-32251557D01*
X114143757Y-32317246D01*
X114353713Y-32350500D01*
X114353714Y-32350500D01*
X114566286Y-32350500D01*
X114566287Y-32350500D01*
X114776243Y-32317246D01*
X114978412Y-32251557D01*
X115167816Y-32155051D01*
X115254138Y-32092335D01*
X115339786Y-32030109D01*
X115339788Y-32030106D01*
X115339792Y-32030104D01*
X115490104Y-31879792D01*
X115490106Y-31879788D01*
X115490109Y-31879786D01*
X115575890Y-31761717D01*
X115615051Y-31707816D01*
X115619793Y-31698508D01*
X115667763Y-31647711D01*
X115735583Y-31630911D01*
X115801719Y-31653445D01*
X115840763Y-31698500D01*
X115845373Y-31707547D01*
X115884728Y-31761716D01*
X116517037Y-31129408D01*
X116534075Y-31192993D01*
X116599901Y-31307007D01*
X116692993Y-31400099D01*
X116807007Y-31465925D01*
X116870590Y-31482962D01*
X116238282Y-32115269D01*
X116238282Y-32115270D01*
X116292449Y-32154624D01*
X116481782Y-32251095D01*
X116683870Y-32316757D01*
X116893754Y-32350000D01*
X117106246Y-32350000D01*
X117316127Y-32316757D01*
X117316130Y-32316757D01*
X117518217Y-32251095D01*
X117707554Y-32154622D01*
X117761716Y-32115270D01*
X117761717Y-32115270D01*
X117129408Y-31482962D01*
X117192993Y-31465925D01*
X117307007Y-31400099D01*
X117400099Y-31307007D01*
X117465925Y-31192993D01*
X117482962Y-31129409D01*
X118115270Y-31761717D01*
X118115270Y-31761716D01*
X118154622Y-31707554D01*
X118251095Y-31518217D01*
X118316757Y-31316130D01*
X118316757Y-31316127D01*
X118350000Y-31106246D01*
X118350000Y-30893753D01*
X118316757Y-30683872D01*
X118316757Y-30683869D01*
X118251095Y-30481782D01*
X118154624Y-30292449D01*
X118115270Y-30238282D01*
X118115269Y-30238282D01*
X117482962Y-30870590D01*
X117465925Y-30807007D01*
X117400099Y-30692993D01*
X117307007Y-30599901D01*
X117192993Y-30534075D01*
X117129409Y-30517037D01*
X117761716Y-29884728D01*
X117707550Y-29845375D01*
X117518217Y-29748904D01*
X117316129Y-29683242D01*
X117106246Y-29650000D01*
X116893754Y-29650000D01*
X116683872Y-29683242D01*
X116683869Y-29683242D01*
X116481782Y-29748904D01*
X116292439Y-29845380D01*
X116238282Y-29884727D01*
X116238282Y-29884728D01*
X116870591Y-30517037D01*
X116807007Y-30534075D01*
X116692993Y-30599901D01*
X116599901Y-30692993D01*
X116534075Y-30807007D01*
X116517037Y-30870591D01*
X115884728Y-30238282D01*
X115884727Y-30238282D01*
X115845380Y-30292440D01*
X115845376Y-30292446D01*
X115840760Y-30301505D01*
X115792781Y-30352297D01*
X115724959Y-30369087D01*
X115658826Y-30346543D01*
X115619794Y-30301493D01*
X115615051Y-30292184D01*
X115615049Y-30292181D01*
X115615048Y-30292179D01*
X115490109Y-30120213D01*
X115339786Y-29969890D01*
X115167820Y-29844951D01*
X114978414Y-29748444D01*
X114978413Y-29748443D01*
X114978412Y-29748443D01*
X114776243Y-29682754D01*
X114776241Y-29682753D01*
X114776240Y-29682753D01*
X114614957Y-29657208D01*
X114566287Y-29649500D01*
X114353713Y-29649500D01*
X114305042Y-29657208D01*
X114143760Y-29682753D01*
X113941585Y-29748444D01*
X113752179Y-29844951D01*
X113580213Y-29969890D01*
X113429890Y-30120213D01*
X113304949Y-30292182D01*
X113300484Y-30300946D01*
X113252509Y-30351742D01*
X113184688Y-30368536D01*
X113118553Y-30345998D01*
X113079516Y-30300946D01*
X113075050Y-30292182D01*
X112950109Y-30120213D01*
X112799786Y-29969890D01*
X112627820Y-29844951D01*
X112438414Y-29748444D01*
X112438413Y-29748443D01*
X112438412Y-29748443D01*
X112236243Y-29682754D01*
X112236241Y-29682753D01*
X112236240Y-29682753D01*
X112074957Y-29657208D01*
X112026287Y-29649500D01*
X111813713Y-29649500D01*
X111765042Y-29657208D01*
X111603760Y-29682753D01*
X111401585Y-29748444D01*
X111212179Y-29844951D01*
X111040215Y-29969889D01*
X110926673Y-30083431D01*
X110865350Y-30116915D01*
X110795658Y-30111931D01*
X110739725Y-30070059D01*
X110722810Y-30039082D01*
X110673797Y-29907671D01*
X110673793Y-29907664D01*
X110587547Y-29792455D01*
X110587544Y-29792452D01*
X110472335Y-29706206D01*
X110472328Y-29706202D01*
X110337482Y-29655908D01*
X110337483Y-29655908D01*
X110277883Y-29649501D01*
X110277881Y-29649500D01*
X110277873Y-29649500D01*
X110277864Y-29649500D01*
X108482129Y-29649500D01*
X108482123Y-29649501D01*
X108422516Y-29655908D01*
X108287671Y-29706202D01*
X108287664Y-29706206D01*
X108172455Y-29792452D01*
X108172452Y-29792455D01*
X108086206Y-29907664D01*
X108086202Y-29907671D01*
X108035908Y-30042517D01*
X108029501Y-30102116D01*
X108029500Y-30102135D01*
X81718292Y-30102135D01*
X81782925Y-30021344D01*
X84962770Y-26046538D01*
X85020021Y-26006486D01*
X85059598Y-26000000D01*
X162876000Y-26000000D01*
X162943039Y-26019685D01*
G37*
%TD.AperFunction*%
%TD*%
M02*
